<?xml version="1.0"?>

<svg fill="#EEEBE3" version="1.1" id="Astral_People" xmlns="http://www.w3.org/2000/svg" xmlns:xlink="http://www.w3.org/1999/xlink" x="0px" y="0px" viewBox="0 0 21 15" style="enable-background:new 0 0 21 15;" xml:space="preserve">

<path d="M0.5,0.4h20v14.3c-0.1,0-0.1,0-0.2,0c-0.5,0-1.1,0-1.6,0c-6,0-12,0-18,0H0.5v-0.2c0-4.5,0-8.9,0-13.4&#xA;&#x9;C0.5,0.8,0.5,0.6,0.5,0.4 M19.6,1.2H1.4v12.6h18.3V1.2z"></path>
<path class="st0" d="M11.9,5.3h-0.5v2h-0.8V2c0.6,0,1.2-0.1,1.7,0c0.4,0.1,0.7,0.4,0.8,0.8c0.1,0.5,0.1,1,0,1.5&#xA;&#x9;c0,0.2-0.1,0.4-0.3,0.6c-0.1,0.1-0.1,0.1-0.1,0.2c0.2,0.7,0.4,1.4,0.5,2.1c0,0,0,0,0,0.1h-0.4c-0.1,0-0.2,0-0.4,0&#xA;&#x9;c-0.1,0-0.1,0-0.1-0.1C12.2,6.7,12.1,6,11.9,5.3C11.9,5.4,11.9,5.4,11.9,5.3 M11.4,4.5c0.2,0,0.3,0,0.5,0c0.2,0,0.4-0.2,0.4-0.4&#xA;&#x9;c0-0.3,0-0.6,0-0.9c0-0.2-0.1-0.3-0.2-0.4c-0.2-0.1-0.5,0-0.7,0V4.5z"></path>
<path class="st0" d="M13,10.5c0,0.5,0,1,0,1.5c0,0.6-0.4,1.1-0.9,1.2c-0.5,0.2-1.1,0-1.4-0.5c-0.2-0.2-0.2-0.5-0.2-0.8&#xA;&#x9;c0-1,0-1.9,0-2.9c0-0.7,0.4-1.2,1.1-1.3c0.8-0.1,1.4,0.5,1.4,1.1c0,0.3,0,0.6,0,0.9C13,10,13,10.2,13,10.5 M11.3,10.5&#xA;&#x9;c0,0.5,0,1,0,1.5c0,0.3,0.2,0.5,0.5,0.5c0.3,0,0.5-0.2,0.5-0.5c0-1,0-1.9,0-2.9c0-0.1,0-0.2-0.1-0.3c-0.1-0.2-0.3-0.2-0.5-0.2&#xA;&#x9;c-0.2,0.1-0.3,0.2-0.3,0.4C11.3,9.5,11.3,10,11.3,10.5"></path>
<path class="st0" d="M16.6,7.3h-0.8c-0.1-0.4-0.1-0.8-0.2-1.2H15c-0.3,0-0.3,0-0.3,0.3c0,0.3-0.1,0.6-0.1,0.9c0,0,0,0,0,0.1&#xA;&#x9;c-0.2,0-0.5,0-0.7,0c0,0-0.1,0-0.1,0C14,5.6,14.3,3.8,14.6,2c0.4,0,0.7,0,1.1,0c0,0,0.1,0,0.1,0.1c0.1,0.7,0.2,1.4,0.3,2&#xA;&#x9;c0.1,0.6,0.2,1.2,0.3,1.8C16.4,6.4,16.5,6.9,16.6,7.3 M15.1,3.3C15.1,3.3,15.1,3.3,15.1,3.3c-0.1,0.7-0.2,1.3-0.3,2h0.6&#xA;&#x9;C15.3,4.6,15.2,4,15.1,3.3"></path>
<path class="st0" d="M3.7,2C4,3.8,4.3,5.6,4.6,7.3H3.8c0-0.2-0.1-0.4-0.1-0.5c0-0.2-0.1-0.4-0.1-0.6c0-0.1,0-0.1-0.1-0.1&#xA;&#x9;c-0.2,0-0.5,0-0.8,0c0,0.2-0.1,0.4-0.1,0.6c0,0.2-0.1,0.4-0.1,0.6c0,0,0,0.1-0.1,0.1c-0.3,0-0.5,0-0.8,0C2,5.6,2.3,3.8,2.6,2H3.7z&#xA;&#x9; M3.2,3.3C3.2,3.3,3.2,3.3,3.2,3.3C3.1,4,3,4.7,2.9,5.3h0.6C3.4,4.7,3.3,4,3.2,3.3"></path>
<path class="st0" d="M18.2,7.8H19v0.1c0,1.7,0,3.4,0,5.1c0,0.1,0,0.1-0.1,0.1c-0.4,0-0.8,0-1.2,0c-0.7,0-1.2-0.4-1.2-1.1&#xA;&#x9;c0-0.4-0.1-0.9,0-1.3c0.1-0.6,0.6-1,1.2-1c0.1,0,0.3,0,0.4,0c0.1,0,0.1,0,0.1-0.1c0-0.6,0-1.2,0-1.8V7.8z M18.2,10.6&#xA;&#x9;c-0.2,0-0.4,0-0.6,0c-0.2,0-0.4,0.2-0.4,0.4c0,0.3,0,0.6,0,0.8c0,0.2,0.1,0.4,0.3,0.4c0.2,0,0.4,0,0.7,0V10.6z"></path>
<path class="st0" d="M9.9,13.1c-0.5,0-1,0-1.5,0c-0.6,0-1-0.5-1-1.1c0-0.4,0-0.7,0-1.1c0-0.6,0.6-1.1,1.2-1.1c0.2,0,0.4,0,0.6,0v-2&#xA;&#x9;h0.8V13.1z M9.1,12.3v-1.7c0,0-0.1,0-0.1,0c-0.1,0-0.3,0-0.4,0c-0.2,0-0.4,0.2-0.4,0.4c0,0.3,0,0.6,0,1c0,0.2,0.1,0.3,0.3,0.3&#xA;&#x9;C8.6,12.3,8.8,12.3,9.1,12.3"></path>
<polygon class="st0" points="15,10.9 13.9,10.9 13.9,10.1 15,10.1 15,8.6 13.5,8.6 13.5,7.8 15.8,7.8 15.8,13.1 13.5,13.1 &#xA;&#x9;13.5,12.3 15,12.3 "></polygon>
<polygon class="st0" points="3.5,10.1 3.5,8.6 2,8.6 2,7.8 4.3,7.8 4.3,13.1 2,13.1 2,12.3 3.5,12.3 3.5,10.9 2.4,10.9 2.4,10.1 "></polygon>
<path class="st0" d="M7.4,3.2c-0.2,0-0.5,0.1-0.7,0.1c0-0.1,0-0.2-0.1-0.3C6.5,2.8,6.3,2.6,6.1,2.7c-0.2,0-0.4,0.2-0.4,0.5&#xA;&#x9;C5.7,3.5,5.8,3.8,6,4c0.2,0.2,0.4,0.4,0.6,0.6C7,4.9,7.3,5.3,7.4,5.7C7.5,6.3,7.3,6.9,7,7.2C6.2,7.7,5.2,7.4,4.9,6.5&#xA;&#x9;C4.8,6.3,4.8,6.1,4.8,5.9c0.3,0,0.5,0,0.8-0.1c0,0.1,0,0.2,0.1,0.3c0,0.1,0.1,0.2,0.1,0.3C5.8,6.6,6,6.7,6.2,6.7&#xA;&#x9;c0.2,0,0.4-0.2,0.4-0.4c0.1-0.3-0.1-0.6-0.3-0.9C6,5.1,5.8,4.9,5.5,4.6C5.2,4.3,5,4.1,4.9,3.7C4.8,3.3,4.8,2.9,5,2.5&#xA;&#x9;C5.3,2.1,5.6,2,6,1.9c0.3,0,0.6,0,0.8,0.2C7.2,2.3,7.4,2.8,7.4,3.2"></path>
<polygon class="st0" points="7.6,2.8 7.6,2 10.1,2 10.1,2.8 9.3,2.8 9.3,7.3 8.5,7.3 8.5,2.8 "></polygon>
<polygon class="st0" points="16.9,2 17.7,2 17.7,6.5 19.1,6.5 19.1,7.3 16.9,7.3 "></polygon>
<path class="st0" d="M6.1,13.1V13c0-1.4,0-2.8,0-4.3c0-0.1,0-0.1-0.1-0.1c-0.4,0-0.8,0-1.1,0H4.7V7.8c0,0,0.1,0,0.1,0&#xA;&#x9;c0.7,0,1.3,0,2,0c0.1,0,0.1,0,0.1,0.1c0,1.7,0,3.4,0,5.1c0,0.1,0,0.1-0.1,0.1C6.6,13.1,6.3,13.1,6.1,13.1"></path>
</svg>