<svg width="1880" height="343" viewBox="0 0 1880 343" fill="none" xmlns="http://www.w3.org/2000/svg"><path d="M1879.78 168.862C1879.58 162.889 1880.53 156.916 1879.08 150.943C1878.47 148.459 1879.16 145.78 1878.27 143.156C1877.63 141.258 1878.22 139.109 1877.52 136.988C1876.91 135.117 1876.82 132.885 1876.71 130.875C1876.46 127.107 1875.26 123.534 1874.79 119.822C1874.48 117.478 1873.31 115.021 1872.72 112.649C1872.08 110.081 1871.36 107.458 1870.66 104.946C1869.13 99.5587 1867.06 94.2835 1864.72 89.2037C1861.26 81.6956 1857.64 74.2433 1853.12 67.2655C1848.66 60.3994 1843.56 54.0635 1838.12 47.9789C1833.47 42.7874 1827.92 38.5728 1822.34 34.4141C1817.13 30.5344 1811.69 27.0176 1806.01 23.8916C1800.09 20.6539 1793.79 18.1977 1787.47 15.8532C1784.87 14.9042 1782.08 14.4297 1779.55 13.4528C1776.34 12.2247 1772.86 12.1689 1769.79 10.6338C1768 11.2199 1766.5 9.62899 1764.88 9.88019C1762.93 10.1872 1761.37 8.84748 1759.53 9.01495C1757.8 9.18242 1756.24 8.45673 1754.59 8.26135C1751.89 7.92642 1749.16 8.06597 1746.4 7.50775C1743.55 6.92161 1740.49 7.50775 1737.5 7.34028C1734.63 7.20073 1731.79 6.61459 1728.92 6.58668C1704.74 6.53086 1680.6 6.55877 1656.43 6.55877H1570.97C1561.38 6.55877 1551.79 6.41921 1542.23 6.58668C1532.89 6.75415 1523.52 5.83308 1514.21 7.28446C1512.29 7.59148 1510.47 8.01015 1508.72 8.73584C1503.39 10.9687 1500.13 15.3229 1497.59 20.2073C1494.69 25.7337 1492.13 31.4276 1489.45 37.0936C1487.25 41.7268 1485.1 46.3601 1482.98 51.0212C1480.61 56.2406 1477.74 61.2367 1475.62 66.5956C1473.78 71.2289 1471.41 75.6667 1469.21 80.1325C1467.09 84.4029 1464.83 88.5896 1462.77 92.86C1461.21 96.0977 1459.15 98.7772 1455.94 100.424H1451.73C1446.13 95.9302 1448.05 97.7165 1444.12 90.5155C1441.19 85.1286 1439.02 79.4068 1436.42 73.8525C1433.89 68.4099 1431.46 62.9393 1429.01 57.4687C1426.3 51.412 1423.49 45.439 1420.73 39.4381C1417.8 33.0744 1415.04 26.6548 1411.81 20.4306C1410.41 17.7511 1408.82 15.4066 1406.73 13.2016C1402.94 9.18242 1398 7.47984 1392.93 7.45193C1346.09 7.28446 1299.25 7.34028 1252.41 7.34028C1250.32 7.34028 1248.34 7.92641 1246.47 8.68002C1240.62 10.9966 1237.27 17.4441 1237.58 22.2448C1237.66 23.4171 1237.83 24.8127 1237.33 25.7616C1236.33 27.6038 1236.41 29.725 1237 31.1485C1237.58 32.6278 1237.55 33.9675 1237.58 35.3352C1237.66 41.1407 1237.61 46.9462 1237.61 52.7517V87.1941C1237.61 92.9996 1237.39 98.833 1237.66 104.611C1237.94 110.36 1236.72 115.998 1236.83 121.692C1236.91 126.158 1236.33 130.428 1234.43 133.778C1232.12 135.927 1230.03 135.732 1228.1 134.336C1226.82 133.387 1225.45 132.271 1224.7 130.903C1223.25 128.196 1221.27 125.879 1219.77 123.227C1218.29 120.604 1216.92 117.924 1215.47 115.301C1212.32 109.579 1209.12 103.885 1205.99 98.1631C1202.7 92.1064 1199.55 85.966 1196.26 79.9092C1193.08 74.0758 1189.71 68.3261 1186.59 62.4369C1183.21 56.129 1179.84 49.821 1176.33 43.5968C1174.68 40.6383 1173.15 37.6239 1171.42 34.6932C1169.64 31.6509 1168.33 28.4132 1166.43 25.3988C1164.06 21.6308 1162.14 17.6674 1159.18 14.2064C1156.87 11.4711 1154.19 9.26615 1151.1 8.34508C1147.47 7.28446 1143.6 6.53086 1139.67 6.53086C1118.2 6.53086 1096.73 6.47504 1075.29 6.58668C1069.6 6.58668 1063.89 6.05637 1058.2 7.28446C1054.91 7.98224 1051.95 9.46153 1050 11.7502C1047.1 15.1275 1045.6 19.37 1045.62 24.087C1045.71 39.7451 1045.65 55.4312 1045.65 71.0893V83.2586C1045.65 85.2961 1045.76 87.3057 1045.62 89.3432C1045.49 91.2691 1044.87 93.167 1044.93 95.0929C1044.98 97.1025 1044.17 98.9167 1044.09 100.843C1043.98 102.824 1043.09 104.471 1042.47 106.257C1041.97 107.653 1041.02 107.988 1039.57 107.876C1036.54 105.113 1035.14 101.15 1033.66 97.4933C1031.29 91.604 1029.43 85.4356 1026.67 79.7418C1022.12 70.3357 1017.77 60.818 1011.16 52.5005C1007.68 48.1185 1004.17 43.7364 1000.43 39.5776C997.001 35.7538 992.875 32.6836 988.86 29.5017C984.65 26.1524 980.273 22.9984 975.589 20.4306C969.233 16.9417 962.764 13.6203 956.101 10.7734C953.536 9.68482 950.608 8.98704 947.876 8.12179C945.005 7.22864 941.938 6.72624 939.205 5.60979C936.473 4.49334 933.406 4.85619 930.841 3.32108C929.085 3.76766 927.523 2.40001 925.934 2.59539C923.983 2.81868 922.421 1.56268 920.581 1.70223C918.853 1.84179 917.208 1.00445 915.646 1.00445C910.182 1.00445 904.857 -0.195726 899.364 -0.000348113C891.279 0.278763 883.166 0.0833853 875.081 0.0833853C874.133 0.0833853 872.962 -0.279459 872.292 0.167119C870.787 1.1161 869.226 1.00445 867.72 0.864897C865.936 0.669519 864.43 1.67432 862.785 1.67432C858.603 1.67432 854.672 3.32108 850.49 3.34899C849.152 4.54917 847.34 3.65601 846.029 4.29797C843.715 5.44232 841.178 5.60979 838.78 6.36339C836.411 7.11699 834.124 8.62419 831.448 8.23344C826.987 10.1872 822.331 11.6665 817.926 13.704C813.744 15.6299 809.562 17.6395 805.435 19.7328C801.281 21.8541 797.294 24.3103 793.447 26.9339C786.254 31.8463 779.367 37.2052 773.038 43.2061C768.522 47.4765 764.507 52.1935 760.687 57.1338C758.122 60.4273 755.084 63.3859 752.797 66.8468C751.069 69.4426 748.95 71.3684 746.441 73.0431H743.179C742.259 72.122 741.339 71.1451 740.363 70.1683C740.363 69.6938 740.586 68.9681 740.335 68.6331C738.634 66.3723 738.746 63.7766 738.746 61.1809C738.746 49.5698 738.801 37.9588 738.718 26.3478C738.718 23.752 738.578 21.0726 737.853 18.6164C737.184 16.3835 736.404 14.0669 734.424 12.3085C732.389 10.4663 730.382 8.68002 727.259 7.42402C716.163 5.80517 704.369 6.72624 692.604 6.69833C622.429 6.58668 552.226 6.6425 482.051 6.69833C478.65 6.69833 475.276 6.41921 471.819 7.34028C469.505 7.95433 467.135 8.4009 465.016 9.57317C461.336 11.6107 457.6 13.2295 453.223 12.141C452.275 11.6944 451.188 11.3037 450.24 10.7175C445.277 7.6473 439.84 6.67041 434.097 6.67041C364.313 6.67041 294.528 6.67041 224.744 6.67041C211.389 6.67041 198.006 6.67041 184.652 6.67041C182.17 6.67041 179.772 7.22864 177.514 8.01015C173.304 9.43362 170.154 12.2526 168.62 16.6068C168.509 16.9696 168.174 17.2487 167.84 17.7232C166.139 30.0879 167.282 42.6758 167.059 55.2637C166.892 64.4465 167.171 73.6292 166.948 82.812C166.892 85.631 167.366 88.3942 168.035 90.9341C168.76 93.6694 170.237 96.3489 172.83 98.3585C176.622 101.261 180.999 101.819 185.404 102.266C188.611 102.601 191.9 102.127 195.107 102.378C198.313 102.629 201.324 101.485 204.502 101.512C209.632 101.54 214.762 101.429 219.892 101.54C225.05 101.652 230.236 100.982 235.366 102.266C237.15 102.713 239.158 102.154 240.998 102.378C242.866 102.601 244.79 102.992 246.49 103.745C248.191 104.499 249.864 105.587 251.202 106.899C253.126 108.714 255.3 114.938 255.3 117.729C255.3 155.269 255.3 192.81 255.272 230.378C255.272 232.304 254.799 234.202 254.464 236.128C254.38 236.602 253.655 237.049 253.739 237.412C254.241 239.533 251.564 239.952 251.843 241.571C248.944 243.134 246.1 242.882 243.451 242.352C240.552 241.766 237.736 240.929 234.753 240.929C200.069 240.929 165.386 240.957 130.675 240.929C128.082 240.929 125.462 240.594 122.924 240.091C121.363 239.784 119.718 239.114 118.519 238.11C114.337 234.649 111.912 230.35 111.912 224.656C111.967 167.662 111.995 110.667 111.912 53.6728C111.912 41.6431 112.804 29.5855 111.159 18.0023C110.49 16.7463 110.044 15.8253 109.514 14.9879C108.622 13.5924 107.925 11.9177 106.698 10.9408C103.436 8.28926 98.2782 6.78206 93.8731 6.78206C68.6414 6.78206 43.3818 6.75415 18.1501 6.80997C14.3305 6.80997 10.6224 7.70313 7.22101 9.76855C5.49242 10.8292 4.07053 11.8898 3.262 13.7878C2.73227 15.0438 1.92374 16.1881 1.28249 17.4162C0.529722 18.9234 1.44977 20.7376 0.250918 22.2727C-0.195167 22.8589 0.167277 24.1149 0.167277 25.0639V283.577C0.167277 290.471 0.0836363 297.365 0.167277 304.231C0.278799 311.125 -0.529731 318.075 1.25461 325.081C1.78434 326.113 2.48135 327.314 3.03895 328.57C3.79172 330.3 5.01846 331.556 6.60764 332.561C10.0369 334.766 13.745 335.799 17.8155 335.799C76.1134 335.799 134.439 335.799 192.737 335.799C206.51 335.799 220.283 335.799 234.028 335.799C235.087 335.799 236.202 335.882 237.178 335.603C239.464 334.961 241.751 334.263 243.925 333.342C246.1 332.421 248.163 331.221 249.892 330.356C253.823 329.574 256.945 330.607 259.845 332.561C260.542 333.035 261.462 333.203 262.27 333.538C265.198 334.794 268.181 335.826 271.443 335.826C297.623 335.826 323.802 335.826 350.01 335.826C353.133 335.826 355.976 334.905 358.736 333.426C361.525 331.947 363.588 329.826 364.814 327.007C365.762 324.774 366.236 322.401 366.236 319.889C366.208 256.559 366.181 193.201 366.236 129.87C366.236 124.986 365.762 120.073 366.961 115.189C367.686 112.286 368.272 109.467 370.586 107.346C371.757 106.257 372.788 105.029 373.234 104.555C375.939 103.634 377.667 102.768 379.507 102.489C381.626 102.182 383.829 102.517 385.976 102.378C388.178 102.238 390.325 101.68 392.527 101.624C397.518 101.512 402.509 101.512 407.499 101.624C412.518 101.736 417.536 101.289 422.583 102.294C425.426 102.88 428.493 102.406 431.476 102.406C433.512 102.406 435.519 102.35 437.554 102.406C439.673 102.489 441.541 101.066 443.688 101.568C445.221 100.033 447.34 100.954 449.208 100.201C451.299 99.3354 454.059 99.475 455.649 101.596C457.126 103.578 458.214 106.034 458.465 108.49C458.994 113.207 459.273 117.98 459.301 122.725C459.412 135.424 459.329 148.124 459.329 160.824V236.993C459.329 249.693 459.496 262.392 459.273 275.092C459.078 287.68 460.165 300.296 458.52 312.856C458.158 315.619 459.106 318.326 459.217 321.034C459.301 322.764 459.663 324.383 460.165 325.946C460.89 328.123 461.977 330.412 463.818 331.64C467.888 334.347 471.178 335.799 476.67 335.799C557.384 335.743 638.098 335.799 718.811 335.771C721.293 335.771 723.69 335.631 726.199 335.073C731.357 333.929 735.121 331.082 736.933 326.393C737.993 323.629 738.718 320.531 738.718 317.405C738.69 306.073 738.718 294.713 738.718 283.381C738.718 280.507 738.467 277.604 739.498 274.813C739.889 273.752 740.14 272.636 740.641 270.961C741.506 270.347 742.844 269.37 744.071 268.505C745.214 268.923 746.162 269.258 747.89 269.9C750.316 272.636 753.717 275.734 756.255 279.418C759.712 284.442 763.643 289.103 767.602 293.681C770.613 297.17 774.07 300.324 777.667 303.338C781.681 306.687 785.836 309.785 789.906 312.995C795.12 317.126 800.919 320.28 806.606 323.601C812.099 326.839 818.121 329.016 823.976 331.528C826.485 332.617 829.162 333.314 831.782 334.18C835.964 335.575 840.314 336.441 844.524 337.697C848.789 338.98 853.194 339.371 857.488 340.543C859.272 341.046 861.28 341.018 863.203 341.381C865.211 341.772 867.274 341.52 869.365 342.162C871.233 342.721 873.38 342.162 875.415 342.302C877.478 342.441 879.514 343 881.549 343.055C886.149 343.167 890.721 343.195 895.322 343.055C899.81 342.916 904.271 342.581 908.76 342.246C909.875 342.162 910.963 341.604 912.078 341.492C913.416 341.353 914.782 341.465 916.12 341.465C916.26 341.465 916.455 341.52 916.511 341.465C917.988 339.567 920.247 341.325 922.087 340.153C923.592 339.204 925.795 339.427 927.663 339.036C930.507 338.45 933.49 338.143 936.166 337.082C940.488 335.38 945.032 334.543 949.326 332.7C953.536 330.858 957.997 329.435 962.067 327.314C969.595 323.434 976.927 319.219 983.758 314.084C989.836 309.534 995.468 304.51 1001.18 299.598C1002.24 298.705 1002.8 297.253 1003.8 296.248C1007.79 292.257 1011.14 287.791 1014.48 283.27C1019.05 277.129 1022.65 270.459 1026.42 263.872C1029.15 259.071 1030.88 253.796 1033.52 248.995C1035.28 245.813 1036.65 242.24 1039.66 240.175C1042.59 240.008 1042.56 242.296 1043.14 243.803C1044.98 248.548 1045.49 253.6 1045.54 258.596C1045.74 277.632 1045.62 296.695 1045.62 315.73C1045.62 318.466 1045.35 321.257 1046.43 323.908C1047.77 327.174 1048.75 330.635 1052.2 332.589C1055.33 334.375 1059.37 335.799 1062.63 335.799C1086 335.799 1109.33 335.799 1132.7 335.799C1135.18 335.799 1137.6 335.687 1140.08 335.129C1142.7 334.515 1144.91 333.314 1146.75 331.696C1148.64 329.993 1150.29 328.039 1151.04 325.276C1151.88 322.122 1151.9 318.912 1152.52 315.786C1153.19 312.353 1151.65 309.032 1151.71 305.599C1151.82 295.886 1151.74 286.145 1151.74 276.432C1151.74 266.719 1151.6 257.257 1151.77 247.655C1151.93 238.054 1150.98 228.397 1152.49 218.823C1152.99 215.585 1152.49 212.32 1153.16 208.998C1153.77 205.9 1154.66 203.639 1157.93 202.272C1158.93 202.774 1160.13 203.249 1161.16 203.918C1163.31 205.314 1164.84 207.352 1166.26 209.445C1168.16 212.264 1169.72 215.306 1171.5 218.181C1174.85 223.512 1177.67 229.15 1180.84 234.593C1182.6 237.635 1184.08 240.901 1185.89 243.803C1189.52 249.581 1192.5 255.694 1196.04 261.527C1197.66 264.206 1198.72 267.221 1200.42 269.817C1204.1 275.399 1207.08 281.372 1210.34 287.205C1211.93 290.052 1213.46 292.983 1215.11 295.718C1218.57 301.44 1221.47 307.441 1224.98 313.135C1227.15 316.652 1228.94 320.447 1231.14 323.936C1233.04 326.923 1235.21 329.881 1238.28 331.724C1242.68 334.375 1247.59 335.799 1252.78 335.826C1276.53 335.854 1300.28 335.826 1324.04 335.854C1326.8 335.854 1329.56 335.826 1332.21 334.989C1335.44 333.984 1338.65 332.561 1340.35 329.574C1342.36 326.058 1343.72 322.262 1343.72 317.991C1343.67 264.206 1343.67 210.422 1343.67 156.609C1343.67 154.46 1343.55 152.283 1343.69 150.134C1343.83 147.929 1344 145.724 1344.53 143.602C1345.31 140.476 1345.76 136.932 1349.97 136.429C1352.42 137.685 1355.57 140.225 1356.63 141.872C1361.04 148.794 1364.99 155.939 1369.04 163.057C1371.18 166.88 1372.97 170.927 1375.34 174.612C1378.82 180.026 1381.47 185.888 1384.93 191.331C1387.86 195.964 1390 201.099 1392.57 205.984C1394.94 210.478 1396.55 215.39 1396.94 220.302C1397.31 224.88 1398 229.485 1397.98 234.118C1397.92 242.771 1397.98 251.395 1397.98 260.048C1397.98 268.7 1398.12 277.325 1397.95 285.977C1397.78 294.518 1398.73 303.087 1397.2 311.572C1396.47 315.535 1397.84 319.443 1398.09 323.378C1398.28 326.448 1399.93 329.407 1402.21 331.305C1405.64 334.152 1409.8 335.826 1414.48 335.799C1437.29 335.743 1460.09 335.799 1482.9 335.743C1487.53 335.743 1492.13 336.161 1496.76 335.073C1499.21 334.487 1501.36 333.705 1503.25 332.114C1507.32 328.709 1508.91 324.215 1508.91 319.08C1508.91 289.634 1508.91 260.187 1508.94 230.741C1508.94 227.196 1508.83 223.68 1509.58 220.107C1510.33 216.506 1511.06 212.822 1512.51 209.556C1515.38 203.165 1518.81 197.024 1522.16 190.856C1523.77 187.87 1525.84 185.106 1527.51 182.12C1529.27 178.966 1530.46 175.421 1532.53 172.463C1535.48 168.192 1537.8 163.531 1540.42 159.093C1543.93 153.12 1547.22 147.036 1551.04 141.23C1552.88 138.411 1554.64 135.508 1558.29 134.001H1561.16C1562.58 135.313 1563.56 136.792 1564.09 138.83C1564.95 142.095 1565.51 145.417 1565.54 148.71C1565.73 160.321 1565.62 171.932 1565.62 183.543C1565.62 228.927 1565.62 274.31 1565.62 319.694C1565.62 320.894 1565.4 322.206 1565.76 323.294C1568.6 331.807 1573.46 335.492 1581.74 335.715C1591.3 335.994 1600.89 335.771 1610.48 335.771H1667.97C1677.56 335.771 1687.15 335.91 1696.71 335.743C1706.19 335.547 1715.67 336.524 1725.12 335.017C1729 334.403 1733.01 335.464 1736.95 334.236C1739.12 333.566 1741.55 334.236 1743.92 333.482C1746.03 332.784 1748.52 333.398 1750.86 332.617C1752.25 332.142 1753.84 332.449 1755.4 331.835C1756.74 331.277 1758.41 331.305 1759.92 331.054C1764.58 330.272 1769.04 328.932 1773.58 327.844C1777.54 326.895 1781.22 325.332 1785.12 324.299C1789.08 323.266 1792.82 321.424 1796.58 319.75C1802.99 316.875 1809.24 313.665 1815.15 309.841C1822.12 305.32 1828.67 300.268 1834.72 294.546C1840.58 289.02 1845.76 282.935 1850.56 276.432C1853.51 272.412 1856.36 268.254 1858.62 263.927C1862.07 257.312 1865.5 250.642 1868.07 243.552C1870.07 237.998 1871.91 232.416 1873.36 226.722C1874.06 224.014 1874.54 221.251 1875.23 218.572C1876.04 215.39 1876.4 212.096 1877.3 208.915C1877.8 207.1 1877.63 205.119 1878.13 203.165C1878.63 201.183 1878.47 199.09 1878.88 196.996C1879.53 193.843 1879.41 190.493 1879.69 187.228C1880.22 181.199 1880 175.086 1879.8 169.002L1879.78 168.862ZM572.021 112.007C572.83 107.513 576.231 104.359 580.692 103.02C583.675 102.127 586.714 102.657 589.669 102.182C598.842 100.731 608.07 101.652 617.271 101.485C626.583 101.289 635.895 101.457 645.207 101.457H672.725C682.037 101.457 691.349 101.457 700.661 101.457C703.812 101.457 706.823 102.629 710.057 102.35C713.263 102.071 716.553 101.987 719.759 102.406C721.376 102.629 722.993 103.159 724.387 103.103C726.869 104.583 729.74 105.253 730.521 108.351C731.106 109.579 730.019 111.226 731.441 112.37C730.27 113.57 730.911 115.077 730.688 116.445C730.158 119.934 729.071 123.311 727.844 126.605C727.231 128.251 726.646 129.898 725.809 131.433C723.774 135.201 720.4 135.843 717.25 132.968C714.769 130.68 711.841 129.089 708.802 127.944C706.6 127.107 704.146 126.605 701.665 126.605C690.596 126.605 679.556 126.605 668.487 126.605C641.248 126.605 613.981 126.605 586.742 126.605C583.982 126.605 581.361 125.991 578.935 124.902C575.952 123.534 573.638 121.162 572.049 118.036C571.965 117.031 572.272 115.552 571.687 114.742C570.794 113.514 571.91 112.844 572.077 112.063L572.021 112.007ZM726.562 238.417C724.666 239.142 722.854 239.924 720.735 240.035C714.518 240.342 708.3 241.04 702.055 240.845C695.866 240.677 689.648 240.817 683.431 240.817H608.154C601.825 240.817 595.469 240.901 589.14 240.789C586.686 240.733 584.093 240.677 581.807 239.924C579.103 239.003 576.343 237.858 574.307 235.57C572.411 233.476 572.439 230.657 571.185 228.341C572.635 224.796 572.913 220.526 577.291 218.823C578.685 218.265 579.939 217.372 581.361 216.59C594.437 214.888 607.708 215.948 620.951 215.781C634.306 215.613 647.661 215.753 661.015 215.753C674.37 215.753 687.725 215.641 701.079 215.809C706.628 215.892 711.339 214.19 715.689 210.924C717.389 209.64 719.285 208.58 720.986 207.491C724.499 208.384 725.809 210.561 726.896 213.157C729.35 218.907 731.19 224.824 731.413 231.104C731.525 234.481 730.019 237.161 726.562 238.472V238.417ZM1044.73 194.54C1044.34 196.662 1043.28 198.95 1041.16 200.29C1037.79 200.485 1034.61 199.676 1031.29 198.867C1028.62 198.197 1025.72 197.778 1022.76 197.806C998.061 197.945 973.359 197.89 948.685 197.89C947.625 197.89 946.398 197.666 945.562 198.113C943.638 199.174 941.436 198.867 939.401 199.899C935.72 201.769 933.351 204.421 931.483 207.938C929.419 211.845 928.276 216.06 926.659 220.135C924.708 225.047 922.756 229.904 919.327 234.146C917.403 236.519 915.451 238.863 913.193 240.845C909.039 244.445 904.216 246.818 898.835 248.186C894.625 249.246 890.47 249.832 886.121 249.776C881.186 249.721 876.419 248.716 871.846 247.069C865.908 244.948 860.694 241.682 856.038 237.216C850.044 231.439 845.918 224.545 842.823 217.12C840.788 212.18 839.254 206.961 838.223 201.574C837.47 197.722 837.498 193.703 835.964 189.991C835.881 189.767 835.964 189.46 835.964 189.181C836.299 183.46 834.57 177.822 835.128 172.1C835.212 171.151 835.212 170.202 835.128 169.253C834.57 163.782 836.243 158.423 835.937 152.981C836.996 151.027 836.16 148.654 836.912 146.896C837.749 144.942 837.303 142.905 838.251 140.951C839.087 139.22 839.394 137.071 839.784 135.145C840.146 133.387 840.425 131.545 841.15 130.01C843.018 126.046 844.273 121.888 846.364 117.98C849.709 111.728 854.198 106.509 859.44 102.015C863.454 98.5818 868.25 96.2652 873.491 94.9533C876.753 94.116 879.932 93.0833 883.361 93.3345C884.365 93.3903 885.452 93.7532 886.4 92.8042C886.679 92.5251 887.543 92.3855 887.878 92.5809C889.829 93.9206 892.004 93.2787 894.039 93.3066C896.911 93.3624 899.532 94.3672 902.18 95.2325C908.899 97.4374 914.81 101.178 919.243 106.704C921.975 110.109 925.042 113.514 925.906 118.092C928.695 121.72 929.336 126.381 932.068 130.177C934.549 133.638 937.56 135.787 941.38 137.099C943.081 137.685 944.837 137.992 946.705 137.992C972.606 137.936 998.535 137.936 1024.44 137.964C1027.31 137.964 1029.93 137.071 1032.6 136.15C1035.34 135.201 1037.79 133.108 1041.78 134.308C1043.7 135.871 1044.29 138.606 1044.96 141.37C1046.21 146.505 1045.68 151.669 1045.71 156.832C1045.79 166.406 1045.6 176.007 1045.82 185.581C1045.88 188.651 1045.32 191.61 1044.79 194.54H1044.73ZM1767.28 187.172C1767.59 191.638 1765.58 195.657 1764.77 199.899C1764.27 202.551 1763.04 205.091 1761.95 207.631C1759.97 212.18 1757.24 216.255 1754.34 220.274C1751.14 224.712 1747.15 228.173 1742.61 231.02C1737.81 234.035 1732.71 236.267 1727.16 237.691C1723.84 238.528 1720.38 238.668 1717.21 239.98C1716.98 240.063 1716.68 239.98 1716.4 239.98C1709.07 239.728 1701.82 241.515 1694.48 240.733C1690.75 240.342 1686.93 240.035 1683.58 237.775C1681.94 236.658 1680.66 235.514 1679.62 233.783C1677.53 230.239 1676.56 226.554 1676.58 222.479C1676.64 205.481 1676.58 188.484 1676.58 171.458C1676.58 154.432 1676.67 137.713 1676.5 120.855C1676.5 118.287 1677 115.887 1677.48 113.514C1678.34 109.272 1681.16 106.202 1684.73 103.829C1685.14 103.55 1690.41 102.21 1690.94 102.21C1696.74 102.21 1702.57 101.819 1708.34 102.322C1713.5 102.768 1718.63 103.829 1723.73 105.057C1729.17 106.397 1734.16 108.574 1739.04 111.142C1742.44 112.928 1745.73 114.938 1748.46 117.729C1751.42 120.771 1754.71 123.534 1757.02 127.163C1758.97 130.233 1761.17 133.303 1762.32 136.68C1763.18 139.276 1764.52 141.704 1765.05 144.496C1765.69 147.817 1766.78 151.055 1767.45 154.432C1767.75 156.079 1768.34 157.698 1768.12 159.372C1767.87 161.27 1768.76 162.917 1768.92 164.703C1769.09 166.434 1768.95 168.22 1768.95 169.951C1768.95 171.681 1768.73 173.495 1769.01 175.198C1769.37 177.403 1768.17 179.273 1768.12 181.338C1768.06 183.264 1768.76 185.33 1767.34 187.088L1767.28 187.172Z" fill="#EEEBE3"></path></svg>