<?xml version="1.0"?>
<svg id="Layer_2" data-name="Layer 2" xmlns="http://www.w3.org/2000/svg" viewBox="0 0 788.58 259.59" fill="#EEEBE3">
  <defs>
    
  </defs>
  <g id="Layer_1-2" data-name="Layer 1">
    <g>
      <g>
        <g>
          <path fill="#EEEBE3" class="cls-1" d="M426.29,243.37c-.05-.36.01-.74.18-1.06.27-.54.56-.87.07-1.38-.37-.38-.65-.84-.96-1.27-.85-1.18-1.69-2.37-3.37-2.4-.24,0-.6-.18-.71-.39-.28-.54-.71-.55-1.2-.51-1.49.09-2.95.04-4.28-.76-.16-.1-.42-.09-.62-.07-.87.08-1.74.16-2.6.3-.42.07-.9.17-1.19.44-.56.5-1.04.54-1.7.21-1.53-.76-3.1-1.31-4.89-.88-.48.12-1.23-.14-1.6-.49-1.1-1.08-1.05-1.13-2.37-.21-.6.42-1.13.56-1.76-.03-.26-.24-.81-.33-1.16-.24-.58.15-1.11.5-1.66.76-.19.09-.61.39-1.85-.1-1.66-.41-2.06-.54-3.71-.99-.06-.01-.11-.07-.16-.1-.81-.66-1.69-.6-2.68-.44-.83.13-1.77.12-2.55-.14-.93-.31-1.77-.91-2.61-1.46-.89-.59-1.28-.54-1.83.4-.3.53-.73.68-1.27.4-.3-.16-.57-.39-.83-.61-1.11-.91-2.33-1.31-3.77-.84-.66.21-1.44.28-1.78-.39-.23-.44-.15-1.15.04-1.65.23-.61.15-1.07-.02-1.67-.31-1.06-.43-2.18-.58-3.28-.08-.57.07-1.18-.08-1.73-.61-2.29-.36-4.6-.2-6.9.1-1.51.65-2.97.27-4.54-.24-.98-.31-2.07-.17-3.07.42-3.17.45-6.33.27-9.51-.02-.33.15-.66.17-.99.05-.85.18-1.72.08-2.57-.2-1.69-.5-3.35.59-4.88.14-.19.1-.63-.02-.85-.54-.97-.37-1.87-.05-2.88.21-.67.07-1.45.04-2.18-.03-.64-.17-1.27-.17-1.91,0-.9.15-1.81.12-2.71-.03-.93-.26-1.86-.3-2.79-.15-3.39-.36-6.77-.36-10.16,0-3.35.23-6.71.32-10.06.03-1.06-.11-2.12-.13-3.18-.01-.78-.18-1.68.13-2.33.45-.95.4-1.67-.09-2.54-.27-.49-.43-1.12-.41-1.67.03-.74.29-1.46.43-2.19.09-.48.24-.98.21-1.46-.05-1.02-.22-2.04-.31-3.07-.06-.65-.08-1.32-.07-1.97.02-.7.1-1.4.15-2.1.02-.24.1-.51.02-.72-.58-1.62-2.55-2.78-4.22-2.38-.7.16-1.22.05-1.75-.35-.47-.36-.97-.56-1.55-.26-.96.5-1.93.28-2.91.09-1.93-.37-5.83-.62-7.85-.19-1.98.43-4.1.8-6.05-.35-.15-.09-.36-.11-.54-.12-3.55-.24-2.25,6.03-2.18,7.97.03.83.06,1.68-.17,2.48-.34,1.2-1.27,2.36-.92,3.56.2.68.79,1.28.69,1.98-.07.51-.51.91-.6,1.42-.16.86.67,1.88.08,2.52-.17.2-.44.29-.62.47-.52.52-.16,1.39.16,2.05,2.81,5.69-.36,12.01.49,18.07.13.92.34,1.85.27,2.77-.07.88-.4,1.74-.46,2.62-.11,1.87,1.02,3.63.79,5.49-.27,2.25-.5,4.42-.54,6.75-.09,5.1-.17,10.2-.24,15.29-.07,5.03-.14,10.06-.16,15.09,0,2-.18,3.93-1.04,5.78-.51,1.1-.52,2.3-.26,3.51.13.57.14,1.18.11,1.77-.14,2.69-.31,5.38-.47,8.07-.05.94-.02,1.89-.15,2.81-.4,2.74-.73,5.46-.49,8.25.15,1.76-.19,3.56-.21,5.34,0,.61.17,1.3.5,1.81,1.08,1.67,2.76,1.83,4.57,1.66,2.28-.21,4.56-.41,6.84-.48,2.04-.06,6.1.11,8.14.1,2.67-.02,5.34-.14,8.02-.16,3.37-.03,6.74,0,10.1-.02,1.35,0,2.7-.16,4.05-.1,2.82.13,5.64.36,8.45.55.95-.08,1.89-.17,2.82-.23,1.38-.08,2.75-.18,4.13-.18,1.32,0,2.63.12,3.95.15,6.07.13,12.13.28,18.2.35.84.01,1.82-.18,2.48-.64.79-.54,1.49-1.06,2.47-1.27,1.91-.42-.07-2.04-.5-2.64-.27-.38-.42-.88-.27-1.32.09-.26.28-.48.33-.75.06-.27-.03-.55-.07-.82-.08-.55.03-1.1.13-1.64.09-.51.26-1.14.1-1.65-.36-1.16-.48-2.37-.44-3.59,0-.25.02-.5-.01-.74-.05-.36-.21-.69-.26-1.04,0,0,0-.02,0-.03Z"></path>
          <path fill="#EEEBE3" class="cls-1" d="M427.62,139.87c.13-.41.24-.83.27-1.26.08-.88-.14-1.74-.33-2.59-.14-.6-.11-1.57-.45-2.06-.81-1.17-2.63-.98-3.71-.44-.94.47-2.36-.15-2.64-1.15-.25-.9-.46-.92-1.31-.41-.4.24-1.08.49-1.42.34-.66-.3-1.15-.4-1.77.03-.17.12-.51.03-.78.06-.4.04-.86-.02-1.17.15-1.76.95-3.45,1.16-5.34.17-1.14-.6-2.07-.09-2.64,1.02-.12.23-.46.44-.74.51-.52.13-1.14.04-1.59.26-1.4.69-2.64.47-3.91-.26-.62-.36-1.02-.06-1.44.42-.35.4-.86.77-1.38.96-1.54.54-1.6.7-.91,2.11.4.81.96,1.73.86,2.54-.17,1.38.08,2.6.58,3.84.35.87.38,1.74-.24,2.51-.8.99-.95,2.11-.97,3.3-.02,1.38-.1,2.76-.24,4.13-.25,2.53-.39,5.05-.21,7.6.33,4.79.46,9.6-.09,14.4-.44,3.81-.95,7.62-1.09,11.45-.25,6.76-.64,13.5-1.45,20.22-.05.38-.33.73-.45,1.1-.13.39-.3.79-.28,1.18.02.43.28.84.35,1.27.69,4.91.66,9.83-.05,14.74-.14.94.11,1.36.99,1.51,1.76.31,3.52.57,5.26.98,1.92.45,3.47-.31,5.36.44.4.15.47-.04.85-.06.93-.03,1.87-.08,2.8-.06,1.15.02,2.3.12,3.44.17.64.02,1.29-.04,1.93.02,1.99.16,3.98.35,6.15.55,1.36-.16,2.89-.26,4.38-.52,1.3-.23,1.62-.71,1.62-1.9,0-1.7.05-3.4-.02-5.09-.06-1.49-.21-2.99-.41-4.47-.2-1.45-.7-2.88-.76-4.32-.17-4.08-.21-8.16-.24-12.24-.04-4.81.02-9.62,0-14.44-.01-2.76-.11-5.53-.16-8.29-.02-1.26-.06-2.52.02-3.77.14-2.12.42-4.24.52-6.36.09-1.73.01-3.46.02-5.18,0-.31,0-.64.12-.92.59-1.33.71-2.71.72-4.14,0-.48.23-1.06.56-1.42.46-.51.58-.98.3-1.54-.42-.86-.27-1.7.06-2.55.27-.7.58-1.39.8-2.11.22-.72.03-.85-.21-1.45-.25-.62-.17-1.44-.23-2.11-.15-1.63-.39-3.29.01-4.9.17-.65.43-1.28.63-1.93Z"></path>
          <path fill="#EEEBE3" class="cls-1" d="M654.5,157.92c-.15-.12-.29-.26-.43-.39-.18-.17-.38-.37-.45-.61-.16-.55.38-1.21.65-1.63.46-.74.49-1.4.04-2.18-.29-.49-.45-1.09-.54-1.66-.09-.57-.06-1.16-.01-1.74.08-1.1-2.41-3.48-3.51-3.34-1.04.13-2.09.23-3.13.38-.61.09-.88-.23-1.3-.62-.73-.7-3.22-2.84-3.75-1.05-.14.47-.1.99-.28,1.45-.72,1.87-1.4-.32-1.78-.71-.77-.79-1.08-.46-2.13-.32-2.7.36-5.75.15-8.4-.43-.39-.09-.85.16-1.28.2-.52.05-1.1.21-1.55.03-1.24-.5-2.4-.51-3.65-.03-1.03.4-2.45.39-3.52.17-1.35-.28-2.27.53-3.39.29-.71-.15-1.46-.14-2.2-.18-.59-.03-1.19,0-1.78-.06-1.52-.19-3.03-.53-4.53.2-.28.13-.7.12-1.01.02-1.57-.47-3.09-.35-4.59.29-1.14.49-2.31.54-3.46.01-.73-.34-1.4-.2-2.05.19-1.12.67-2.23,1.38-3.39,2-.34.18-.86.26-1.2.14-.47-.17-.84-.24-1.32,0-.25.12-.62.07-.91,0-1.9-.49-3.95-.11-5.77-1.04-.08-.04-.19-.02-.28,0-1.43.11-2.32-.84-3.88-.48-.85.2-1.64.61-2.49.81-1.36.32-2.98-.48-4.36-.7-.17-.03-.41.13-.55.28-.59.6-1.25.69-2.06.5-.61-.14-1.31-.17-1.91-.02-1.27.31-2.48.51-3.73-.09-.67-.32-1.32-.16-1.69.54-.36.68-.87.62-1.43.4-.58-.23-1.13-.62-1.72-.73-.56-.1-1.22-.01-1.76.19-.71.28-1.31.83-2.01,1.12-.56.23-1,.41-1.14,1.08-.05.25-.35.52-.61.63-1.68.7-2.24,2.32-1.27,3.85.25.39.64.7.89,1.09.18.29.41.69.34.97-.14.57.11.81.54,1.03.74.37.83,1.05.79,1.77-.03.74-.27,1.4-1.05,1.62-.83.23-.72.65-.56,1.34.23.99.37,2.07.23,3.06-.11.78-.05,1.33.36,1.99,1.23,1.97,1.06,2.67-.87,4.04-.36.26.32,3.43.17,4.29-.28,1.59.2,3.1.04,4.64-.12,1.22-1.03,2.41-.77,3.68.14.67.37,1.34.33,2.03-.09,1.81-1.97,3.26-1.73,5.06.16,1.2.59,1.87.25,3.05-.03.11,0,.2,0,.31-.01.15,0,.14-.13.29-.15.17-.3.37-.37.59-.15.48.15.89.48,1.2.2.15.43.26.65.37.51.25.1,1.08.07,1.65-.07,1.18.03.71-.55,1.43-.2.25-.07.91-.07,1.2,0,.71-.02.88.68,1.17.37.15-.38,1.13-.31,1.45.18.89.18,1.81.23,2.72,0,.18-.06.38-.16.53-.42.64-.46,1.1.32,1.59.84.53.78,1.45.02,1.91-.98.6-.98.62-.06,1.41.77.66.73.95.07,1.68-.29.32-.52.87-.47,1.28.09.73.45,1.42.6,2.15.06.29-.1.63-.19.94-.15.52-.49,1.03-.47,1.54.04.93.25,1.85.44,2.77.13.66.3,1.31-.26,1.85-.6.58-.56,1.12,0,1.71.47.5.56,1.07.03,1.59-.73.72-.72,1.51-.45,2.42.38,1.24.57,2.49.1,3.78-.2.54-.19,1.18-.16,1.76.06,1.4.9,2.77.11,4.2-.05.1-.03.25,0,.37.25,1.28.51,2.56.77,3.84.04.21.13.42.15.63.14,1.46,1.07,2.44,2.48,2.4,1.68-.05,3.36-.55,5,.21.05.02.12,0,.19,0,1.38-.01,2.77-.15,4.13,0,1.08.12,2.04-.04,3.04-.32,1.64-.45,3.29-.78,5.02-.65,1.17.09,2.37.07,3.54-.06,1.24-.13,2.46-.46,3.69-.67.6-.1,1.04-.42,1.06-1.01.03-1.02.09-2.08-.12-3.07-.66-3.1-.7-6.21-.4-9.34.34-3.52.62-7.04.93-10.56.09-1,.13-2,.3-2.99.51-2.92,1.03-5.84,1.03-8.82,0-1.31.12-2.63.24-3.94.14-1.55.46-3.1.47-4.65.02-4.11-.1-8.23-.11-12.34,0-1.02.16-2.05.31-3.07.37-2.65.94-5.29,1.11-7.95.23-3.54.14-7.1.25-10.65.05-1.55.31-3.06,1.59-4.16.13-.11.3-.36.25-.47-.14-.36-.22-.75-.16-1.13.06-.39.27-.71.46-1.05.08-.15.16-.3.28-.42.06-.06.13-.12.17-.19.17-.29-.11-.67,0-1,.05-.14.17-.25.3-.32.18-.1.4-.13.6-.08.28.07.45.31.63.53.05.06.1.12.14.19.07.13.08.28.08.42,0,.12-.01.24-.06.34-.07.14-.21.22-.26.35-.05.13-.09.39-.06.53.06.3.42.34.68.35.44.02.91-.09,1.32.03.67.2,1.44.38,1.92.83.86.8,1.63,1.74,2.26,2.74.48.76,1.03.94,1.86.94,1.85,0,3.7.1,5.56.16,1.76.06,3.52.14,5.28.17,2.23.04,4.46-.02,6.69.07,2.82.12,5.64.34,8.46.51,1.19.07,2.38.1,3.57.19,1.09.09,2.17.36,3.25.36,5.82,0,11.64-.07,17.46-.1,1.13,0,2.26.12,3.39.11,1.5-.02,2.38-.89,2.5-2.32.03-.3.2-.59.26-.89.06-.29.1-.6.12-.9.03-.63-.04-1.25-.04-1.88,0-.25-.04-.49.05-.72.1-.23.28-.43.45-.61.16-.16.31-.33.47-.49.13-.14.28-.3.28-.49,0-.09-.03-.18-.07-.27-.09-.25-.14-.41-.34-.58Z"></path>
          <path fill="#EEEBE3" class="cls-1" d="M649.33,231.33c-.19-1.72-.34-3.4-.35-5.13-.01-2.29-2.7-4.33-4.47-3.61-.51.21-1.12.17-1.67.12-1.23-.12-2.45-.45-3.67-.46-6.35-.05-12.7-.02-19.05-.03-.51,0-1.03-.1-1.54-.21-1.32-.28-2.62-.51-3.86.43-.3.23-.75.26-1.13.23-1.46-.1-2.92-.37-4.38-.37-2.04,0-4.09.11-6.13.31-.73.07-1.34.07-1.86-.62-.47-.64-.99-.63-1.56-.15-1.25,1.05-2.63,1.42-4.15,1.19-.32-.05-.74.25-.99.55-.12.14-.08.73.07.95,1.29,2.02.78,4.32.65,6.52-.09,1.44-.52,2.85-.6,4.29-.05.84-.08,1.51-.64,2.1-.2.21-.37.94-.25,1.08.96,1.18.77,2.55.64,3.99-.15,1.69.61,2.49,2.03,2.58,1.39.08,2.78.22,4.16.46,1.77.31,3.5.84,5.26-.14,1.19-.64,1.83-.14,2.28-.11,1.13.09,1.32.39,2.45.44,2.46.09,4.93.14,7.39.18,2.56.04,5.12.06,7.68.09.86.01,1.72.02,2.58.07,1.48.09,2.96.25,4.45.33.76.04,1.52-.07,2.28-.07.71,0,1.43.14,2.13.09,3.46-.24,6.92-.53,10.38-.8,1.34.21,1.84-.11,1.94-1.19.05-.58-.03-1.18-.05-1.77-.05-1.64-.16-3.27-.15-4.91.02-2.15.38-4.34.14-6.44Z"></path>
          <path fill="#EEEBE3" class="cls-1" d="M632.53,184.84c-.57-1.18-1.35-2.05-2.66-2.21-.46-.05-.97-.12-1.35-.36-1.1-.72-2.09-.44-3.11.18-1.12.69-2.29.83-3.57.51-1.69-.42-3.4-.75-5.11-1.01-.78-.12-1.59.03-2.38.08-3.15.2-6.29.4-9.44.59-.13,0-.27-.02-.39-.07-2.51-.88-4.95-.12-7.4.43-1.21.27-1.4.82-1.12,2.13.25,1.19.46,2.41.51,3.63.08,2,.02,4,.02,6.01h-.01c0,2.04,0,4.08,0,6.12,0,2.38,1.03,3.74,3.17,4.05.66.1,1.33.1,1.99.05,1.73-.13,3.45-.32,5.17-.46,3.98-.32,7.96-.73,11.95-.91,3.78-.18,7.45-1.69,11.28-1.03.61.1,1.21-.24,1.19-.86-.05-1.46,1.18-2.62.76-4.15-.05-.18.18-.55.37-.71.53-.44.4-.82.16-1.4-.25-.61-.31-1.34-.37-2.02-.08-.91.05-1.88-.16-2.75-.3-1.24-.32-2.32.41-3.38.54-.78.5-1.62.09-2.45Z"></path>
          <path fill="#EEEBE3" class="cls-1" d="M734.1,202.07c.67-1.65.12-2.89-1.22-3.91-.57-.44-.7-.98-.39-1.67.16-.37.32-.86.2-1.2-.29-.8-.61-1.66-1.16-2.29-1.1-1.25-1.43-2.73-1.59-4.28-.07-.66-.39-1.03-.95-1.07-.93-.07-1.46-.64-2.03-1.27-.82-.91-1.58-2-2.62-2.55-1.34-.71-2.89-1.17-4.4-1.36-2.67-.33-4.91-1.42-6.94-3.1-.47-.39-1.03-.71-1.61-.93-1.1-.41-2.31-.57-3.33-1.1-.85-.45-1.64-.77-2.6-.71-.35.02-.72-.06-1.06-.17-2.47-.76-4.92-1.59-7.41-2.27-1.82-.5-3.6-1.02-5.16-2.14-.29-.21-.75-.16-1.11-.3-.42-.17-.84-.38-1.2-.64-.73-.54-1.4-1.14-2.13-1.67-.11-.08-.4-.02-.54.07-.77.5-1.24.08-1.65-.51-1.66-2.38-1.64-7.17.05-9.54.2-.28.54-.46.84-.66.98-.65,1.98-1.29,2.97-1.94.3-.2.6-.42.93-.56,1.09-.47,2.19-.89,3.29-1.35,1.26-.52,1.81-1.81,1.46-3.11-.66-2.44-1.21-4.91-1.28-7.46-.01-.37-.17-.77-.39-1.07-.46-.64-.53-1.27-.18-1.95.77-1.5.12-2.87-.62-4.07-.45-.72-1.36-1.23-2.16-1.63-.92-.47-1.97-.68-2.94-1.08-.52-.21-.83-.26-1.29.21-.4.41-1.04.65-1.62.81-.66.19-1.37.2-2.06.31-1.78.29-3.57.56-5.33.92-.43.09-.91.43-1.17.79-.74,1.06-2.08,1.66-2.38,3.05,0,.03-.04.05-.07.07-1.19,1-2.28,2.16-3.6,2.95-1.27.75-2.58,1.31-3.13,2.82-.09.25-.41.42-.64.61-1.96,1.61-2.43,3.92-2.91,6.22-.02.11.02.29.1.37.66.64.44,1.28.11,1.99-.23.5-.29,1.08-.45,1.61-.16.33-.22.74-.34,1.09-.12.37-.26.73-.42,1.08-.33.69-.76,1.28-1.4,1.69-.08.05-.17.11-.23.18-.11.13-.16.3-.16.47,0,.25.08.49.2.71.16.29.38.52.51.83.14.33.24.67.33,1.01.17.68.28,1.37.52,2.03.06.17-.03.51-.17.62-.55.46-.43.94-.24,1.52.39,1.17.92,2.17.79,3.43-.08.78.27,1.32.67,1.95.4.62.8,1.24,1.09,1.93.29.7.43,1.58.28,2.3-.27,1.29-.47,2.45.62,3.47.2.18.26.53.36.81.21.57.42,1.08,1.15,1.21.24.04.54.48.58.77.11.87.56,1.34,1.35,1.66.49.2.94.59,1.33.97.38.37.6.92,1.01,1.26,1.26,1.06,2.61,2.02,3.84,3.11.55.49,1.07.7,1.78.58.45-.08.82-.01.96.58.06.25.55.6.79.56,1.12-.16,1.97.29,2.82.92,1.43,1.07,2.78,2.34,4.76,2.31.27,0,.53.23.8.35,1.75.81,3.51,1.63,5.26,2.43,1.37.63,3.13.29,4.21,1.68.06.08.24.08.37.1.78.12,1.56.33,2.35.34.85,0,1.41.37,1.96.96.25.27.86.56,1.09.44,1.99-1.12,3.27,1.24,5.06.98.08-.01.22.15.29.26.53.85,1.02,1.75,2.19,1.85.05,0,.1.08.15.13.89.92,1.78,1.84,2.67,2.77.69.72,1.24,2.58.79,3.18-1.18,1.59-1.42,3.64-2.82,5.17-1.06,1.15-2.15,1.88-3.62,2.39-1.24.43-2.29,1.43-3.41,2.2-.13.09-.15.36-.23.53-.35.77-.7,1.55-1.05,2.32-.23.51-.47,1.01-.72,1.5-.3.59-.64,1.15-.94,1.74-.09.18-.18.42-.14.6.29,1.11.64,2.2.93,3.31.1.41.21.88.1,1.26-.18.61-.3,1.4-1,1.36-1.02-.23-1.08.24-.9.73.15.42.5.77.71,1.18.36.69.97,1.4.96,2.09,0,.55.18,1.03.67,1.31.41.23.89.31,1.32.5.16.07.32.17.46.29.17.16.23.45.48.52.1.03.21.02.3,0,.43-.12.82-.35,1.24-.49.45-.14.91-.24,1.37-.3.92-.13,1.86-.13,2.79-.15.21,0,.42-.01.64-.02,2.16-.1,4.28-.2,6.32-.91,1.09-.38,2.37-.42,3.15-1.52.11-.16.56-.2.8-.13.66.18.74-.15.57-.62-.29-.78.17-1.12.76-1.18,1.05-.11,1.55-.71,1.95-1.59.12-.27.66-.58.94-.53,1.09.21,1.47.17,1.84-.98.51-1.63,1.61-2.77,2.72-3.96.33-.35.59-.9.61-1.37.05-1.24-.21-2.51.66-3.62.13-.16.09-.51.02-.75-.36-1.26-.16-2.46.24-3.68.51-1.55,1.18-3.06,1.08-4.79-.1-1.74-.06-3.49,0-5.24.07-2.14.97-3.3,2.93-3.87.85-.25.64-.71.27-1.18-.45-.56-.92-1.11-.61-1.88Z"></path>
          <path fill="#EEEBE3" class="cls-1" d="M695.92,235.87c-.19-.25-.09-.73-.09-1.11,0-1.54.16-3.09,0-4.61-.12-1.12-.88-2.16-.27-3.37-.15-.41-.24-.84-.44-1.21-.44-.84-1.07-1.61-1.38-2.5-.54-1.57-1.86-2-3.16-2.15-1.64-.2-3.03-.74-4.36-1.67-.95-.66-2.54-3.04-3.54-3.63-.51-.3-1.04-.6-1.44-1.01-1.44-1.45-2.07-1.71-3.71-2.79-.64-.43-1.49-.57-2.09-1.03-.89-.69-1.79-.8-2.67-.26-1.18.72-3.18,3.43-4.27,4.27-.72.56-1.37,1.2-2.04,1.82-.19.18-.35.4-.5.61-.49.66-.99,1.32-1.46,2-.87,1.27-1.87,2.49-2.54,3.86-.73,1.48-.32,2.51.97,3.55.39.31.74.66,1.14.96,2.12,1.58,3.73,3.79,6.13,5.04.42.22.72.68,1.08,1.02.58.52,1.12,1.09,1.76,1.52.98.66,1.96,1.37,3.26,1.27.2-.02.42.17.63.27,2.23,1.09,4.47,2.18,6.71,3.25.29.14.62.22.93.31,1.25.36,2.51.7,3.76,1.08.68.2,1.45.32,1.97.74.77.61,1.35.7,2.07.02.65-.61,1.31-.94,2.2-.31.23.16.41-.09,1.12-.22.51-.1.09-.69-.07-.92-.32-.47-.2-.78.05-1.24.61-1.13,1.26-2.28.26-3.57Z"></path>
          <path fill="#EEEBE3" class="cls-1" d="M699.74,149.52c.03.81-.14,1.69.09,2.48.11.38.33.64.58.93.01.02.03.03.04.05.31.36.63.69,1.01.98.27.21.55.41.76.68.07.1.13.2.2.29.21.29.49.53.82.69.05.03.11.05.16.05.07,0,.14-.01.21-.03.23-.04.46.01.69.08.56.16,1.11.37,1.56.74.55.45.9,1.08,1.31,1.65.33.45.93,1.23,1.56,1.2,1.75-.08,3.16.56,4.48,1.69.84.72,1.95,1.11,2.89,1.72,2.38,1.55,5.33.99,7.17-1.21.44-.52.96-.96,1.45-1.42.43-.4.99-.76.9-1.42-.01-.1-.04-.2-.04-.3,0-.09.03-.18.07-.26.12-.26.37-.44.63-.57.26-.13.54-.2.8-.31.61-.25.96-.77,1.3-1.32.34-.56.62-1.16.86-1.78.25-.64.5-1.37.98-1.81.98-.91,1.28-2.14,1.79-3.26.11-.24,0-.76-.21-.92-.97-.76-2.41-1.28-2.97-2.43-.28-.57-.38-1.26-.87-1.67-.34-.28-.79-.37-1.23-.43-.43-.06-.89-.12-1.26-.36-.41-.26-.46-.72-.72-1.09-.31-.43-.75-.8-1.14-1.17-.23-.22-.47-.44-.75-.58-1.01-.5-2.22.15-3.34.03-1.44-.16-1.67-1.37-2.43-2.32-.79-.98-2.11-1.88-3.32-2.18-.63-.16-1.29-.17-1.89-.41-.36-.14-.68-.36-1.02-.55-1.41-.75-3.06-.84-4.65-.92-.46-.02-1.01.01-1.22.42-.15.28-.06.65-.25.91-.62.83-1.99-.6-2.67-.63-.96-.04-1.67.92-1.6,1.83.08.97-.35,1.98-.47,2.98-.09.8-.12,1.61-.08,2.41.05.91.48,1.89.25,2.69-.5,1.74-.35,3.49-.44,4.83Z"></path>
          <path fill="#EEEBE3" class="cls-1" d="M305.27,248.67c-.21-.2-.55-.3-.73-.52-.17-.21-.39-.6-.3-.75.83-1.34.1-2.83.21-4.27.05-.62.24-1.24.64-1.71.1-.12.22-.25.26-.4.12-.53-.22-1.28-.56-1.67-.65-.74-1.56-1.28-2.33-1.93-.21-.17-.41-.45-.43-.69-.1-.91-.18-1.83.38-2.67.06-.09.04-.3-.03-.39-.79-.98-1.44-2.12-2.79-2.54-1.2-.37-2.37-.92-3.73-.73-.45.06-.95-.28-1.43-.28-1.33,0-2.69-.04-3.98.19-.61.11-1.12.3-1.74.07-1.11-.43-2.22-.72-3.5-.49-.69.12-.89-.48-1.71-.42-1.25.1-1.85.46-3.17.03s-1.1.72-2.72,1.02c-1.61.3-2.93-.44-4.1-.77-2.13-.59-2.9-.37-4.84-.7-1.18-.2-3.1-1.67-3.54-1.69-.83-.02-.71.88-.91,1.01-.82.58-2.38-1.07-3.32-1.28-1.13-.25-2.16.4-2.67.27-1.12-.3-.19-1.89-.19-2.6.01-2.78.69-4.09.72-6.52.01-.72-.67-2.53-.65-3.27.05-1.53.13-3.11.26-4.86.14-1.85.61-3.72.36-5.55-.18-1.33-.25-2.61-.27-3.88,1.5-.2,3.2-1.37,4.39-1.59,3.32-.6,7.24-.73,10.7-1.33.85-.15,2.02-1.16,2.76-1.22,1.76-.15,2.11.21,4.5-.27,1.61-.32,3.54.93,4.33.73,1.24-.31.94-3.27,3.03-2.73.49.13,1.04.75,1.5.66.41-.08,1.04-1.03,1.62-1.32,2.53-1.28,2.39.87,4.13.41.66-.17,1.17-1.22,1.79-1.51.67-.32,1.61-.25,2.35-.57,1.91-.83.27-1.37,0-2.34-.41-1.48,1.36-1.93,2.04-2.96,1.49-2.26-.46-2.94-.92-4.76-.41-1.62,1.58-3.22,1.47-4.65-.11-1.47-1.02-1.65-1.38-2.25-.96-1.61-1.14-1.83-2.08-2.85-.21-.23-.39-1.32-1.83-1.36-.66-.02-.45-1.36-.88-2.02-.89-1.37-4.28-2.66-5.9-1.87-.49.24-.7,1.05-1.15,1.41-2.02,1.62-4.86-1.56-7.06-.51-.31.15-.51.59-1.04.79-1.08.43-3.66.73-4.62.44-.6-.18-1.06-1.01-1.91-1.03-1-.02-4.02,1.26-5.37,1.56-2.51.54-4.93.62-7.31.63.01-1.83,0-3.96-.1-5.27-.2-2.68-.54-5.21-.03-6.43.5-1.21-.03-5.62-.03-5.62.34-.65.68-1.3.63-1.54-.03-.13-.19-.33-.43-.55.27-1.37.55-2.74,1.67-3.88.57-.59.39-1.13-.34-1.58-1.75-1.09-3.52-1.81-5.85-1.24-.81.2-1.92-.3-2.83-.61-.3-.1-.37-.63-.61-.92-.19-.23-.45-.47-.74-.57-.94-.33-1.86-.33-2.82.05-1.25.5-1.63.34-2.85-.26-.74-.36-.84-.48-1.69-.65-.72-.14-1.49-.1-2.19-.28-1.28-.32-2.26-.1-3.12.75-.95.93-1.37.89-2.55.16-.34-.21-.99-.36-1.31-.23-2.02.85-3.76,1.96-4.09,4.02-.11.67-.12,1.35-.24,2.02-.07.4-.12.86-.39,1.17-.99,1.12-1.12,2.35-.69,3.61.23.68.1,1.13-.55,1.52-.95.57-1.24,1.35-1.18,2.29.11,1.72,1.06,12.94,1.1,14.66l-.04,4.43c-1.37.15-2.44-.53-3.55-.45-.95.07-1.62.9-2.47,1.21-3.19,1.17-7.05-.67-11.31.71-1.11.36-2.66,1.6-3.5,1.64-1.07.05-1.76-.88-2.64-1.08-1.63-.38-2.5.97-4.14,1.2-1.32.18-2.69-.16-3.95.06-1.4.25-2.43,1.72-3.55,1.93-.28.05-.57.06-.85.04-.33-3.36-.65-6.75-.49-9.84.14-2.68.05-5.16.15-7.68.02-.6.79-1.07.8-1.38.04-.62-1.31-1.59-.88-3.43.67-2.84.15-3.58.04-6.41-.02-.54.39-1.07.22-1.64-.09-.29-2.21-1.8-2.64-1.9-1.01-.23-1.64.15-2.37.13-2.54-.09-5.95-.78-8.64-.9-1.4-.06-2.74.07-4.07.19-1.87.13-3.72.43-5.58-.34-1.24-.52-3.05.33-2.92,2.22.05.8.21,1.6.18,2.39-.02.51-.15,1.21-.49,1.47-.89.67-1,1.54-.98,2.5.03,1,.23,1.84.16,2.96-.05.67-.34,1.27-.34,1.95,0,.47.35,1.05.34,1.52,0,1.03.23,1.05.22,2.08,0,.58-.5,1.56-.5,2.14,0,.54-.05,1.15-.06,1.69,0,.17.56,1.13.56,1.29,0,.43-.15.66-.31,1.07-.36.96-.02,1.24-.03,1.86-.02,1.03-.32,1.95-.34,2.98-.02,1.14.24,2.4.22,3.55-.03,1.42.31,2.41.28,3.83-.02.89-.21,1.98-.36,3-.13.23-.28.43-.52.5-.9.26-1.72-.53-2.54-.59-1.93-.13-4.32.92-6.01,1.13-1.49.18-3.28-.24-4.81-.08-2.02.21-4.46,1.75-6.81,1.95-1.57.13-3.33.1-5.09.05-.26-.85-.52-1.71-.79-2.56-3.32-10.52-5.01-21.92-8.37-32.34-.57-1.78-3.26-5.88-3.33-6.39-.08-.59.27-1.14.23-1.84-.11-1.98-1.23-4.19-1.36-6.2-.07-1.08.37-2.82.3-3.21-.17-1.02-3.21-1.87-4.05-1.9-1.58-.07-1.87,1.05-2.85,1.24-1.02.2-2.71.02-3.03-.09s-.69-.95-1.12-.74c-.43.21-1-.61-1.84-.31-.4.14-.72.78-1.2,1.07-1.82,1.06-2.66.01-4.19.06-.73.02-4.13.64-4.96.83-.34.07.24,1.19-1.74.74-.58-.13-2.44-1.13-2.57-1.12-.85.05-.22,1.89-.32,2.05-.29.44-1.19-.24-1.64,1.01-.41,1.15.25,1.73.33,2.29.21,1.48-.13,2.7.01,4.23.19,2.04.79,1.71.71,4.46-.09,3.26,3.5,6.79,3.18,8.06-.15.59-.97.84-.98,1.46,0,.29.22.58.51.6.07,0,.14,0,.22-.02.46-.08.81.07,1.07.48.45.71.3,1.8.04,2.54-.09.25-.21.5-.2.77,0,.17.06.34.14.49.09.19.27.39.46.33.15-.05.22-.23.36-.3.15-.07.34,0,.45.13.24.29.15.77.28,1.12,1.07,3.03,2.68,6.13,3.67,9.24,1.71,5.41,2.49,11.76,3.85,17.48-.57.21-1.1.41-1.38.52-.64.24-1.14.89-1.89,1.04-3.01.59-5.42-.84-8.9.21-1.13.34-2.03,1.11-3.07,1.34,0-.02.01-.04.01-.07.26-1.45.86-2.94,1.1-4.64.17-1.21.48-2.76.87-3.75.63-1.62.21-1.64.3-2.64.09-1.04.95-1.74.83-2.91-.1-.97.9-1.76.79-2.23-.22-.87-.9-1.28-.82-2.26.02-.28.07-.56.13-.83.16-.68.26-1.42.38-2.11.03-.15.04-.33-.08-.43-.12-.09-.3-.03-.42.06-.13.09-.25.2-.41.19-.16,0-.28-.14-.36-.28-.47-.91-.6-2.05-1.2-2.89-.38-.53-.99-.73-1.16-.99-.18-.28.28-.78.15-.99-.13-.2-1.72-.93-1.96-1.83-.19-.69.29-1.21.21-1.6-.07-.37-.64-.64-.8-.97-.25-.51-.1-1.07-.27-1.49-.26-.65-.9-1.15-.96-1.9-.05-.66.63-1.95.26-2.5-.06-.09-.91-.31-1.29-.68-.57-.55-3.02-6.65-3.71-7.55-.23-.29-.29-.71-.78-.64-.89.12-2.59,3.58-2.95,4.54-.61,1.61-.7,3.47-1.18,4.85-.18.51-.82.72-.88,1.08-.05.35.36.84.26,1.31-.1.41-.82,1.12-1.05,1.97-.94,3.49-1.87,3.85-3.12,7.28-.25.68-.71,1.19-1.23,1.66-.16.15-.32.29-.45.47-.6.81-.06,1.62-.18,2.51-.15,1.07-.48,1.07-.74,2.13-.1.39-.17.78-.25,1.17-.04.19-.14.4-.14.59-.01.26.15.57.22.82.09.3.14.64.04.94-.09.26-.29.47-.45.7-.31.45-.47.93-.84,1.35-.3.35-.77.73-.8,1.22-.17,2.58-.86,4.16-1.47,6.21-.44,1.46-.41,1.92-.86,3.37-.11.36-.71,1.72-.82,2.08-.22.71-.67.9-.9,1.61-.22.7-.22,1.92-.45,2.62-.08.24-.16.49-.24.73-.41.08-.88.49-1.49.57-1.36.17-7.31-.11-8.02.35-.29.19-.42.76-.77,1.06-1.39,1.18-2.11-.48-3.11-.22-.6.16-.78,1.46-1.64,1.68-.84.21-4.31.68-5.18.69-.86,0-2.53-.77-3.1-.4-.1.07-.25.7-.61,1.02-1.28,1.12-4.04.85-3.21,3.63.14.48,1.63.77,1.77,1.26.65,2.23-2.18,4.01-1.95,4.87.18.65,1.26.7,1.72,1.09.15.13.22.53.47.78.37.38,1.24.46,1.07,1.13-.09.37-2.83,1.23-2.76,2.39.05.87.86,1.33,1.02,1.92.28.99-.44,1.71-.31,2.71.17,1.27,1.31,2.71,1.64,3.81.15.49-.07,1.27.08,1.5.61.92,5.43-.99,6.41-.69,1.21.36.46,1.58,2.03,2.04,1.19.35,3.64-.8,6.14-1.53-.05.17-.1.33-.15.5-.18.53-.68.96-.84,1.54-.25.88-.32,1.97-.59,2.88-.35,1.21-.97,1.05-1.06,2.29-.08,1.17-.65,2.68-.87,3.38-.67,2.13-1.13,4.17-1.77,5.63-.36.83-2.57,4.22-1.92,4.75.11.09,2.47.72,2.8.77,1.29.18,7.64.76,8.54.8.61.02,1.15-.44,1.73-.33.41.08.81.6,1.17.6.69.01,1.61-1.38,2.83-.97,2.19.72,3.81.2,6.24.31,1.28.06,2.56.68,3.87.42.35-.07.28-.77.55-.97.56-.43,1.86.16,2.1-.79.19-.73-.07-1.74.04-2.58.25-1.97,1.33-3.72,1.6-5.37.29-1.83,2.04-7.14,2.83-10.24.51-2,.08-1.99.43-3.13.15-.48.7-.99.85-1.47.14-.46-.12-.9.02-1.37.13-.43-.45-.89-.32-1.32.21-.15.28-.45.38-.66.04-.05.08-.1.12-.15.03-.03.06-.07.11-.08,1.19-.17,2.01,1.07,2.93,1.04.41-.01.79-.46,1.19-.52.62-.09,1.18.44,1.72.32.55-.12,1.63-1.78,2.35-1.64.54.1.19.8,1.09,1.04.75.19.68-.89,1.21-1.05,1.09-.35,2.52-.32,2.93-.31,1.05.02,2.11,1.06,2.96,1.04.13,0,2.26-.63,2.43-.71.61-.3.94-1.5,1.36-1.58.54-.11,1.27,1.14,2.14,1.07.45-.04,1.19-.61,1.75-.8.56-.19,1.17-.21,1.77-.42.74-.25.92-.97,2.17-.77.99.16.81.99,1.26,1.33.83.62,1.77-.49,2.55-.76.07-.02.16-.04.23-.06.82,2.42,1.12,4.74,1.02,8.12-.1,3.24.08,1.74.63,4.14.41,1.81.14,6.47,1.24,7.35.2.16.6.02.85.22.05.04.84.86.85.93.1.91-.68,1.67-.66,2,.03.66,1.49,1.25,1.73,1.69.59,1.06.15,2.62.49,3.82.28.98,1.2,1.42,1.45,2.01.28.67.05,1.62.33,2.07.27.43,1.02.24,1.21.45.19.22.03,1.39.63,1.53.27.07.87-.43,1.39-.4.57.03.99.61,1.51.74,3.59.9,7.04-.69,10.53-.36.93.09,1.98.74,2.78.7.77-.04,1.73-.76,2.54-.7.61.05,1.12.68,1.8.8,3.5.64,6.27-1.36,9.37-2.79.13-.18.16-.38.16-.6-.02-1.29-2.18-6.86-2.68-8.76-1.27-4.87-1.96-10.12-3.29-14.96-1.11-4.06-2.99-7.79-4.29-11.78-.09-.27-.17-.54-.26-.82.22-.07.49-.16.85-.29.68-.24,4.07-1.54,4.3-1.54.64.01,1.17.7,1.87.76.93.09,1.48-.65,2.25-.68.7-.02,1.61.5,2.43.22,1.27-.43,2.44-2.25,3.66-2.54.01,0,.02,0,.04,0-.02.69-.05,1.39-.06,2.05-.02,1.24.43,2.42.3,3.51s-.93,1.87-.92,3.06c.01,1.71-.02,3.42-.08,5.13-.07,1.88-.5,2.66-.26,5.63.04.5.32,1.13.3,1.64-.04.67-.45,1.21-.48,1.87-.09,1.87.36,1.52-.2,5.64-.08.6-.33,1.26-.29,1.68.09.93,1.98,2.24,2.85,2.34,3.09.35,6.36-.38,9.46-.47,1.01-.03,2-.26,3-.35.91-.08,1.83-.05,2.74-.02.82.03,1.63.05,2.44.08.93.03,1.87.06,2.8.19.79.11,1.58.28,2.37.38,3.1.38,6.23-.44,9.35-.3,1.03.05,2.06.2,3.09.21,1.4.02,2.79-.22,4.18-.33,3.38-.27,6.94-.05,10.31.2,3.46.26,7.09.11,10.57.04,1.45.21.58,1.35.51,2.27-.15,1.91,1.7,4.42,3.82,3.51.56-.24,1.17-.37,1.78-.36.15,0,.29,0,.43.06.16.06.3.17.46.25.29.16.62.23.95.26.63.06,1.26-.05,1.88,0,.68.05,1.36.01,2.03-.08.74-.1,1.47-.28,2.21-.36.81-.09,1.62-.06,2.44-.04,2.11.08,4.23.17,6.33.41.71.08,1.41.17,2.12.17.88,0,1.76-.17,2.63-.29,3.76-.51,7.63-.1,11.41-.09,1.95,0,3.91.2,5.85-.07.33-.05.69-.1.98.06.12.06.21.16.34.2.14.05.29.05.43.04,1.19-.07,2.36-.3,3.55-.4,2.32-.19,4.65.05,6.96.08,2.4.03,4.81.09,7.21.13,3.76.06,7.51.16,11.26.15.7,0,1.4-.46,2.1-.72.28-.1.56-.19.82-.3.46-.21,1.16-.14,1.38-.66.21-.52-.6-.71-.94-1.04ZM228.75,223.52c-.17.56-.68,1.07-.8,1.64-.24,1.11.44,2.17-1.28,2.18-1.03,0-1.63-1.22-2.12-1.33-.68-.15-2.08,1.01-2.73,1-.47,0-.74-.52-1.1-.63-1.8-.54-2.52.75-3.38.65-.51-.06-.78-.58-1.13-.67-.48-.12-2.42.13-3.37-.07-.68-.14-1.16-.6-1.76-.68-1.07-.15-1.95.46-3.07.34-.6-.07-2.32-.62-2.98-.85-.46-.16-2.3-1.56-2.75-.87-.17.26.33,1.33-.52,1.03-.46-.16-.98-.67-1.57-.87-2.16-.73-3.76-.35-5.89-.52-.29-.69.62-1.55.59-1.92-.02-.2-.41-.48-.49-.79-.26-.95-.95-2.85-.04-3.3.36-.18-.76-1.68-.8-2.72-.04-1.13.34-2.05.38-3.21.01-.39.02-1.52.03-2.45.65.3,1.36.6,2.16.56,1.91-.08,2.94-1.53,4.27-1.62.73-.05,1.27.43,2.06.3.62-.11,1.38-.92,1.59-.91.2,0,.49.49.8.61.87.31,2.43-1.71,3.68-1.69.32,0,.22.71.53.95,1.01.78,4.21-1.17,5.47-1.13.83.02,1.41.94,2.94.77.29-.03,3.07-.73,3.21-.81.44-.26.66-1.4,1.39-1.57.76-.18,1,.49,1.5.66,1.54.52,3.86-.82,5.82-1.51-.04,1.65-.09,3.31-.12,4.96-.09,4.21.66,10.72-.5,14.5Z"></path>
          <path fill="#EEEBE3" class="cls-1" d="M535.81,149.89c-.02-.58.47-1.06.42-1.61-.06-.74-.63-1.38-.74-2.15-.12-.84-.11-1.69-.15-2.54-.05-1.28-.41-2.5-.49-3.75-.06-1.04-1.12-2.21-.81-3.23.12-.4.72-.54.4-1.06-.31-.51-1.2-.81-1.26-.9-.17-.27.07-.82-.08-1.06-.06-.1-.24-.16-.34-.21-.2-.1-.42-.19-.64-.26-.18-.05-.41-.11-.6-.04-.07.03-.14.07-.17.14-.06.13.05.26-.04.4-.07.09-.18.14-.29.13-.06,0-.12-.03-.17-.05-.12-.05-.25-.12-.33-.23-.09-.12-.12-.24-.24-.34-.12-.1-.24-.21-.39-.28-.2-.1-.41-.12-.63-.06-.64.19-.82.47-1.49.41-.72-.06-1.33-.35-2.08-.2-.43.09-.82.27-1.23.43-.83.31-1.72.46-2.61.45-.41,0-.87-.07-1.15-.38-1.57.89-3.48-1.68-5.05.1-.22.25-.39.59-.72.65-.29.05-.55-.15-.83-.24-.17-.05-.34-.06-.52-.06-2.15-.03-4.13,1.12-6.25,1.38-1.81.23-.8,2.27-1.17,2.79-.4.56-2.03.06-1.83,1.76.07.56.72,1.43.72,1.78,0,.49-.53.84-.67,1.28-.17.55.03,1.11.12,1.69.2,1.35.27,2.75-.15,4.06-.17.53-.42,1.05-.44,1.61-.03.7.31,1.36.34,2.05.04.96-.49,1.92-.25,2.85.06.24.18.47.21.72.04.37-.13.73-.24,1.09-.49,1.55.38,2.35.6,3.75.38,2.47-1.52,4.42-1.07,7.05.15.88.74,1.59.85,2.49.09.68-.1,1.35-.24,2.01-.1.51-.35,1.06-.38,1.58-.04.75.33,1.48.35,2.22,0,.24-.02.49-.13.71s-.33.38-.57.39c-.59,0-1.35-1.1-1.58-1.56-.37-.76-.54-1.6-.92-2.35-.3-.59-.69-1.15-1.07-1.7-.19-.27-.37-.57-.61-.79-.33-.3-.71-.49-.95-.89-.32-.55-.2-1.09-.31-1.67-.16-.8-.55-2.8-.94-3.34-.83-1.13-2.92-1.21-3.43-1.71-.38-.38-.4-1.37-.64-1.92-.57-1.26-1.68-2.14-2.47-3.25-.84-1.18-1.71-2.32-3.01-3.08-.3-.18-.62-.33-.88-.56-.84-.73-.93-2.02-1.65-2.87-.51-.6-1.27-.91-1.83-1.46-.99-.99-.36-3.17-1.65-3.81-.41-.2-.92-.06-1.29-.42-.67-.66-.54-2.02-.98-2.73-.57-.92-2.07-1.15-2.88-1.97-1.04-1.06-.35-1.93-1.18-3.1-.46-.65-.98-.72-1.39-1.17-.44-.48-.7-1.68-1.03-1.88-.48-.29-1.15-.16-1.61-.32-.64-.22-1.34-1.29-2.36-1.37-.69-.05-1.51.61-1.94.52-1.08-.23-1.04-.89-3.19-.81-1.51.06-2.22-.19-3.37-.19-1.28,0-2.67.63-4.06.49-.87-.09-1.42-.72-2.26-.59-.44.07-.69.49-1.15.58-.86.15-1.9-.15-2.8.06-.72.16-1.29,1.03-2.07,1.09-.69.05-1.23-.54-1.42-.53-.35.02-.58.79-.79,1.01-.77.79-.63.81-1.12,1.45-.31.41-2.2.14-2.2,2.19,0,.12.36,2.32.41,2.43.16.32.7.54.85.85.08.16,1.15,3.09,1.22,3.34.14.47.02,1,.18,1.53.18.56.91.98.97,1.3.07.34-.47,1.17-.22,1.51.07.1,1.57.62,2.1,1.18,1.13,1.18.93,2.58,1.58,3.84.55,1.06,2.29,1.81,2.73,2.69.34.69.55,3.13.77,4.07.07.27.43.5.51.92.2,1.1.18,3.52-1.15,2.21-1.06-1.05-1.94-1.06-3.11-1.95-.79-.6-1.7-1.91-2.6-2.25-.55-.21-1.03-.07-1.51-.21-.75-.21-2.65-3.26-3.9-3.31-1.32-.05-1.05,2.42-1.54,3.14-1.43,2.12-1.45,3.08-1.33,5.21.03.48.58.76.58,1.14,0,.41-.78,1.03-.88,1.99-.18,1.65-.08,4.57-.01,6.27.02.56.4,1.11.32,1.69-.06.49-1.47.07-1.46.88,0,.72.52,1.2.59,1.98.13,1.3-.51,2.46-.24,3.66.2.9,1.35,1.42,1.37,2.04.02.65-.48,1.21-.62,1.81-.19.83-.14,1.69-.01,2.52.13.87.51,1.87.3,2.75-.7,3.01.09,2.58.07,4.61-.02,1.6-.47,3.31-.31,5.13.04.47.22.93.39,1.37.15.38.41.82.46,1.24.06.49-.24,1.11-.28,1.62-.04.6.01,1.21.16,1.8.06.25.15.51.15.77,0,.23-.04.45-.09.68-.08.39-.21.81-.1,1.21.1.37.36.69.4,1.07.05.43-.22.77-.2,1.07.04.66.39,1.18.25,1.99-.14.79-1.19,1.48-1.14,2.54.07,1.36,1.58,2.36,1.71,3.16.05.29.18,2.27.14,2.45-.1.52-.77,1.25-.94,1.89-.13.47-.19.96-.25,1.45-.07.55-.23,1.21.07,1.71.11.18.26.35.4.51.17.19.42.38.54.6.09.17.15.35.18.54.07.4,0,.82-.1,1.21-.15.6-.39,1.17-.6,1.75-.18.5-.36,1.05-.33,1.59.04.77,1.1,2.28,1.88,2.42,1.36.23,1.52.35,2.71.71,1.77.55,2.14.03,3.28.13.47.04.73.61,1.43.61.67,0,.91-.5,1.43-.6,1.02-.19,1.89.26,2.84.3,1.51.06,1.36-.15,2.92.22,1.66.39,2.12-.8,2.8-.81.67,0,1.17.87,2.51.51.89-.24,1.14-1.18,1.7-1.44.56-.26,1.38-.11,1.6-.26.09-.06.17-.56.46-.83.53-.48.85.06.73-1.26-.11-1.25-.09-3.88.34-5.07.18-.52.9-.85,1.04-1.55.14-.69-.35-1.36-.24-2.2.09-.71.85-1.42.85-2.01s-.71-1.04-.54-1.66c.07-.26.29-.34.47-.5.16-.14.22-.41.15-.61-.07-.2-.22-.26-.38-.36-.15-.1-.33-.27-.42-.43-.26-.51-.22-2.04-.08-2.65.18-.86.95-2.29,1.29-2.95s-.27-2.35-.54-3.05c-.26-.71-1.36.06-.46-1.96.29-.64,1.22-1.78,1.3-2.39.08-.71-.78-1.79-.45-3.32.22-1.02,1.35-1.79,1.52-2.46.18-.7-1.26-2.9.11-3.88,1.37-.98,3.67-2.34,4.45-2.13s1.47,1.07,1.69,1.44c.39.66.3,1.61.71,2.14.41.54,1.32.59,1.88.97.33.22,3.6,3.25,3.85,3.56.68.84,1.32,3.51,2.06,4.07.46.35,1.94-.19,2.79.64.19.19-.23.72-.55,1.01-1.25,1.13,1.05,1.3,1.56,1.82.46.46-.01.98.43,1.13.45.15.95-.31,1.4.03s.04.81.13,1.15c.17.65.51,1.72.88,2.26.6.88,2.44,1.51,2.99,2.47.34.59.22,1.41.48,2.04.21.51,1.31,1.35,1.68,1.75.47.52.51,1.25.98,1.88.9,1.21,2.96,2.52,3.73,3.69.41.62.25,1.37.83,2.02.68.76,2.02,1.4,2.71,2.42.46.68.9,2.98,1.05,3.08.16.11.76.05,1.11.17,1.39.46,1.3,2.82,2.58,3.7,1.09.75,1.6.03,2.72-.11.64-.08,1.63-.1,2.25-.01.37.05.72.24,1.05.42.3.16.61.36.94.44.09.02.21.04.3-.02.1-.07.11-.21.11-.32,0-.12-.02-.25-.04-.37-.02-.08-.04-.17-.06-.25-.03-.1-.07-.17-.02-.28.03-.05.07-.1.13-.13.03-.02.05-.03.09-.03.09-.01.12.03.19.07.06.03.12.05.19.08.14.06.27.12.41.19.26.12.51.25.78.34.09.03.19.07.29.07.54.04,1.03-.65,1.94-.52.53.08.83.58,1.28.74,1.4.48,3.26-.6,4.72-.73,1.15-.1,2.38.39,3.14.3.81-.1,1.02-.95,1.46-1.42.57-.61,1.28-.83,1.51-1.93.12-.6-.22-1.15-.13-1.75.06-.41.2-.77.26-1.19.07-.5.23-.99.33-1.49.13-.69.14-1.46-.3-2.01-.21-.27-.38-.48-.32-.84.06-.38.29-.68.09-1.07-.21-.4-.67-.43-1.04-.59-.44-.19-.92-.3-1.36-.52-.41-.2-.77-.5-.99-.9-.22-.4-.28-.89-.11-1.31.12-.3.04-.51,0-.83-.05-.5-.13-.99-.27-1.47-.13-.43-.3-.84-.55-1.21-.68-1.02-1.55-2.46-.34-3.48.24-.2.52-.32.77-.51.25-.19.47-.49.47-.8,0-.25-.16-.43-.35-.52-.22-.11-.5-.06-.74.01-.07.02-.13.04-.2.04-.07,0-.14-.02-.2-.04-.1-.02-.21-.04-.24-.15-.02-.05,0-.11,0-.16.07-.34.21-.73.18-1.08-.03-.27-.18-.46-.38-.59-.51-.33-1.29.04-1.72.36-.27.2-.63,1.06-.9,1.09-.55.06-.77-1.35-.78-1.74-.02-.36.47-2.29.6-2.42.58-.56,1.69,1.13,2.42,1.12.19,0,1.43-.49,1.66-.61,1.08-.61.53-1.73.91-2.51.32-.65,1.56-1.12,1.8-2.19.32-1.42-.56-2.72-.4-3.23.38-1.19,1.64-1.17,1.91-1.6.56-.91.03-2.25.3-3.07.13-.39.66-.36.77-.51.14-.2.03-.71.21-1.07.42-.87,1.4-1.44,1.55-2.45.1-.65-.55-2.5-.66-3.12-.09-.51-.6-.76-.6-1.43,0-.73.69-1.04.62-1.7-.06-.58-.72-.81-.61-2.02.06-.7.51-.93.59-1.41.09-.54.6-1.15.68-1.7.08-.55.58-1.01.57-1.44,0-.39-.43-.61-.52-.91-.12-.43.01-.9-.11-1.32-.12-.42-.74-.57-.82-1.19-.17-1.36,1.04-2.75,1.17-3.97.11-1.07.14-3.82-.02-4.85-.09-.62-.59-1.02-.58-1.71,0-.49.34-.94.31-1.42-.03-.52-.55-.92-.58-1.45-.03-.43.28-1.39.46-1.82.54-1.24,2.06-1.15,1.49-2.96-.15-.46-1.92-2.2-.81-2.9.94-.59,1.43-.11,1.14-1.98-.18-1.14-.71-2.34-.77-3.76Z"></path>
        </g>
        <g>
          <path fill="#EEEBE3" class="cls-1" d="M380.92,121.94c1.36.31,2.75.52,4.14.58,1.43.06,2.77-.28,4.2-.23,1.01.04,1.98.39,2.99.45.94.05,1.87-.15,2.77-.42.8-.24,1.67-.54,2.43-.17.21.1.4.25.62.35.32.14.67.14,1.01.15.95,0,1.99.13,2.94.1,2.32.05,2.96.12,3.52-2.92.09-.48-.13-1.01-.19-1.51-.08-.57-.22-1.14-.19-1.71.1-2.24,1.22-3.93,1.18-6.16-.02-1.01-.03-2.01-.05-3.01-.01-.68-.02-1.37-.23-2.01-.21-.64-.6-1.19-.86-1.81-1.01-2.47.29-5.11.53-7.6.26-2.73.07-5.6.1-8.35.02-1.87-.04-3.75.03-5.61.04-.99.3-1.98.44-2.96.03-.2,0-.41-.02-.61-.07-.91-.23-1.82-.2-2.72.06-2.11.25-4.22.31-6.33.06-1.91.11-3.82.15-5.73.05-1.87.15-3.81.05-5.68-.05-1.03-.26-2.06-.11-3.07.15-1.06.68-2.02,1.06-3.02s.61-2.15.16-3.12c-.12-.27-.3-.52-.38-.81-.21-.74.22-1.53.08-2.29-.04-.22-.12-.42-.19-.63-.39-1.21-.08-2.3-.06-3.51.02-1.51.02-3.03.02-4.55,0-2.99-.03-5.98,0-8.97,0-1.22.04-2.43.08-3.64.02-.6.04-1.2.07-1.8.02-.51.01-1.08.15-1.57.4-1.43,1.41-1.88.61-3.47-.46-.91-.05-1.77.07-2.7.29-2.18-.52-4.97,1.79-6.33.48-.29,1.16-.41,1.58-.03.76.69.79,3.45.79,4.42,0,4.67.73,9.42,1.11,14.06.03.34.06.69,0,1.03-.04.23-.11.45-.13.68-.05.72.53,1.35,1.19,1.62s1.41.25,2.12.22c.74-.03,1.48-.05,2.21-.18,2.92-.51,6.31.08,9.3.16,2.5.06,5,.11,7.49.17,1.75.04,2.37-.52,2.36-2.28-.01-1.29-.26-2.63-.23-3.9.03-1.21.83-2.49.4-3.7-.99-2.8-.62-5.8-.42-8.78.02-.35-.04-.7-.1-1.05-.14-.85-.33-1.7-.43-2.56-.09-.75-.04-1.52-.13-2.28-.1-.86-.67-1.27-1.55-1.26-.94.01-1.88.06-2.82.05-4.69-.07-9.39.03-14.06-.31-1.35-.1-2.69.1-3.98.5-.96.3-2.57,1.56-3.3.32-.07-.12-.12-.25-.23-.34-.73-.62-1.53.41-2.13.67-.79.34-1.72.11-2.54.03-.2-.02-.43-.33-.56-.55-.5-.91-.6-.93-1.22-.12-.41.54-.73.61-1.39.23-.59-.34-1.5-.58-2.1-.38-2.16.71-4.21.47-6.31-.17-1.37-.42-7.52-.59-8.98-.29-1.69.34-2.05.61-3.77-.11-.85-.35-1.4.03-1.65.96-.12.46-.1.96-.13,1.44-.02.45.02.9-.05,1.34-.13.84-.38,1.67-.46,2.51-.14,1.43-.36,2.88-.22,4.3.15,1.48.92,2.88.77,4.45-.1,1.02-.02,2.06,0,3.08.02,1.74.06,3.48.05,5.22,0,.49-.04,1.06-.29,1.46-.32.53-.36.97-.22,1.54.22.91.44,1.85.48,2.78.09,2.29-.16,4.62.16,6.87.3,2.13.57,4.19.37,6.35-.11,1.17.42,2.39.49,3.6.18,3.36.36,6.74.37,10.1.04,10.8-1.35,21.6-1.34,32.4,0,1.41.11,2.82.11,4.23,0,3.77-.04,7.54-.08,11.3,0,.64-.28,1.32-.13,1.9.71,2.73.23,5.25-1.09,7.68-.74,1.34.21,3.69,1.7,4.04Z"></path>
          <path fill="#EEEBE3" class="cls-1" d="M347.22,28.65c-.01,1.76,1.19,3.13,2.99,3.32,1.89.19,3.8.19,6.27.29,4.04-.2,8.63-.4,13.22-.69.84-.05,1.68-.41,2.48-.73.61-.24.8-.77.71-1.44-.05-.38.1-.8.22-1.18.08-.26.38-.47.39-.72.04-1.2.29-2.49-.06-3.59-.38-1.24-.3-7.12.05-8.28.14-.45.3-1.03.13-1.41-.53-1.21-.26-2.34.11-3.48.2-.62.4-1.18-.47-1.47-.14-.05-.3-.29-.29-.43.08-.83-1.14-1.42-.44-2.35.02-.03-.04-.11-.06-.16-.76-1.51-2.07-2.27-3.78-1.95-2.26.41-4.49.46-6.78.38-3.71-.13-7.44.06-11.16.14-.65.01-1.3.13-1.94.26-1.27.27-1.55.66-1.4,1.92.18,1.61.41,3.21.59,4.82.32,2.85.13,10.49-.38,13.31-.2,1.13-.38,2.29-.39,3.44Z"></path>
        </g>
      </g>
      <g>
        <path fill="#EEEBE3" class="cls-1" d="M297.35,27.03s.05-.03.08-.04c.13-.05.26-.11.4-.16.26-.11.53-.21.79-.32.53-.22,1.05-.44,1.57-.68.34-.16.68-.32,1.02-.49.39-.2.8-.74.82-1.14.05-.94-.12-1.89-.22-2.83-.05-.42-.17-.84-.23-1.26-.19-1.19-1.24-4.03-.52-5.01.26-.35.6-.65.77-1.05.26-.62.05-1.33-.17-1.97-.14-.4-.27-.8-.5-1.16-.13-.21-.3-.4-.42-.61-.21-.38-.27-.81-.33-1.23-.33-2.39-.44-4.78-3.08-5.71-1.11-.39-2.23-.66-3.15-1.42-.48-.39-.98-.34-1.27.21-.49.91-1.34,1.11-2.27,1.28-1.58.29-3.14.68-4.72.98-.6.11-1.23.17-1.84.14-1.29-.06-1.69.92-2.66,1.59-1.01.7-2.23,1.01-3.13,1.88-.93.9-1.36,2.2-2.24,3.15-.83.9-1.99,1.42-2.93,2.19-1.75,1.44-2.63,3.65-3.45,5.76-.39,1.02-.3,1.94-.73,2.97-.81,1.92-1.62,3.85-2.43,5.77-.26.62-.53,1.26-.53,1.93,0,.79.32,1.66-.11,2.31-.87,1.31.62,2,1.13,3.41.39,1.08.61,2.22.86,3.35.05.24-.02.61-.19.76-.7.61-.56,1.23-.29,1.99.38,1.05.99,2.24.79,3.23-.32,1.58.44,2.76,1.15,3.8,1.14,1.66,1.3,3.25.77,5.03-.23.78-.16,1.46.37,2.15.4.52.63,1.18.86,1.81.22.6.48,1.07,1.19,1.3.31.1.7.61.68.92-.06,1.1.57,1.58,1.48,1.99.48.21.89.61,1.24,1.01.48.54.8,1.22,1.31,1.72,1.25,1.21,2.61,2.31,3.87,3.53.52.5,1.03.7,1.7.51.62-.18.92.04.97.62.05.6.41.7.97.74.7.05,1.5.09,2.07.43.91.54,1.76,1.25,2.44,2.04.62.72,1.36.9,2.23,1.02.55.07,1.15.17,1.63.41,1.11.57,2.17,1.23,3.23,1.88,1.55.95,3.25,1.49,5.06,1.76.35.05.77.24.96.5.48.65,1.05,1.01,1.9,1.02.57,0,1.14.1,1.7.15.71.07,1.35.23,1.78.89.73,1.11.79,1.1,2.17.67.88-.28,1.66-.26,2.29.56.2.26.69.44,1.05.46,1.26.07,1.56.25,1.95,1.45.17.53.44.89,1.09,1,.36.06.72.37.98.65.82.88,1.55,1.84,2.41,2.69,1.14,1.14,1.44,3.32.64,4.71-.42.73-.62,1.58-.97,2.35-.31.69-.67,1.35-1.04,2.01-.21.37-.53.69-.73,1.07-.77,1.46-2.06,2.16-3.67,2.5-.48.1-.91.53-1.31.87-.34.29-.53.83-.91.99-.86.35-1.08.99-1.33,1.75-.3.88-.63,2.01-1.31,2.64-.59.55-1.14.71-1.54,1.46-.44.82-.23,1.98-1.3,2.38-1.42.53-3.08-2.09-3.85-3.05-.67-.84-.97-1.96-1.36-2.99-.45-1.17-1.78-2.18-3.08-2.22-2.29-.08-4.05-1.04-5.38-2.83-.24-.32-.72-.58-1.14-.67-1.22-.27-2.22-.72-2.97-1.78-.41-.58-1.2-.93-1.85-1.34-.6-.38-1.23-.69-1.85-1.04-.49-.27-.96-.55-1.46-.82-.67-.36-1.53-.56-2-1.08-1.16-1.31-2.83-.96-3.77.18-.33.4-.71.79-1.14,1.09-1.99,1.35-3.57,3.23-4.95,5.17-.52.72-1.05,1.46-1.75,2-.64.48-1.39.78-2.05,1.24s-1.24,1.13-1.26,1.93c0,.24.04.48,0,.71-.1.51-.62.9-.62,1.42,0,.57.59.92,1.1,1.16,2.14,1.01,2.46,1.43,3.04,3.8.07.28.15.57.37.75.17.14.41.18.63.21,1.27.19,1.85-.28,2.78.79.73.87,1.64,1.58,2.45,2.39.65.65,1.27,1.34,1.89,2.02.16.18.22.51.42.6,1.52.7,2.59,2.25,4.52,2.16.2,0,.41.14.61.24.81.4,1.6.82,2.42,1.21.71.34,1.46.6,2.13.98.86.49,1.68,1.04,2.52,1.57.21.13.43.2.66.24.55.08,1.16-.05,1.74-.09.23-.01.45-.03.68-.03,1.59-.04,3.16.26,4.73.49.46.07.92.13,1.38.1.38-.02.76-.11,1.12-.23,1.41-.46,2.15-1.35,2.67-2.65.25-.62.59-.88,1.31-.58,1.37.56,2.79.98,3.79,2.16.21.25.68.27,1.01.44.31.16.6.45.88.56.29.11,2.1.13,3.26,0s2.47-.42,3.72-.54c.81-.08,1.73-.14,2.54,0,.64.11,1.14.58,1.85.46.05,0,.11-.02.16-.05.4-.23.33-.58.58-.9.22-.28.67-.38,1.01-.47,1.16-.32,1.72-.59,2.55-1.24.19-.15.07-.57.33-.74.32-.21,1,.09,1.38.02.37-.07.73-.29.86-.64.51-1.45-.22-1.21,1.14-1.79.91-.39,1.51-.39,1.76-1.57.26-1.18,1.2-.29,1.89-.57.73-.29,1.15-1.4,1.89-1.85.73-.45,1.63-.7,2.11-1.4.36-.52.42-1.19.62-1.79.57-1.69,1.62-2.42,1.48-4.22-.16-1.97.18-3.89,1.13-5.65.68-1.26,1.64-2.4,1.93-3.8.24-1.14,0-2.35.26-3.49.27-1.25,1.1-2.31,1.4-3.55.17-.74.15-1.51.13-2.26-.04-1.32-.08-2.63-.12-3.94-.02-.83-.06-1.7-.48-2.42-.34-.59-1.11-1.12-1.2-1.83-.09-.71.33-.77.42-1.31.2-1.33-.32-2.25-1.42-3.08-1.09-.82-.99-1.34.2-1.93.32-.16.69-.52.73-.83.04-.26-.3-.7-.59-.84-.85-.42-1.25-1.08-1.47-1.92-.08-.29-.23-.58-.43-.81-1.19-1.34-1.45-2.96-1.44-4.63,0-.91-.43-1.3-1.27-1.55-.57-.17-1.19-.46-1.58-.87-.83-.88-1.52-1.89-2.29-2.82-.23-.28-.5-.61-.83-.73-1.45-.52-2.89-1.22-4.39-1.41-3.08-.38-5.39-1.9-7.63-3.79-1.02-.86-2.5-1.21-3.77-1.79-.5-.22-1.02-.42-1.53-.61-.48-.18-.96-.39-1.46-.5-.88-.2-1.81-.25-2.67-.53-2.35-.76-4.64-1.71-7.01-2.39-1.88-.54-3.65-1.17-5.16-2.41-.32-.26-.88-.23-1.32-.36-.34-.1-.88-.17-.95-.37-.24-.71-.63-1.13-1.39-1.32-.25-.06-.39-.47-.64-.63-.23-.15-.59-.32-.81-.25-1.23.39-1.24.4-1.86-.68-.89-1.53-1.1-3.23-1.3-4.92-.09-.74-.02-1.52.08-2.26.08-.59.31-1.16.47-1.74.36-1.26.53-2.61,2.12-3.11.54-.17,1.17.02,1.65-.28.17-.1.3-.25.44-.4.37-.41.75-.82,1.03-1.29.09-.15.17-.31.29-.44.06-.07.12-.12.19-.17.07-.06.14-.13.22-.17ZM307.93,116.99c-.48.42-1.05-.37-1.43.16s0,.94.12,1.38c.09.34.36.64.55.96.3.49.07.82-.43.85-.73.05-1.48.07-2.19-.06-1.14-.2-1.64-1.19-1.37-2.33.16-.68.29-1.37.29-2.06,0-.8.32-1.37,1.05-1.7.8-.35,1.25-.89,1.28-1.76,0-.2.09-.46.24-.58.39-.32.83-.94,1.25-.85.41.09.64.75.74,1.18.22.91.45,1.86.4,2.79-.04.87-.01,1.6-.49,2.02Z"></path>
        <path fill="#EEEBE3" class="cls-1" d="M306.53,21.09c0,.45,0,.75.16,1.16.17.42.1,1.01.34,1.39.13.21.4.3.64.3s.49-.06.74-.07c1.03-.06,1.93.73,2.51,1.6s.95,1.88,1.63,2.67c.48.56,1.21.65,1.62,1.28.71,1.09,1.71,1.52,3.05,1.53.65,0,1.56.17,1.9.59.73.89,1.68,1.36,2.62,1.91.49.28.98.58,1.4.94,2.53,2.18,6.06,1.65,7.87-1.17.24-.38.54-.83.93-1.02.85-.4,1.31-.97,1.49-1.85.11-.55,1.18-1.42,1.64-1.66.49-.26,1.04-.5,1.33-.97.2-.31.26-.69.32-1.06.19-1.22.33-2.71,1.26-3.64,1.04-1.23,1.41-2.7,2.08-4.06.32-.66.14-1.07-.5-1.43-.54-.31-1.02-.72-1.5-1.12-.86-.72-1.66-1.51-2.55-2.18-1.07-.81-1.61-2.09-2.62-2.82-1.33-.97-2.73-1.09-3.82-2.61-.69-.96-1.15-2.12-2.07-2.85-.48-.38-1.05-.62-1.61-.85-.75-.31-1.5-.63-2.26-.94-.4-.17-.81-.33-1.24-.31-.66.03-1.26.5-1.92.44-1.02-.1-1.7-1.41-2.71-1.29-.54.07-.93.52-1.37.83-2.23,1.53-8.54-3.6-8.57.34,0,1.31.02,2.59-.51,3.87-.3.71-.23,1.64-.08,2.42.35,1.79.65,3.5-.28,5.26-.31.58-.05,1.46-.03,2.2.03,1.06.18,2.11.1,3.16Z"></path>
        <path fill="#EEEBE3" class="cls-1" d="M659.79,114.79c.52-.14,1.13-.2,1.52-.52.68-.56,1.18-1.33,1.82-1.95,1.2-1.16,2.44-2.28,3.66-3.41.07-.06.16-.09.24-.14,1.68-.98,2.8-2.33,2.83-4.41.01-.82.41-1.14,1.22-1.1,1.11.07,1.35-.16,1.67-1.21.22-.71.6-1.37.9-2.06.1-.22.26-.45.26-.67-.02-.9.42-1.42,1.2-1.75.58-.24.99-.65.81-1.35-.16-.63.06-.99.63-1.22.33-.14.63-.36.95-.51.71-.32.9-.87.69-1.59-.09-.32-.28-.61-.39-.93-.5-1.53,1.05-3.34,2.61-3.05,1.52.28.16-1.81.11-2.54-.09-1.35.43-2.75,1.45-3.65.33-.29.71-.53.95-.9.57-.84.24-1.96-.04-2.93s-.42-2.19.36-2.84c.28-.23.65-.35.92-.6.5-.47.5-1.3.19-1.91-.48-.96-2.19-1.29-1.63-2.25.38-.66,1.43-.79,1.81-1.42.15-.25.17-.55.18-.83.05-1.03.54-3.58-.4-4.34-.16-.13-.38-.2-.53-.34-.25-.24-.27-.62-.27-.96-.02-1.07-.03-2.14-.04-3.21-.02-1.5-.04-3.01-.38-4.47-.31-1.34-.87-2.6-1.15-3.94-.28-1.33-.04-2.31.3-3.57.26-.94.26-1.89-.34-2.71-.39-.52-.75-1.15-.85-1.77-.22-1.28-.27-2.6-.4-3.9-.02-.23-.05-.54.16-.69.12-.09.26-.07.4-.11.15-.05.26-.25.29-.4.03-.16,0-.33-.06-.48-.05-.11-.12-.21-.21-.28-.07-.05-.14-.09-.25-.15-1.24-.63-1.51-1.06-1.34-2.42.24-1.87-.41-3.83-1.71-5.2-.87-.9-2.55-1.48-2.7-2.87-.15-1.44-.68-2.06-2.05-2.35-1.39-.29-2.09-1.26-1.88-2.72.12-.85-.18-1.39-.85-1.87-.46-.33-.98-.74-1.18-1.23-.48-1.2-1.3-1.58-2.5-1.51-1.11.06-2.26-.13-3.03-.99-.87-.97-1.96-1.41-3.11-1.77-1.75-.54-3.24-1.47-4.5-2.83-.47-.51-.96-1.11-1.57-1.37-1.18-.52-1.91-1.46-2.68-2.4-.46-.57-.9-1.2-1.48-1.61-1.61-1.16-3.02-2.78-5.32-2.48-.37.05-.84-.19-1.16-.43-.77-.57-1.6-.83-2.53-.86-.77-.03-1.49-.2-1.89-1.02-.23-.46-.61-.51-.91-.04-.34.53-.77.49-1.27.3-.37-.13-.78-.39-1.11-.32-.91.19-1.66.04-2.36-.58-.13-.11-.57-.11-.63-.02-.56.92-1.48.77-2.29.77-.62,0-1.1.08-1.51.61-.33.43-.77.58-1-.12-.25-.78-.71-.61-1.2-.3-.5.33-.95.8-.97,1.44-.01.31.08.61.21.88.14.29.45.53.43.87,0,.17-.07.33-.16.47-.09.16-.22.35-.39.44-.28.16-.24.03-.46-.01-.4-.08-1.01-.24-1.39-.02-1.12.66-2.17.21-3.25.06-1.08-.15-1.14-.32-.78-1.35.09-.27.05-.68-.1-.91-.1-.15-.53-.18-.78-.11-.99.26-1.36-.02-1.37-1.11,0-.77-.62-1.23-1.34-.99-.26.08-.49.33-.73.34-.22.01-.66-.21-.66-.31.05-1.07-1.04-1.09-1.49-1.69-.08-.1-.43-.1-.59-.02-.79.4-1.56.84-2.34,1.27-.13.07-.29.18-.41.16-.96-.17-1.76.15-2.55.68-.3.2-.76.23-1.14.24-1.47.02-2.55.82-3.63,1.69-.5.4-1.09.75-1.7.92-1.34.37-2.75.47-3.82,1.56-.16.16-.59.21-.81.11-1.19-.53-1.18-.55-2.16.45-.06.07-.14.12-.21.18-.89.76-1.81,1.48-2.65,2.3-.47.45-.85.52-1.45.29-.4-.16-.95-.15-1.36-.01-.8.25-1.54.68-2.33.96-.63.22-.97.52-.63,1.2.29.57.15.91-.48.93-1.47.04-2.14,1.03-2.55,2.24-.23.66-.57,1.11-1.19,1.4-1.35.63-2.36,1.57-2.76,3.1-.08.29-.36.58-.63.75-1.94,1.27-3.04,3.1-3.74,5.28-.27.84-.7,1.74-1.32,2.31-.79.74-1.53,1.43-1.97,2.46-.16.36-.62.58-.96.85-.46.36-.96.68-1.39,1.07-.27.24-.39.7-.68.84-1.02.51-.99,1.3-.78,2.25.24,1.1-.04,2.03-.92,2.81-.36.32-.55.84-.77,1.3-.18.38-.33.79-.41,1.2-.08.43-.18.9-.08,1.31.28,1.15.14,2.2-.29,3.31-.36.91-.41,1.94-.66,2.9-.14.56-.25,1.24-.61,1.61-.86.89-1.13,1.86-.86,3.02.15.65.2,1.23-.24,1.83-.13.18.03.87.13.89.79.16.7.7.68,1.27,0,.43-.02.88.11,1.27.29.85.14,1.54-.42,2.22-.45.54-.47,1.13.07,1.64.52.49.53,1,.3,1.66-.13.37-.08.95.14,1.26.47.67.39,1.22.16,1.96-.22.7-.26,1.58-.04,2.27.19.61.38,1.11.18,1.74-.29.92-.47,1.93.1,2.76.88,1.28,1.84,2.48,2.12,4.07.1.58.31,1.14.42,1.72.11.57.14,1.15.22,1.72.08.51.28,1.02.27,1.53-.02,1.83.63,3.3,1.92,4.59.57.57.98,1.4,1.25,2.18.74,2.1,1.41,4.23,2.02,6.37.48,1.67,1.65,2.86,2.87,3.81,1.51,1.17,2.52,2.62,3.37,4.24.76,1.43,1.78,2.54,3.21,3.27,1.41.72,2.57,1.7,3.4,3.09.23.38.69.84,1.07.87,1.01.09,1.77.55,2.49,1.19.72.64,1.51,1.12,2.55.89.61-.14.96.27,1.18.79.28.67.8.89,1.46,1.09.64.18,1.2.62,1.8.94.39.21.78.57,1.18.57,1.2.01,2.24.42,3.28.96.64.34,1.29.71,1.98.91,1.17.34,2.34.62,3.14,1.67.13.17.41.24.64.33,1.08.4,2.14.9,3.25,1.16,1.71.39,3.29,1.45,5.15,1.16.66-.05,1.33-.07,1.99-.15,2.01-.24,2.68-1.62,1.76-3.42-.28-.54-.51-1.21-.45-1.79.14-1.4.79-2.83.6-4.16-.17-1.2-.28-2.29.02-3.45.09-.37.16-.74.21-1.12.07-.43.25-.9.13-1.29-.29-.99-.27-1.92.05-2.88.11-.33.22-.78.08-1.06-.68-1.43-1.38-2.86-2.18-4.22-.39-.65-.69-1.24-.64-2.03.02-.36-.24-.92-.55-1.1-1.25-.75-2.45-1.62-3.99-1.71-.52-.03-1.05-.28-1.54-.5-.36-.17-.8-.39-.98-.71-.42-.74-.89-.99-1.71-.66-.77.31-1.38.01-1.67-.79-.85-2.38-2.49-4.22-4.21-5.93-1.78-1.77-2.67-3.95-3.49-6.22-.21-.58-.26-1.18-1.03-1.35-.19-.04-.34-.45-.44-.72-.17-.45-.3-.92-.41-1.39-.39-1.59-.98-3.15-.55-4.86.27-1.07.1-2.08-.64-3.03-.4-.52-.6-1.26-.72-1.93-.27-1.51-.47-3.03-.6-4.56-.06-.67,0-1.4.21-2.04.35-1.08.6-2.14.08-3.21-.37-.75-.24-1.37.22-2.05.91-1.31,1.57-2.73,1.81-4.36.1-.68.64-1.28.93-1.94.27-.62.45-1.27.68-1.91.15-.42.19-.98.48-1.22,1.2-.96,1.29-2.8,2.8-3.48.11-.05.18-.25.21-.4.34-1.39.7-2.78.98-4.19.18-.91.55-1.6,1.47-1.91.3-.1.68-.26.84-.51.62-1.01,1.58-1.21,2.62-1.4.49-.1,1.09-.47,1.34-.89.64-1.11,1.29-2.03,2.77-1.63.08.02.18-.01.27-.04,1.97-.59,3.77-1.4,4.53-3.57.29-.84.88-1.14,1.72-.86.82.27,1.49,0,2.07-.58.8-.81,1.56-1.66,2.38-2.46.47-.46.63-.81.1-1.38-.18-.19-.18-.87-.01-1.01.27-.22.76-.26,1.13-.19.23.04.46.39.59.65.36.74.67,1.5.99,2.26.24.59.28,1.45,1.28.82.1-.06.32-.03.44.04,1.17.63,2.35,1.25,3.49,1.94,1.09.66,1.88,1.7,3.29,1.98.96.19,1.96.91,2.3,2.04.24.77.7.98,1.43.92,1.14-.09,2.02.38,2.5,1.46.41.92,1.12,1.38,2.08,1.59,1.36.3,2.38,1.08,3.19,2.25.93,1.33,2.05,2.49,3.61,3.11.3.12.56.46.75.76,1.16,1.79,2.28,3.61,3.46,5.39.35.52.95.88,1.28,1.41,1,1.59,2.04,3.17,2.84,4.87.76,1.63,1.23,3.39,1.83,5.1.03.08.03.18.03.27-.05,1.55-.47,3.09-.03,4.64.02.08,0,.18-.03.27-.54,1.72-1.01,3.47-1.65,5.15-.89,2.35-1.44,4.71-1.35,7.26.03,1.01-.2,2.24-.77,3.03-1.96,2.72-3.58,5.62-5.03,8.62-.44.92-.74,1.93-.98,2.93-.29,1.23-.92,1.87-2.15,2-2.18.23-3.94,1.58-5.92,2.33-.16.06-.27.25-.41.35-1.14.79-2.24,1.66-3.45,2.33-2.19,1.21-4.54,2.15-6.12,4.27-.22.3-.6.53-.95.68-.85.36-1.33.99-1.6,1.87-.16.51-.43,1.03-.78,1.43-.46.53-.54,1.03-.33,1.68.57,1.72.71,3.45.27,5.25-.12.49.15,1.1.29,1.64.13.46.59.99.48,1.34-.36,1.11.03,2.12.13,3.17.11,1.16.15,2.33.33,3.48.26,1.61,1.48,2.25,3,1.84,1.28-.34,2.6-.49,3.9-.75.82-.17,1.64-.36,2.45-.6,2.81-.82,5.58-1.89,8.44-2.44,2.83-.54,5.35-1.44,7.5-3.39.37-.34,1.12-.61,1.54-.46,1.09.39,2.01.08,2.98-.3.44-.17.94-.2,1.4-.32ZM624.14,13.87c-.72,1.02-.84,2.25-.85,3.6,0,.49-.11,1.06-.43,1.32-.43.35-.82-.19-1.17-.5-.26-.23-.54-.5-.65-.91-.09-.34-.05-.72.03-1.06.2-.84.63-1.54,1.11-2.1.43-.51.71-1.13,1.18-1.6.17-.17.67-.12.75.06.13.31.17.99.03,1.19ZM624.08,10.81c-.08.23-.56.64-.74.63-.35,0-.85-.2-.87-.41-.1-.98.02-2.12,1.2-2.96.28-.2.7-.38.94-.24.61.33-.34,2.44-.53,2.98Z"></path>
        <path fill="#EEEBE3" class="cls-1" d="M551.62,112.81c.43-.53.28-1.07-.03-1.63-.55-.99-1.02-2.03-1.53-3.04-.15-.28-.3-.57-.51-.81-.91-1.02-1.9-1.97-2.73-3.03-.8-1.01-1.69-2.06-2.1-3.24-.53-1.51-1.58-2.67-2.31-4.03-.14-.26-.48-.44-.77-.6-1.9-1.05-2.76-2.75-3.25-4.71-.11-.44-.31-.94-.64-1.22-.97-.8-1.6-1.7-2.11-2.88-.68-1.59-1.8-3.02-2.87-4.42-.47-.62-1.03-1.1-.93-1.98.03-.23-.24-.51-.41-.75-.45-.62-.98-1.19-1.37-1.85-.58-.97,4.54-3.76,5.15-3.98.17-.06.41-.32.46-.57.15-.89.56-1.18,1.01-1.35.38-.14.66-.46.95-.89.62-.92,1.18-2.03,2.12-2.15.35-.05.65-.5.68-1.13.05-1.08.47-1.56.99-1.91.41-.28.67-.75.92-1.37.29-.72.71-1.3,1.07-1.95.17-.3.32-.62.47-.95.08-.17.11-.39.18-.55.32-.7.66-1.37.98-2.08.06-.13.06-.36.05-.54-.07-1.16-.07-1.14.58-1.45.15-.07.38-.39.36-.55-.09-1.04.24-1.42.76-1.64.37-.16.55-.53.54-1.24,0-.39.21-.78.32-1.17.11-.38.24-.74.34-1.12.07-.29.1-.62.15-.93.21-1.23.59-2.41.27-3.78-.06-.26.03-.71.14-1,.26-.74.24-1.39-.1-2.02-.18-.33-.23-.66-.02-1,.34-.55.29-1.13.12-1.79-.27-1.05-.97-2.13-.6-3.24.14-.43.41-.83.38-1.28-.02-.28-.15-.53-.25-.78-.57-1.43.03-2.96-.46-4.44-.41-1.24-1.23-2.55-2.39-3.21-.6-.34-1.35-.49-1.77-1.04-.45-.59-.33-1.43-.6-2.13-.4-1.03-1.46-3.3-2.92-2.97-.22.05-.46-.21-.69-.34-.37-.2-.73-.51-1.11-.59-2.29-.49-4.48-3.6-6.9-3.03-1.28.3-2.17-.33-3.41-.58-1.21-.25-2.42-.47-3.63-.72-1.82-.36-3.67-.87-5.52-1.05-.54-.05-1.06-.32-1.6-.43-.31-.07-.79-.16-.94-.01-.77.77-1.7.67-2.64.62-1.66-.1-3.31-.21-4.96-.33-.63-.05-1.25-.14-1.87-.22-1.22-.17-2.34-.85-3.67-.33-1.09.42-4.19.43-5.23-.31-.2-.14-.52-.2-.77-.18-1.51.11-2.92.57-3.93,1.69-.4.44-.41,1.22-.6,1.84-.03.11-.07.22-.09.34-.16,1.18-.31,2.35-.47,3.53,0,.03,0,.06.01.09.57.97-.39,7.57-.46,8.32-.05.59.12,1.4-.96,1.65-.1.02-.21.32-.16.45.32.89.65,1.78,1.05,2.65.41.88,1.27,1.13,2.38.83.35-.1-.2-.18.11-.12,1.48.3,4.89.44,6.37,0,.24-.07.55-.01.82.03.47.08.92.23,1.38.28.83.09,1.66.15,2.49.19.51.02,1.03-.06,1.54-.03.55.03,1.09.13,1.63.19.6-.07,1.18-.07,1.52.48.31.51.83.64,1.43.73.61.09,1.2.27,1.79.46.89.28,1.75.66,2.65.9.93.24,1.57.62,1.67,1.54.03.25.28.47.39.71.17.37.4.73.47,1.11.33,1.67.77,3.29,1.78,4.77.18.26.15.86-.07,1.08-.76.73-1.75,1.28-2.44,2.05-.56.63-1.32,1.08-1.82,1.65-.51.59-.97,1.18-1.66,1.62-.17.11-.3.3-.4.47-.54.87-1.66,1.29-2.77,1.16-.64-.07-1.31.06-1.97.09-.39.02-.8.07-1.17,0-.53-.1-.88-.01-1.25.37-.22.22-.68.38-1.01.35-.89-.07-1.76-.26-2.64-.37-.39-.05-.89-.13-1.16.04-.69.43-1.42.39-2.16.36-.66-.02-1.32-.18-1.98.11-.16.07-.54-.08-.71-.23-.43-.4-.86-.32-1.37-.15-.52.18-.22.28-.8.42-.18.04-.41.06-.52.15-.24.22-.54.33-.86.36-.31.03-.7-.15-.93.08-.16.16-.23.41-.16.63.02.06.98,1.04.97,1.04-.23-.07-.46.12-.55.34-.09.22-.08.47-.14.7-.13.57-.6,1.01-.72,1.57-.1.45.02.91.11,1.36.24,1.21.23,2.46.22,3.7,0,.95-.54,1.81-.62,2.76-.04.45-.04.77-.13,1.19-.1.46-.37.66-.18,1.22.16.49,1.12.64,1.11,1.06,0,.35-.37.51-.62.68-.91.62-.96.93-.38,1.89.27.44.56.95.56,1.43,0,.81.31.95,1.08,1.12,1.13.24,2.62-.06,3.19,1.46.06.15.47.2.72.25,1.42.23,2.69,1.48,3,2.85.11.47.41.99.79,1.28.53.39.8.75.82,1.43.03,1.19.8,1.69,2.01,1.53.26-.04.7.11.82.31.6.99,1.1,2.04,1.7,3.03.15.25.53.51.81.53,1.43.08,1.82.35,1.7,1.73-.14,1.69.48,2.88,2.02,3.65.05.03.12.06.15.1.32.46.78.89.92,1.41.31,1.11.52,2.2,1.73,2.81.51.26.75.78.6,1.44-.17.73.43,1.88.99,1.85,1.15-.05,1.29.77,1.73,1.47.63,1.03,1.36,2.02,2.21,2.89.72.74,1.24,1.68.93,2.61-.18.55.15.69.53.93.77.5,1.64.95,2.19,1.63.84,1.03,1.86,1.44,3.12,1.43.87,0,1.79-.32,2.6-.13,1.3.3,2.44-.21,3.65-.29.36-.02.81,0,1.08.19.64.44,1.23.4,1.96.22,1.55-.39,3.13-.92,4.74-.12.24.12.73.1.92-.06.94-.81,1.81-.5,2.74,0,.86.46,1.74.26,2.37-.43.1-.11.29-.18.45-.2.82-.1,1.64-.2,2.46-.27.56-.05,1.15-.18,1.67-.06.72.17,1.26.02,1.68-.51Z"></path>
        <path fill="#EEEBE3" class="cls-1" d="M450.58,23.06c.13,2.28-.28,4.94-.3,6.25-.01.77.07,1.55.1,2.32.01.3.04.61.02.91-.08,1.33-.25,2.66-.26,4-.02,2.8.07,5.59.08,8.39,0,.73-.14,1.46-.21,2.19.07.01.13.03.19.04-.2.91-.42,1.82-.58,2.73-.1.55-.35,1.28-.11,1.66.73,1.14.45,2.12-.08,3.17-.26.51-.33,1.04.1,1.53,1.02,1.15.93,2.43.4,3.76-.13.32-.28.76-.17,1.04.78,1.89.05,3.85.32,5.76.18,1.31.02,2.66-.02,3.99,0,.36-.1.72-.14,1.07-.06.48-.12.96-.17,1.43-.07.66-.14,1.32-.19,1.98-.08,1.08-.27,2.18-.15,3.23.11.99.22,1.94-.2,2.85-.25.54-.26.96.12,1.43.45.53.46,1.12.24,1.8-.32.97-.57,1.97-.73,2.98-.06.36.14.82.34,1.16.51.88.45,2.02-.21,2.8-.67.78-.62,1,.01,1.79.21.26.23.72.25,1.1.04.58-.02,1.16,0,1.75,0,.36.13.72.1,1.07-.1,1.01-.21,1.95-.03,3.01.29,1.77.16,3.64.02,5.46-.06.83-.5,1.66-.87,2.44-.39.82.04,2.57.8,2.88.87.35.89.57.25,1.25-.3.32-.65.82-.61,1.2.13,1.22.41,2.43.7,3.63.16.69.61,1.13,1.36,1.3.78.17,1.54.47,2.31.69.31.09.79.27.92.13.68-.72,1.48-.47,2.28-.49.4,0,.84-.15,1.18-.36.83-.5,1.59-.53,2.31.16.53.5,1.79.54,2.44.27.28-.11.58-.16.87-.24,1.32-.37,2.7.73,4.01-.14.05-.03.17.04.25.09.93.52,1.87.73,2.91.27.28-.13.66,0,.99-.03.66-.05,1.31-.14,1.97-.18.9-.06,1.81-.19,2.7-.11,1.27.1,1.78-.29,1.82-1.59.04-1.03.14-2.05.17-3.08.01-.35-.14-.7-.18-1.05-.07-.49-.2-1-.14-1.48.25-1.77.57-3.52.86-5.28.01-.09,0-.18-.02-.27-.18-2.22-.39-4.43.18-6.63.07-.26.1-.57.02-.82-.54-1.61-.32-3.26-.21-4.89.21-3.15-.23-6.31.22-9.46,0-.03,0-.06,0-.09-.12-1.76-.25-3.51-.35-5.27-.02-.33-.08-.74.08-.99.65-1.01.45-2.19.19-3.11-.46-1.65-.21-3.29-.18-4.87.05-2.82-.25-4.46.2-7.29.02-.14-.17-1.77-.18-1.92-.2-1.66.12-3-.13-4.66-.29-1.93-.04-3.93-.02-5.91,0-.18-.02-.37-.04-.55-.17-1.04.33-2.08.18-3.12-.08-.54-.3-1.16-.14-1.62.42-1.22-.12-2.33-.15-3.49-.04-1.79-.11-3.58-.11-5.36,0-1.67.2-3.35.15-5.02-.08-2.45-.36-4.89-.46-7.34-.05-1.33.07-2.68.17-4.02.04-.56-.4-1.1-.32-1.66.07-.45.24-1.1.02-1.33-.32-.33-.93-.41-1.43-.5-.49-.08-1-.01-1.5-.05-.36-.02-.71-.16-1.07-.16-1.68.03-3.36.13-5.04.15-1.86.03-3.73,0-5.59,0-.18,0-.36-.06-.54-.05-.59.02-2.54.03-3.12.09-.59.06-1.19.3-1.76.24-1.26-.12-2.28-.04-3.48.28-1.04.28-2.01.15-3.1.34-1.04.18-1.95.97-2.28,1.97-.05.15-.09.32-.01.47.07.13.2.19.33.27,1.03.6,1.41,2.06,1.5,3.72Z"></path>
        <path fill="#EEEBE3" class="cls-1" d="M88.97,77.52c-.89.11-1.77.23-2.64.37-.86.14-.74.14-1.27-.88-.51-.97-1.02-1.95-1.52-2.93-.08-.16-.17-.36-.16-.52.2-1.89.06-3.86,1.43-5.51.92-1.11,1.01-2.26.54-3.5-.9-2.36-1.4-4.75-.91-7.26.21-1.1.1-2.25.24-3.36.12-1.01.73-1.8,1.71-2.4.56-.35,1.05-.4,1.55,0,1.09.88,2.29.82,3.54.34.31-.11.61-.22.92-.33,1.2-.42,1.39-1.53.38-2.24-.42-.3-.88-.56-1.28-.88-.4-.32-.44-.69-.11-1.12.65-.86.38-1.84-.73-2.28-.88-.34-1.05-.86-1.26-1.62-.23-.81-.82-1.65-1.53-2.21-.99-.77-2.01-1.45-2.68-2.5-.33-.52-1.08-.93-1.74-1.2-1.35-.54-2.5-1.25-3.38-2.3-.25-.29-.55-.62-.92-.74-.46-.16-1-.17-1.51-.18-.58-.01-1.2.17-1.74.05-1.35-.3-2.67-.47-4.1-.42-2.2.08-4.42-.09-6.62-.21-1.67-.08-2.15-.54-2.29-2-.19-2.06-.34-10.72-.56-13.13-.3-3.27-.64-6.53-.97-9.79-.24-2.38,1.07-3.63,3.41-3.34.78.1,1.59-.03,2.39-.02.29,0,.62.03.87.16.89.48,1.73.35,2.62,0,.45-.17.99-.26,1.47-.19,2.69.4,5.37.83,8.05,1.31,1.72.31,3.41.75,5.13,1.08.48.09,1-.03,1.5.02.47.05,1.14.03,1.37.33,1.15,1.47,2.76,1.78,4.42,2.07.66.11,1.31.24,1.96.38,1.03.23,1.89.63,2.48,1.65.66,1.15,1.86,1.44,3.1,1.32,1.08-.11,1.89.1,2.59,1.06.7.96,1.85,1.09,2.97,1.08.64-.01,1.06.15,1.35.81.21.47.66.87,1.08,1.2,1.43,1.1,2.54,2.44,3.35,4.06.71,1.42,1.43,2.84,2.2,4.22.15.28.54.43.81.65.36.29.79.54,1.06.91.46.62.87,1.3,1.19,2,.1.21-.06.67-.25.86-.5.49-.82.85.07,1.28.22.11.37.59.38.91.04,1.15-.02,2.3,0,3.45.02,1.65.2,3.16,1.67,4.37,1.05.87.81,2.4.61,3.66-.19,1.23.11,2.17,1.05,2.93.72.58,1.03,1.35,1.02,2.25,0,.64-.1,1.29-.08,1.93.02.63.12,1.27.22,1.89.18,1.14.59,2.28.54,3.4-.1,2.58.42,4.99,1.34,7.35.24.63.25,1.17-.18,1.72-.46.59-.34,1.19.07,1.78.4.57.88,1.12,1.13,1.76.15.37.08.98-.13,1.32-.34.54-.55.84.18,1.2.21.1.32.61.29.92-.02.27-.29.52-.47.76-.71.98-1.26,1.97-1.06,3.29.09.62-.22,1.3-.37,1.95-.26,1.06-.5,2.13-.82,3.17-.11.35-.39.75-.7.91-.51.26-.73.6-.71,1.15.09,2.33-.64,4.39-1.95,6.28-.27.39-.39.89-.63,1.31-.3.52-.57,1.12-1.01,1.49-.54.45-.81.9-.88,1.6-.05.52-.26,1.08-.54,1.53-1.06,1.72-2.16,3.4-2.7,5.39-.08.29-.35.62-.62.73-.72.31-1.05.86-1.3,1.55-.14.4-.33.81-.61,1.11-.49.54-.71,1.11-.6,1.84.09.64-.21,1.06-.76,1.44-.48.33-.95.79-1.2,1.3-.35.73-.85,1.16-1.57,1.4-.63.21-1.27.42-1.88.68-1.03.44-1.78,1.16-2.12,2.26-.25.8-.63,1.2-1.54.86-.7-.26-1.28.03-1.51.76-.37,1.14-1.19,1.69-2.28,2.03-.68.21-1.3.62-1.95.94-.65.32-1.27.75-1.95.95-2.38.69-4.77,1.36-7.18,1.94-2.88.68-5.76,1.35-8.68,1.85-1.81.31-3.68.25-5.52.46-.92.1-1.84.37-2.71.69-.99.36-1.94.42-2.93.12-.9-.27-1.82-.48-2.69-.81-.46-.18-.96-.48-1.24-.87-1.13-1.56-1.65-3.27-.91-5.18.63-1.63.83-3.33.76-5.05-.11-2.73-.12-11.37.35-13.69.12-.61-.02-1.26.08-1.88.06-.4.24-.86.56-1.13.64-.55,1.41-.99,2.13-1.47,1.07-.71,2.21-1.23,3.56-1.47,1.68-.3,3.31-.81,4.97-1.17.37-.08.88,0,1.2.18.71.4.93.39,1.28-.3.11-.21.2-.44.34-.64.6-.84,1.3-.91,2.13-.22.77.64,1.09.66,1.8-.01.61-.57,1.1-1.12,2.2-.66.68.29,1.35-.48,1.14-1.18-.3-.96-.25-1.06.78-1.49.19-.08.38-.16.58-.23,2-.69,3.35-1.86,3.74-3.74.1-.49.29-.69.9-.53.17.04.12-.03.27-.14.47-.34.86-.8,1.1-1.33.3-.64.46-1.28.89-1.86.38-.5.92-.82,1.14-1.44.22-.64-.22-.83-.76-.78-1.06.11-2.13.22-3.19.35Z"></path>
        <path fill="#EEEBE3" class="cls-1" d="M48.98,118.14c-1.03-4.46-.69-8.86,1.18-13.19.15-.36.26-.84.04-1.14-.69-.94-.39-1.9-.45-2.88-.11-1.76-.19-3.56-.78-5.26-.47-1.35-.56-2.63-.47-3.98.18-2.63.25-5.26.29-7.9.01-.89-.22-1.77-.32-2.66-.1-.9.27-1.11,1.47-.96.79.1,1.62.1,2.42.15.56.04.82-.06.89-.53.15-1.06.8-1.25,2.04-.65.57.27,1.1.61,1.72.81,1.07.34,2.13-.07,1.92-.74-.49-1.56.69-2.61,2.12-3.51,1.92-1.22,2.07-1.65,1.39-3.43-.4-1.04-.76-2.2-.49-3.22.36-1.35.26-2.57-.54-3.75-.62-.92-.43-1.7.01-2.63.71-1.5,1.15-3.06,1.61-4.61.11-.36-.07-.8-.26-1.16-.35-.68-.71-1.08-.73-1.89-.03-1.52.03-3.04.18-4.55.03-.27.06-.55-.03-.81-.36-1.07-1.8-1.29-2.7-1.04-.51.14-.94.5-1.46.57-.93.12-1.95.25-2.84.1-.9-.15-1.53-.15-2.22.31-.3.2-.39.62-1.21.28s-1.71-1.61-2.53-2.43c-.06-.06-.02-.2.04-.27.96-1,.64-2.02.19-3.07-.12-.28.05-.62-.03-.91-.18-.67-.29-1.38-.7-1.98-.46-.68-.64-1.35-.04-1.91,1.38-1.29,1.03-2.57.25-3.9-.66-1.13-.82-2.28-.66-3.51.23-1.82.37-3.66.32-5.49-.04-1.34-.66-2.67-.68-4.01-.05-2.94.08-5.88.22-8.83.04-.85.45-1.68.56-2.53.08-.68.26-1.48-.12-2.04-1.01-1.47-2.29-2.86-3.52-4.26-.54-.61-1.36-.82-2.43-.81-1.83.02-3.72.1-5.22-.97-.27-.2-1.04-.07-1.58-.05-.89.03-1.78.18-2.66.14-1.37-.06-2.5.12-3.53.84-.48.33-1.36.54-2.05.53-1.28-.01-2.55-.22-4.38-.4-.6.22-1.74.47-2.6.96-2.39,1.39-3.1,3.25-2.95,5.42.21,3.24.19,6.49.18,9.74,0,1.83-.2,3.67-.29,5.5-.1,1.88-.16,3.76-.27,5.64-.01.21-.12.44-.29.6-.99.91-1.28,1.83-.34,2.87.24.28.17.72.16,1.08-.08,2.12-.18,4.23-.3,6.34-.14,2.53.69,5.09-.41,7.59-.1.24.21.58.08.81-.19.34-.59.89-.9.89-2.04,0-4.15.28-6.08-.5-.36-.15-.98-.24-1.31-.12-1.62.56-3.28,1.11-4.72,1.86-.69.36-1.1,1.14-1.3,1.78-.22.72.83.79,1.52,1.01.86.27,1.56.72,1.24,1.42-.62,1.33-.91,2.86-3.44,3.25-.48.07-1.2.95-1.14.99,1.06.78,1.2,1.86,1.86,2.76.02.03.07.04.1.06.83.48.73.95-.12,1.33-.82.36-1.05.87-.93,1.49.11.57.34,1.14.37,1.71.02.54.02,1.14-.28,1.62-.35.57-.36,1.03.4,1.23,2.29.59,2.26,2.24,3.16,3.43.42.55.76.9,1.61.99,1.28.12,2.59.18,3.83.4.57.11,1.28.49,1.47.86.53,1.06.43,1.08,1.85.62.27-.09.55-.17.84-.23,1.2-.24,1.72,0,1.75.91.03.76-.03,1.53-.1,2.3-.27,2.87-.58,5.72.17,8.61.45,1.75.23,3.6.18,5.4-.04,1.53-.33,3.05-.41,4.58-.14,2.51.08,5.05-.37,7.53-.66,3.59.28,7.32-1.92,10.79-.46.72-.33,1.76.9,2.21,1.39.5,1.95,1.28,2.39,2.25,1.03,2.27,3.94,3.19,7.13,2.4.67-.17,1.49-.04,2.25-.04,1.18,0,2.45.2,3.53-.03,1.5-.32,2.84-.41,4.23.11.93.35,1.76.2,2.69-.1,1.2-.38,2.49-.66,3.78-.86,1-.16,2.06-.18,3.09-.21,4.25-.1,6.08-2.74,5.52-5.16Z"></path>
        <path fill="#EEEBE3" class="cls-1" d="M140.59,63.01c-.31.53-.79.99-.99,1.59-.5,1.49-.06,3.1-.4,4.62-.6,2.62-.37,3.73.89,6.16.64,1.24,1.13,2.73.56,4-.22.5-.6.93-.86,1.41s-.4,1.09-.15,1.58c.18.34.55.6.56.98.01.31-.22.57-.37.83-.65,1.11.21,2.62.73,3.64.28.53.21.86-.24,1.14-.57.35-.76.86-.65,1.46.17,1,.36,2,.6,2.98.17.71.47,1.38-.25,1.98-.95.79-.94.9-.05,1.83.62.64.66,1.2-.04,1.76-.78.63-.95,1.3-.58,2.21.59,1.43.68,2.87.18,4.38-.23.67-.13,1.47-.07,2.21.1,1.25,1.04,2.47.05,3.76-.12.15,0,.47-.02.71-.05,1.93,1.02,3.6,1.34,5.44.03.18.23.35.38.5,1.13,1.17,2.55,1.19,4.05,1.03,1.08-.11,2.21-.28,3.24-.07,1.01.21.56.26,1.6.2,1.27-.08,2.58.1,3.87.16,1.33.06,2.57-.03,3.84-.31.69-.15-.63-.16.08-.16.92,0,1.85.08,2.77.09.97,0,1.98-.2,2.89,0,.11.02.13.04.1.06.58.01,1.17.06,1.74-.02,1.04-.14.7-.46,1.74-.63,1.58-.27,3.14-.56,4.78-.28.99.17,2.05.13,3.06.03,1.74-.18,3.48-.45,5.2-.77.56-.1,1.16-.38,1.57-.77.41-.39.63-.33,1.07-.11.51.26,1.1.45,1.68.51,1.9.22,3.8.37,5.7.55,1.44.14,2.85.52,4.34.2,1.04-.23,2.16-.41,3.21-.29,1.3.14,2.56.33,3.88.16,1.32-.17,2.67-.2,4-.14,2.33.1,4.66.38,6.99.47,2.21.08,4.43.04,6.65,0,.72-.01,1.43-.34,2.14-.31,1.32.06,2.64.3,3.96.44.9.1,1.89.41,2.69.17,1.09-.34,2.08-.2,3.13-.06.57.08,1.15.14,1.72.13,1.18-.03,2.37-.11,3.55-.17,1.43-.07,2.88,0,4.28-.24,1.82-.31,3.61-.39,5.44-.17,1.68.21,2.32-.4,2.23-2.06-.01-.21-.03-.42-.05-.63-.07-1.23-.2-2.47-.2-3.7,0-1.08.26-2.16.18-3.23-.11-1.52.19-3.1-.48-4.57-.1-.23-.07-.55,0-.81.4-1.84-.31-3.09-2.01-3.85-.11-.05-.21-.12-.31-.19-.89-.71-1.83-.75-2.9-.4-.6.19-1.29.17-1.93.14-1.27-.08-2.53-.34-3.8-.35-6.49-.04-12.98,0-19.46-.02-2.82,0-5.66.14-8.43-.56-.82-.21-1.44,0-2.13.38-.51.28-1.15.47-1.72.46-3.26-.05-6.51-.21-9.77-.26-1.09-.02-2.18.16-3.26.3-.65.09-1.19.03-1.65-.5-.57-.66-1.19-.63-1.95-.23-.76.4-1.59.74-2.43.93-1.03.22-2.11.22-3.15.39-.71.11-1.06-.06-.97-.82.03-.27.04-.54.07-.81.16-1.64.32-3.29.49-4.93.14-1.35.12-2.73.45-4.03.91-3.58,1.28-7.21,1.21-10.89-.02-1.11.3-1.28,1.41-1.04.97.21,1.98.42,2.96.38,2.3-.08,4.6-.33,6.91-.49,1.52-.1,3.04-.13,4.56-.24,3-.21,6-.44,9-.68.58-.04,1.09-.03,1.29.68.05.17.34.38.53.39.67.03,1.34,0,2-.06.45-.04.78-.23.81-.79.02-.25.32-.62.54-.67.26-.05.62.16.85.35.19.16.2.58.4.67.34.16.99.34,1.15.22s.07-.61-.06-.82c-.34-.59,0-.79.46-.86.63-.11,1.27-.22,1.9-.18,1.46.1,3.58.58,4.16.42.72-.2.96-2.63,1.04-3.23.18-1.36.79-2.86.79-4.23,0-.93-.43-1.79-.74-2.66-.52-1.48-.41-3.23.91-4.23.75-.57.52-2.28-.32-2.71-1.14-.59-2.2-1.36-3.58-1.39-.5-.01-1.05-.13-1.48-.37-.92-.52-1.78-.4-2.67.01-.25.11-.5.21-.76.31-.93.36-1.83.85-2.81.07-.2-.15-.58-.07-.88-.09-1.59-.1-3.19-.2-4.78-.29-1.39-.08-2.78-.22-4.17-.17-1.45.05-2.88.37-4.33.44-1.75.08-3.51.02-5.27.02-.9,0-1.82.12-2.7-.03-1.76-.31-3.49-.32-5.22.16-.95.26-1.47-.25-1.14-1.2.9-2.59,1.42-5.25,1.69-7.97.14-1.36-.78-3.37-2.01-3.97-.99-.48-1.47-1.26-1.3-2.11.18-.87.78-1.28,1.99-1.35.93-.06,1.64-.58,1.76-1.28.15-.88-.17-1.31-1.08-1.87-.63-.38-1.26-.87-1.68-1.46-.28-.4-.37-1.13-.2-1.59.11-.29.85-.37,1.31-.5.2-.05.42,0,.64.01,3.13.17,6.25.4,9.38.5,2.89.09,5.79-.01,8.68.08,3.13.1,6.26.33,9.39.49,2.46.13,4.92.25,7.38.35,3,.13,6.01.29,9.01.35,2.8.06,5.61.02,8.41,0,.46,0,.91-.08,1.37-.08,2.95-.01,5.92-.13,8.86.03,1.54.08,2.88-.18,4.18-.88.51-.28.88-.61.61-1.3-.1-.26.02-.66.15-.94.52-1.06-.06-2.41.22-3.63.28-1.26,1.03-2.22.57-3.52-.63-1.78,1.28-2.84.23-4.45-.7-1.07-1.05-2.22-.74-3.49.17-.7-.02-1.28-.59-1.67-.94-.65-1.93-1.23-2.91-1.81-.19-.11-.47-.15-.7-.13-1.45.15-2.89.33-4.34.5-1.42.16-.61-.86-1.25-1.49-.45-.46-1.87-.44-2.36-.16-.36.2-.63.55-.98.77-.77.48-2.4-.32-3.27-.35-2.74-.09-5.48-.1-8.22-.2-1.67-.06-3.34-.15-4.99-.39-.88-.13-1.65-.08-2.48.21-.47.16-1.09.16-1.56,0-1.54-.51-3.04-.68-4.6-.06-1.16.45-2.34.38-3.32-.5-1.31-1.18-1.67-1.17-2.79.14-.92,1.08-1.49,1.18-2.88.72-.49-.16-1.04-.12-1.57-.14-1.27-.03-2.55.01-3.82-.08-1.6-.12-3.19-.38-4.76.25-.38.16-.89.13-1.31.06-1.91-.34-3.78-.41-5.65.27-1.97.72-4.15.34-6.13.04-1.5-.22-2.7,1.2-4.13,1.68-.88.3-1.84.23-2.76.16-1.32-.1-2.36-.32-3.6-.68-.85-.25-1.66-.53-2.23.38-.12.19-.41.24-.61.27-.28.04-.55.11-.83.13-.66.05-1.32-.09-1.99-.15-.3-.03-.6-.04-.89-.12-.29-.09-.56-.26-.7-.53-.14-.28-.14-.6-.44-.77-.26-.15-.57-.09-.83.03-.88.39-1.76.82-2.67,1.12-.57.19-1.23.29-1.83.21l-1.09.26c-1.78.45-3.49.56-5.23-.11-.78-.3-1.42-.06-1.84.7-.33.61-.81.71-1.46.45-.95-.38-.55-.78-1.54-.98-.53-.11-1.31-.03-1.68.29-.82.72-1.74,1.05-2.75,1.27-.66.14-1.2.37-1.26,1.17-.02.2-.32.38-.5.55-.05.05-.18.03-.26.04-1.89.32-2.79,2.46-1.64,3.98.36.47.9.81,1.27,1.28.21.26.4.72.3.99-.2.59,0,.78.51,1.01.4.18.89.52,1.01.89.48,1.49-.02,2.27-1.54,2.74-1.01.31-.24,2.08-.17,2.93.16,1.92.2,3.67-.49,5.51-.13.33-.27.67-.27,1.03,0,1.33.16,2.74.18,4.09.02.98,1.43,2.76.51,3.06-.84.27-1.47.09-1.27.81.2.72-.12.89.27,1.72.28.61.26,1.31.18,1.98-.13,1.19.23,1.5-.29,3.03-.2.59-.12.88.3,1.24,1.21,1.04.12.65-.24,1.59-.29.75.55,1.46.33,2.46-.15.69-.7,1.31-.62,2.01.09.83.51,1.31.24,2.16-.04.14-.11.28-.18.41ZM182.85,107.25c-.25.83.12,2.44-.41,3.11-.6.74-1.32.18-1.49-.61-.35-1.54-.86-3.24-1.01-4.8-.09-.9.07-1.86.61-2.59.43-.57.86-2.22,1.69-2.2.85.02,1.15,1.29,1.21,1.95.14,1.74-.08,3.45-.59,5.14ZM180.98,111.56c.29-.02.66.1.89.29.37.31.69.71.97,1.11.38.55.19.96-.47,1.12-.74.18-1.3.58-1.66,1.25-.28.52-.68.55-.97.1-.44-.67-.88-1.23-.69-2.08.21-1,.88-1.73,1.94-1.79Z"></path>
        <path fill="#EEEBE3" class="cls-1" d="M161.64,119.2c1.01.03,1.93.05,2.02,0-.19,0-.39,0-.58,0-.48.02-.96,0-1.44,0Z"></path>
        <path fill="#EEEBE3" class="cls-1" d="M160.37,119.15c-.98-.04-1.69-.08-1.27-.05.43.03.85.03,1.27.05Z"></path>
        <path fill="#EEEBE3" class="cls-1" d="M347.22,28.65c-.01,1.76,1.19,3.13,2.99,3.32,1.89.19,3.8.19,6.27.29,4.04-.2,8.63-.4,13.22-.69.84-.05,1.68-.41,2.48-.73.61-.24.8-.77.71-1.44-.05-.38.1-.8.22-1.18.08-.26.38-.47.39-.72.04-1.2.29-2.49-.06-3.59-.38-1.24-.3-7.12.05-8.28.14-.45.3-1.03.13-1.41-.53-1.21-.26-2.34.11-3.48.2-.62.4-1.18-.47-1.47-.14-.05-.3-.29-.29-.43.08-.83-1.14-1.42-.44-2.35.02-.03-.04-.11-.06-.16-.76-1.51-2.07-2.27-3.78-1.95-2.26.41-4.49.46-6.78.38-3.71-.13-7.44.06-11.16.14-.65.01-1.3.13-1.94.26-1.27.27-1.55.66-1.4,1.92.18,1.61.41,3.21.59,4.82.32,2.85.13,10.49-.38,13.31-.2,1.13-.38,2.29-.39,3.44Z"></path>
        <path fill="#EEEBE3" class="cls-1" d="M750.93,109.93c-.07-.7-.78-1.7-1.72-1.36s-.95.93-1,1.09c-.33,1.1-.25,1.84-.63,2.92-.23.65-.74,1.08-1.48.94-.72-.13-.78-.78-.8-1.35-.08-2.02-.2-4.04-.16-6.06.05-2.5-.12-4.99-.04-7.48.03-1-.09-2.24.22-3.19.29-.88.97-1.73.8-2.71-.06-.34-.22-.65-.31-.98-.33-1.14.03-2.57.07-3.74.02-.71.15-1.43.14-2.14-.02-1.59-.21-3.18-.11-4.76.05-.87-.05-1.66-.2-2.5-.16-.87-.15-1.81-.03-2.69.22-1.63.63-3.22.85-4.85.19-1.39-.02-2.78-1.32-3.55-2.7-1.6-2.66-4.86-5.29-6.55-.64-.41-1.33-.75-1.9-1.26-.57-.51-1.02-1.23-.98-1.99.01-.23.07-.48-.01-.69-.07-.19-.24-.33-.39-.46-.59-.54-1.02-1.26-1.21-2.04-.38-1.56-1.32-2.44-2.15-3.76-1.33-2.12-2.61-4.28-4.03-6.34-1.6-2.32-2.52-4.92-2.86-6.18s-1.3-1.71-1.47-1.96c-.36-.5-.73-1-1.07-1.52-.41-.62-.68-1.39-1.21-1.85-.84-.73-1.26-1.61-1.49-2.64-.16-.73.18-1.08.9-.85,1.15.38,1.85,1.17,2.17,2.37.11.42.38.85.69,1.16.41.41.93.6,1.51.59.39-.01,1.18,0,1.44-.37.07-.1.08-.22.1-.33.05-.48-.1-.71-.33-1.11-.22-.37-.37-.78-.43-1.21-.04-.26-.33-.49-.51-.73-.43-.57-.83-1.17-1.31-1.71-.36-.41-.77-.87-1.25-1.06-1.28-.51-1.9-1.44-1.57-2.83.37-1.58.15-2.83-1.51-3.49-.14-.05-.26-.17-.36-.28-.11-.13-.27-.3-.27-.45-.03-.96-.52-1.59-1.28-2.08-.2-.13-.4-.32-.49-.53-.32-.71-.87-1.1-1.52-1.47-.41-.23-.79-.79-.88-1.27-.3-1.64-1.43-2.4-3.04-1.92-.4.12-.83.27-1.23.24-2.11-.14-4.22-.27-6.33-.13-.39.03-.8.03-1.15.19-1.01.46-2,.34-2.98-.04-.79-.3-1.46-.36-2.16.29-.34.31-.93.36-1.42.47-.35.08-.74-.03-1.08.07-1.68.5-3.39.58-5.82.31-1.44.1-6.15.25-8.28.43-.28.03-.73.37-.76.61-.04.4.08.91.33,1.22.84,1.09,1.86,2.04,2.65,3.17,1.77,2.51,3.5,5.04,5.14,7.64,4.04,6.41,7.84,12.96,12.43,19.02,6.92,9.12,10.19,18.77,16.29,28.47.3.48.47,1.13.49,1.71.06,1.55.01,3.1.01,4.65,0,5.73.01,11.47-.03,17.2-.02,2.21-.21,4.41-.3,6.61-.07,1.71-.09,3.43-.16,5.14-.04,1.12-.12,2.23-.21,3.35-.1,1.15-.24,2.3-.38,3.45-.06.48.12.7.6.64.36-.04.72-.08,1.07-.13.8-.13,1.6-.38,2.4-.39,3.18-.04,11.79,0,14.98,0,.42,0,.93.06,1.24-.15,1.16-.78,2.46-.72,3.75-.81.72-.05,1.51.03,2.14-.24.88-.38,1.59-.31,2.41.11.54.27,1.22.41,1.6-.29.48-.89,1.15-1.45,2.13-1.7.6-.15.87-.59.76-1.26-.14-.87-.25-1.75-.33-2.62ZM713.73,18.23c-.18.06-.54,0-.64-.14-.42-.61-.79-1.26-1.15-1.92-.03-.05.21-.35.34-.37.69-.08,1.85,1.14,1.81,2.01-.07.09-.18.36-.37.42ZM718.19,23.84c-.83-.03-1.57-1.02-1.57-2.11,0-1.16.52-1.83,1.38-1.8.93.03,1.66.94,1.65,2.06,0,1.13-.59,1.87-1.46,1.85Z"></path>
        <path fill="#EEEBE3" class="cls-1" d="M763.97,52.06s-.04,0-.06,0c-.73-.07-1.34,1.04-1.66,1.66-.15.29-.1.91.08,1.14.18.23.73.35.95.18.44-.34.89-.87,1.12-1.42.26-.62.24-1.43-.43-1.56Z"></path>
        <path fill="#EEEBE3" class="cls-1" d="M788.53,11.71c-.32-.59-.77-1.14-1.24-1.65-.65-.72-1.85-.87-2.76-.62-.48.13-1.17.07-1.62-.17-.72-.4-1.08-.26-1.41.32-.13.22-.31.56-.51.56-1.39.06-2.81.54-4.16-.48-.55-.42-.99-.34-1.27.21-.31.62-.71,1.06-1.54.95-.14-.02-.36.04-.43.14-.68.95-1.22.44-1.85-.22-.2-.21-.73-.37-.97-.28-.69.26-1.3.69-1.96,1.02-1.62.8-1.63.79-3.15-.5-.5-.43-.79-.4-.94.23-.06.25-.24.59-.44.64-1.17.27-2.36.44-3.54.68-1.15.23-2.31.46-3.44.75-1.58.41-3.17.81-4.71,1.34-.5.17-1.02.67-1.19,1.15-.2.56,0,1.28-.06,1.92-.03.29-.14.81-.45.76-1.25-.23-.99.57-.97,1.15.04,1.05-.14,1.99-.63,2.92-.4.75-.7,1.69-.61,2.55.12,1.14-.27,1.81-1.09,2.44-.63.48-1.16,1.04-1.05,2.02.07.61-.05,1.32-.34,1.83-1.21,2.15-2.52,4.24-3.78,6.36-1.33,2.24-2.63,3.91-.73,6.29.77.96,1.75,1.73,2.55,2.67.22.26.43.54.51.87.16.67-.26,1.44.08,2.05.3.54,1.08.66,1.39,1.21.34.61-.09,1.42.16,2.08.46,1.2,2.36.65,3.39,1.41.43.31.66.82.9,1.3.86,1.69,4.27,7.37,6.08,3.95,1.57-2.97,3.08-5.96,4.42-9.04.74-1.71,1.46-3.42,2.28-5.09.35-.72.86-1.4,1.45-1.95.91-.84,1.61-1.72,1.69-3.03.04-.69.35-1.24,1.02-1.62.4-.23.66-.75.84-1.2.6-1.52,1.33-2.95,2.53-4.08.61-.57,1.36-.46,1.6.37.22.77.33,1.83-.06,2.38-.61.88-.33,1.69,0,2.61.04.11.1.23.21.25.08,0,.15-.03.2-.09.34-.3.35-.82.45-1.27.18-.77.7-1.22,1.43-1.47.16-.06.27-.24.39-.38.95-1.19,1.93-2.35,2.81-3.59.81-1.13,1.57-2.29,1.37-3.87-.11-.88-.08-1.82,1.1-2.15,1.1-.31,1.87-1.78,1.9-2.98.01-.5.36-.98.62-1.43.29-.51.76-.93.93-1.48.3-.94.72-1.72,1.59-2.26.35-.22.49-.71.73-1.07.19-.28.35-.74.61-.79.67-.12.7-.47.58-1-.22-1.07,0-1.96.87-2.65.21-.17.33-.7.2-.93ZM777.17,31.52c-.19,1.12-1.18,1.07-2.08,1.22-.45-.05-.9-.06-1.34-.15-1.25-.25-1.54-.72-1.01-1.76.2-.39.56-.71.88-1.03.34-.35.67-.71,1.07-.97.46-.31.78-.93,1.44-.72s.95,1.06,1.14,1.68c.17.54,0,1.16-.1,1.73Z"></path>
        <path fill="#EEEBE3" class="cls-1" d="M770.73,41.08c-.27-.23-.7-.38-1.12-.32-.61.08-.98.51-1.21.91-.46.78-.72,1.63-.77,2.48-.02.45.01.9-.16,1.33-.25.65-.92,1.17-1.45,1.72-.53.56-.94,1.26-.6,1.89.1.18.27.36.52.44.36.12.81.03,1.11-.16.3-.19.47-.45.61-.72.7-1.36,1.5-2.69,2.18-4.07.38-.76,1.15-1.63,1.25-2.43.04-.34-.02-.69-.28-.97-.03-.03-.07-.07-.1-.1Z"></path>
        <path fill="#EEEBE3" class="cls-1" d="M747.31,107.08c.43.15.87-.21,1.14-.6.35-.52.57-1.16.61-1.81.03-.42-.03-.88-.3-1.17-.15-.17-.39-.24-.6-.23-.22.01-.45.25-.6.41-.34.36-.6.75-.75,1.25-.07.24-.15.47-.16.73-.01.26.03.53.12.77.01.03.02.06.04.09.11.25.28.47.52.56Z"></path>
      </g>
    </g>
  </g>
</svg>