<svg width="1447" height="179" viewBox="0 0 1447 179" fill="none" xmlns="http://www.w3.org/2000/svg">
<path d="M681.531 30.0454H642.791V6.9381H746.099V30.0454H707.546V139.487H681.531V30.0454Z" fill="#EEEBE3"></path>
<path d="M759.459 2.95868H783.629V58.064C786.208 53.1378 790.028 49.3212 795.072 46.614C800.116 43.9068 805.896 42.5458 812.41 42.5458C818.924 42.5458 825.165 44.1287 830.396 47.2797C835.628 50.4307 839.678 54.8835 842.575 60.6233C845.457 66.3631 846.913 72.9018 846.913 80.2245V139.487H822.744V85.5206C822.744 79.3369 821.014 74.322 817.584 70.4609C814.139 66.6146 809.657 64.6915 804.123 64.6915C800.188 64.6915 796.686 65.6678 793.602 67.6206C790.532 69.5733 788.096 72.2657 786.309 75.6682C784.522 79.0707 783.629 82.9317 783.629 87.2218V139.487H759.459V2.95868Z" fill="#EEEBE3"></path>
<path d="M879.946 133.999C872.754 129.324 867.306 123.17 863.616 115.536C859.927 107.903 858.082 99.9146 858.082 91.5859C858.082 83.2572 859.797 74.9877 863.242 67.5318C866.686 60.0908 871.846 54.0551 878.735 49.4543C885.624 44.8536 893.983 42.5458 903.827 42.5458C913.67 42.5458 922.361 44.7944 929.193 49.262C936.024 53.7444 941.054 59.4842 944.326 66.4963C947.583 73.5084 949.211 80.9198 949.211 88.7455C949.211 91.5267 949.082 94.3079 948.837 97.0742H872.091V80.979H925.042C924.667 75.18 922.577 70.3722 918.772 66.5851C914.953 62.7979 909.981 60.9044 903.827 60.9044C898.782 60.9044 894.574 61.9843 891.187 64.1293C887.8 66.2744 885.249 69.5881 883.534 74.0705C881.805 78.5529 880.954 84.2632 880.954 91.2013C880.954 97.0151 881.934 102.119 883.909 106.542C885.869 110.965 888.708 114.397 892.398 116.868C896.087 119.338 900.454 120.566 905.499 120.566C911.033 120.566 915.558 119.427 919.061 117.164C922.563 114.885 924.869 111.616 925.979 107.311H949.586C948.476 114.131 945.868 120.063 941.746 125.108C937.624 130.152 932.464 134.072 926.252 136.854C920.041 139.635 913.123 141.025 905.499 141.025C895.655 141.025 887.137 138.688 879.946 134.013V133.999Z" fill="#EEEBE3"></path>
<path d="M1365.31 159.266H1376C1378.34 159.266 1380.4 158.437 1382.19 156.81C1383.97 155.168 1385.53 152.579 1386.89 149.043L1390.2 139.383L1356.62 44.7056H1381.15L1401.2 108.332L1423.77 44.7056H1446.83L1413.07 139.383L1408.84 151.884C1406.62 158.319 1404.34 163.408 1402 167.121C1399.67 170.849 1396.63 173.719 1392.87 175.731C1389.12 177.743 1384.35 178.763 1378.57 178.763H1365.28V159.266H1365.31Z" fill="#EEEBE3"></path>
<path d="M978.599 7.58901H1004.8L1038.01 107.001L1073.26 7.58901H1097.41L1050.56 140.138H1025.47L978.613 7.58901H978.599Z" fill="#EEEBE3"></path>
<path d="M1105.18 137.963C1100.51 135.507 1096.88 132.09 1094.3 127.741C1091.72 123.392 1090.42 118.495 1090.42 113.066C1090.42 103.85 1093.59 96.5269 1099.92 91.0977C1106.25 85.6685 1114.59 82.9613 1124.91 82.9613H1141.33C1143.55 82.9613 1145.23 82.3696 1146.4 81.1565C1147.57 79.9583 1148.16 78.2866 1148.16 76.1416C1148.16 71.8515 1146.59 68.3455 1143.46 65.6383C1140.32 62.9311 1136 61.5701 1130.46 61.5701C1126.77 61.5701 1123.54 62.295 1120.78 63.7447C1118.01 65.1945 1115.89 67.1176 1114.41 69.5141C1112.94 71.9107 1112.13 74.4995 1112.01 77.2807H1090.42C1090.8 70.9639 1092.7 65.2241 1096.15 60.0464C1099.59 54.8687 1104.36 50.7709 1110.44 47.7383C1116.52 44.7056 1123.63 43.1967 1131.74 43.1967C1139.86 43.1967 1146.44 44.676 1152.58 47.6495C1158.74 50.623 1163.52 54.7799 1166.97 60.1499C1170.41 65.5199 1172.13 71.7332 1172.13 78.8044V140.153H1148.15V126.513C1146.42 131.188 1143.13 134.871 1138.27 137.593C1133.42 140.301 1127.72 141.661 1121.21 141.661C1115.18 141.661 1109.84 140.434 1105.15 137.963H1105.18ZM1142.54 117.045C1146.29 112.755 1148.16 107.193 1148.16 100.388V99.0565H1128.41C1123.99 99.0565 1120.44 100.255 1117.81 102.651C1115.16 105.048 1113.84 108.14 1113.84 111.927C1113.84 115.329 1115.07 118.11 1117.53 120.255C1120 122.401 1123.18 123.48 1127.13 123.48C1133.65 123.48 1138.78 121.335 1142.54 117.045Z" fill="#EEEBE3"></path>
<path d="M1187.06 3.60959H1211.23V140.138H1187.06V3.60959Z" fill="#EEEBE3"></path>
<path d="M1225.8 3.60959H1249.97V140.138H1225.8V3.60959Z" fill="#EEEBE3"></path>
<path d="M1284.13 134.649C1276.93 129.975 1271.49 123.821 1267.8 116.187C1264.11 108.554 1262.26 100.565 1262.26 92.2368C1262.26 83.9081 1263.98 75.6386 1267.42 68.1827C1270.87 60.7417 1276.03 54.706 1282.91 50.1052C1289.8 45.5045 1298.16 43.1967 1308.01 43.1967C1317.85 43.1967 1326.54 45.4453 1333.37 49.9129C1340.2 54.3953 1345.23 60.1351 1348.51 67.1472C1351.76 74.1593 1353.39 81.5708 1353.39 89.3965C1353.39 92.1776 1353.26 94.9588 1353.02 97.7251H1276.27V81.6299H1329.22C1328.85 75.8309 1326.76 71.0231 1322.95 67.236C1319.13 63.4489 1314.16 61.5553 1308.01 61.5553C1302.96 61.5553 1298.75 62.6352 1295.37 64.7803C1291.98 66.9253 1289.43 70.239 1287.71 74.7214C1285.98 79.2038 1285.13 84.9141 1285.13 91.8522C1285.13 97.666 1286.11 102.77 1288.09 107.193C1290.05 111.616 1292.89 115.048 1296.58 117.519C1300.27 119.989 1304.63 121.217 1309.68 121.217C1315.21 121.217 1319.74 120.078 1323.24 117.815C1326.74 115.536 1329.05 112.267 1330.16 107.962H1353.77C1352.66 114.782 1350.05 120.714 1345.93 125.759C1341.8 130.803 1336.64 134.723 1330.43 137.505C1324.22 140.286 1317.3 141.676 1309.68 141.676C1299.83 141.676 1291.32 139.339 1284.13 134.664V134.649Z" fill="#EEEBE3"></path>
<path d="M0 6.9381H50.5441C58.543 6.9381 65.605 8.26951 71.7591 10.9175C77.9132 13.5655 82.6981 17.4562 86.1426 22.5599C89.5872 27.6784 91.3022 33.8325 91.3022 41.0221C91.3022 46.8359 89.7889 52.0727 86.7768 56.7326C83.7646 61.4074 80.1038 64.869 75.7946 67.1472C82.3089 69.6769 87.5983 73.7155 91.6625 79.263C95.7268 84.8253 97.7446 91.7634 97.7446 100.092C97.7446 108.421 95.871 115.374 92.1237 121.306C88.3765 127.238 83.0584 131.75 76.1693 134.842C69.2802 137.934 61.3534 139.487 52.3745 139.487H0V6.9381ZM62.5352 54.3657C65.605 51.7769 67.1471 48.0933 67.1471 43.2855C67.1471 38.4776 65.5762 34.7941 62.4487 32.2052C59.3068 29.6164 54.6084 28.3293 48.339 28.3293H25.654V58.2416H48.7137C54.8678 58.2416 59.4798 56.9545 62.5496 54.3657H62.5352ZM67.3345 111.927C71.1394 108.968 73.0562 104.574 73.0562 98.7607C73.0562 92.9469 71.1538 88.3461 67.3345 85.3135C63.5152 82.2808 57.6782 80.7719 49.8091 80.7719H25.6396V116.365H49.8091C57.6782 116.365 63.5152 114.885 67.3345 111.912V111.927Z" fill="#EEEBE3"></path>
<path d="M129.379 133.999C122.187 129.324 116.74 123.17 113.05 115.536C109.36 107.903 107.516 99.9146 107.516 91.5859C107.516 83.2572 109.231 74.9877 112.675 67.5318C116.12 60.0908 121.279 54.0551 128.169 49.4543C135.058 44.8536 143.417 42.5458 153.26 42.5458C163.104 42.5458 171.795 44.7944 178.626 49.262C185.458 53.7444 190.488 59.4842 193.759 66.4963C197.016 73.5084 198.645 80.9198 198.645 88.7455C198.645 91.5267 198.515 94.3079 198.27 97.0742H121.524V80.979H174.475C174.101 75.18 172.011 70.3722 168.206 66.5851C164.387 62.7979 159.414 60.9044 153.26 60.9044C148.216 60.9044 144.008 61.9843 140.621 64.1293C137.234 66.2744 134.683 69.5881 132.968 74.0705C131.238 78.5529 130.388 84.2632 130.388 91.2013C130.388 97.0151 131.368 102.119 133.343 106.542C135.303 110.965 138.142 114.397 141.831 116.868C145.521 119.338 149.888 120.566 154.932 120.566C160.467 120.566 164.992 119.427 168.494 117.164C171.996 114.885 174.302 111.616 175.412 107.311H199.02C197.91 114.131 195.301 120.063 191.179 125.108C187.057 130.152 181.898 134.072 175.686 136.854C169.474 139.635 162.556 141.025 154.932 141.025C145.089 141.025 136.571 138.688 129.379 134.013V133.999Z" fill="#EEEBE3"></path>
<path d="M317.116 134.561C309.679 130.271 303.856 124.398 299.677 116.957C295.497 109.515 293.407 101.113 293.407 91.7782C293.407 82.4435 295.497 74.0409 299.677 66.5998C303.856 59.1587 309.636 53.2858 317.015 48.9957C324.394 44.7056 332.753 42.5606 342.107 42.5606C351.46 42.5606 359.848 44.7056 367.285 48.9957C374.722 53.2858 380.53 59.1587 384.724 66.5998C388.903 74.0557 390.993 82.4435 390.993 91.7782C390.993 101.113 388.903 109.515 384.724 116.957C380.544 124.412 374.765 130.271 367.386 134.561C360.007 138.851 351.648 140.996 342.294 140.996C332.94 140.996 324.552 138.851 317.116 134.561ZM354.934 116.01C358.681 113.613 361.578 110.329 363.61 106.157C365.642 101.986 366.651 97.1925 366.651 91.7634C366.651 86.3342 365.642 81.5411 363.61 77.3694C361.578 73.1977 358.695 69.9283 354.934 67.517C351.186 65.1205 346.906 63.9222 342.107 63.9222C337.307 63.9222 333.07 65.1205 329.38 67.517C325.691 69.9135 322.837 73.1977 320.805 77.3694C318.773 81.5411 317.764 86.3342 317.764 91.7634C317.764 97.1925 318.773 101.986 320.805 106.157C322.837 110.329 325.72 113.613 329.481 116.01C333.229 118.406 337.437 119.605 342.121 119.605C346.805 119.605 351.186 118.406 354.948 116.01H354.934Z" fill="#EEEBE3"></path>
<path d="M403.1 44.0547H427.269V58.0641C429.849 53.1379 433.668 49.3212 438.713 46.614C443.757 43.9068 449.536 42.5458 456.051 42.5458C462.565 42.5458 468.806 44.1287 474.037 47.2797C479.269 50.4307 483.319 54.8835 486.216 60.6233C489.098 66.3632 490.554 72.9018 490.554 80.2246V139.487H466.384V85.5206C466.384 79.337 464.655 74.322 461.225 70.4609C457.78 66.6146 453.298 64.6915 447.763 64.6915C443.829 64.6915 440.327 65.6679 437.242 67.6206C434.173 69.5733 431.737 72.2657 429.95 75.6682C428.163 79.0707 427.269 82.9317 427.269 87.2218V139.487H403.1V44.0547Z" fill="#EEEBE3"></path>
<path d="M522.39 134.842C515.746 130.744 510.673 124.989 507.171 117.607C503.668 110.226 501.91 101.601 501.91 91.7634C501.91 81.9258 503.668 73.3012 507.171 65.9193C510.673 58.5374 515.717 52.7976 522.304 48.685C528.876 44.5873 536.658 42.531 545.637 42.531C551.417 42.531 556.619 43.6405 561.231 45.8447C565.843 48.0489 569.504 51.052 572.214 54.8391V2.95868H596.383V139.487H572.214V128.318C569.634 132.238 566.002 135.33 561.332 137.593C556.663 139.871 551.561 140.996 546.026 140.996C536.918 140.996 529.049 138.939 522.419 134.842H522.39ZM562.327 116.187C565.959 113.909 568.755 110.669 570.715 106.438C572.675 102.208 573.669 97.3257 573.669 91.7634C573.669 83.3016 571.479 76.5558 567.126 71.4964C562.759 66.4519 556.951 63.9222 549.687 63.9222C544.888 63.9222 540.708 65.0613 537.148 67.3247C533.574 69.6029 530.807 72.8426 528.847 77.0735C526.872 81.3045 525.892 86.2011 525.892 91.7486C525.892 100.21 528.04 106.956 532.349 112.016C536.658 117.06 542.438 119.59 549.687 119.59C554.486 119.59 558.695 118.451 562.327 116.187Z" fill="#EEEBE3"></path>
<path d="M211.113 158.615H221.806C224.141 158.615 226.202 157.786 227.989 156.159C229.777 154.517 231.333 151.928 232.688 148.392L236.003 138.732L202.422 44.0547H226.952L246.999 107.681L269.569 44.0547H292.629L258.875 138.732L254.638 151.233C252.418 157.668 250.141 162.757 247.806 166.47C245.472 170.198 242.431 173.068 238.669 175.08C234.922 177.092 230.151 178.112 224.372 178.112H211.084V158.615H211.113Z" fill="#EEEBE3"></path>
</svg>