<?xml version="1.0"?>
<svg xmlns="http://www.w3.org/2000/svg" width="1000" height="1000" viewBox="0 0 750 749.999995" preserveAspectRatio="xMidYMid meet" version="1.1">
  <g fill="#C52422" transform="matrix(0.869859,0,0,0.87,9.861973,10.291075)">
    <path d="M398.0,800.3342449103546 C322.2581113373244,795.0097475750404 255.687600506943,770.5605408762436 197.5,726.697046067176 C137.8314412193217,681.7171621135751 90.95068648058401,616.3850827553385 68.45649785596751,546.8646101407036 C65.9999611374092,539.2724450477833 65.81475838335606,537.861426385591 66.92346486460198,535.1847721618763 C69.20417020160798,529.6786624054998 77.64582804690957,527.7411879295938 81.37955086390878,531.8669052027519 C82.2041264678763,532.7780509891571 84.7680790825624,538.9182387766128 87.07722334098898,545.5117669526535 C126.30521988221517,657.5233485332858 218.6383448930493,742.8991848352346 331.5,771.5173198466875 C392.9243094309146,787.0925759300171 455.4642578618804,786.399284318462 515.5,769.4775730971849 C609.9125171144377,742.8664029277734 690.1526112218978,676.0600421842828 734.4390079504606,587.1931614366986 C741.3114737327139,573.4025927242196 748.5696494173225,555.8815794289385 752.9533947693724,542.5 C756.7426845544284,530.9330228683838 759.3133603216748,527.5999999999999 764.445385807089,527.6 C768.3823088882418,527.6000000000001 772.4696728860722,530.7508724653463 773.4141137652898,534.51382465268 C774.1743206782459,537.5427302505656 765.7485832688399,562.0220768897461 757.5189393869052,580.6941723886924 C727.7939594192442,648.13666110668 675.9810837462416,707.462886867562 612.8669489590195,746.322050197397 C562.5841857314552,777.2809806417853 505.7121012566808,795.5064057347981 445.5,799.9570421177598 C432.62353161331794,800.9088188784065 408.85804949119813,801.0975432199607 398.0,800.3342449103546 Z M214.7499780326038,668.9198889069551 C212.07271022995172,667.3605243320114 209.73384357361547,662.0807821319225 210.3517351342167,658.9913243289166 C210.77321668091568,656.8839165954216 275.93810144076986,531.7986040179693 293.50543101402025,499.37612544647294 L296.82350314443494,493.2522508929459 L292.6665962631163,494.18624585307134 C281.2833313341222,496.7438956578419 271.0365806519815,491.2346737950833 263.4727433674068,478.4900102735793 C262.55625026853664,476.9457681481306 261.8553903798223,477.26395768605846 256.9727433674068,481.44100237604493 C248.41731198357368,488.76006909160185 238.5388222166363,493.20161731536916 229.52997222601033,493.77977017294785 C222.85097470192812,494.2084021857272 221.44958495648947,493.96540787923686 216.42602227087895,491.5076076699787 C212.2994077677121,489.48864331656017 210.0383626982543,487.5531121466492 207.9385399682563,484.2420353146549 C206.3642505029236,481.7596384432196 204.9090599182601,479.22717975478054 204.70478311344857,478.6143493403458 C204.49960972072915,477.9988291621875 202.59105969844177,479.02988157999357 200.44068637139708,480.9179343678851 C182.18701412287365,496.94487087450864 161.22078684842563,500.5182391800106 150.813618396327,489.3760985132881 C147.13143550964688,485.4338735101256 146.0,481.95703669171746 146.00000000000003,474.58412360405146 C146.00000000000006,466.50427863424045 146.58919227266742,464.78479094556565 156.2005943712057,444.8149001228119 C165.2534654300888,426.00548555198077 166.76256550110264,420.0136639464374 162.95963538706877,417.9783975147416 C157.66457895906075,415.14456931419426 146.34816839629173,418.91447804925167 136.29432460562975,426.86158423551126 C127.63157452107406,433.7090941253044 117.26072109069116,448.9318591789308 102.58927490761971,476.3352419357017 C93.51851366556772,493.27764414401594 91.75148561228198,495.0317179106596 85.34784902651762,493.4502689333415 C82.2833140043797,492.69344806885186 81.11443947616534,491.7103491653528 79.60602302779502,488.6210227592036 C77.74033455283391,484.79998203959815 77.74164305772729,484.67302578294783 79.69363030204087,480.1210227592036 C84.28054933836727,469.4244009529632 220.21150959623313,212.34728763841653 222.12506387932956,210.75000000000006 C227.37075567478797,206.37130077320305 236.99999999999994,211.01817104481043 236.99999999999994,217.9283305228036 C236.99999999999997,220.06097763872566 222.48215655951418,248.59409567920844 189.8750232766382,310.5469435430368 C163.95628607878922,359.79198353200627 142.91939197276886,400.25272530610783 143.1263697077041,400.45970304104026 C143.3333474426393,400.6666807759727 145.97708696815212,400.1680482045676 149.00134643106588,399.3516306601401 C166.28427502773968,394.6859972055893 182.5094560822095,404.0395426614826 183.78351070757128,419.40296651410983 C184.40384032214,426.8833261527315 182.18026633001588,433.8195087879912 173.01310661065668,453.0 C168.67578419624957,462.075 164.98597603932163,471.075 164.8135329285946,473.0 C164.51588138251947,476.3227145101878 164.6721272308121,476.51643228961126 167.89816478201578,476.8244090291902 C173.14497929972399,477.3253011616255 183.06371876316572,471.7246689786625 192.2733158215329,463.060940810303 C198.1488012597657,457.5337056477444 202.69577663744963,451.80308589296374 209.74239604228092,441.0444028052395 C220.97815646461092,423.8897959379288 234.57820617082595,409.5373379018129 244.60302748770997,404.2551438877242 C259.5317324691427,396.38903699181276 274.61928359406426,396.6022096025777 283.38160215032843,404.8030479136413 C285.6745598743177,406.9490752952978 286.3718508271681,407.1955490205866 286.7950636887897,406.00961538461627 C287.0875863522627,405.18990384615523 288.56874999999917,403.27740384615527 290.08653846153743,401.7596153846163 C294.1637348015174,397.68241904463434 299.8714453279522,397.8700771585818 303.5157965872687,402.2011425503541 C307.3306894503816,406.73488512264566 306.58414927796673,409.95858992995704 298.01937303880663,425.9357621608175 C282.1762550199313,455.4903258987539 280.6028895020417,459.02876074308415 280.54941116942985,465.2249934963567 C280.50694869650084,470.14488072353254 280.87926785412634,471.32957537525624 283.19691850798733,473.6491847316169 C285.78745012899316,476.24190567341327 286.06267715346405,476.2977967349142 290.17395183656924,475.06602887913925 C296.01288069288023,473.3166432428751 301.29314329521685,469.48261101274085 309.0507795230039,461.35944433911004 C318.6438624745949,451.3143469097388 319.37134727212293,450.15571413118596 335.9614580091989,418.5 C344.3205259853554,402.55 352.2739103164015,388.4875 353.6356454115235,387.25 C357.2636190389804,383.95301706986874 362.3838703860656,384.23002423221715 366.076923076924,387.9230769230778 C369.5393020840992,391.3854559302552 369.78390313742625,394.5430990456831 367.0107999796223,399.9788302910704 L365.02159995924455,403.87798444754793 L369.35178026758217,401.9625398102631 C385.2110512561088,394.94723019192463 399.2231907210622,398.5811366831673 405.4589494979256,411.32656854939455 C407.61760600363937,415.73870352777857 408.1383615372106,418.2227001963009 408.1471777588233,424.14938004887966 C408.1719868120552,440.82719537708704 402.1779149388065,454.559341312405 387.554314807808,471.32669210804954 C383.87357458749324,475.5470114486223 381.4976486890335,479.0 382.27447947789744,478.99999999999994 C387.8126715622661,478.9999999999997 404.4666059872927,470.91286389100986 413.1198260300895,464.0215264735474 C423.71449847175876,455.58403589062743 427.5739908500932,449.9076321198044 443.8534281271634,418.8196403876652 C452.29781359710324,402.6938381744493 460.3104072627,388.4875 461.65919182848944,387.25 C465.4316594422954,383.78878848372455 471.11297288300847,384.15711634894114 474.4111063580066,388.0767252819432 C477.5173256090482,391.76825711852314 477.6685319267678,394.76924530094556 475.010799979622,399.97883029107095 L473.0215999592441,403.877984447549 L477.3517802675824,401.9625398102631 C484.8886902948772,398.6286061480345 491.68815141157035,397.611951694195 497.60016998546405,398.93500347518165 C514.191545790421,402.6479906780126 520.5949648838522,419.67173349320746 513.6108389915521,441.5 C510.34224755688507,451.71569284946503 505.5159917095297,459.8039038964369 496.3152253850125,470.48532060069454 C492.2813160537269,475.16839427031255 489.58970700272624,479.0 490.3338719383444,479.0 C492.8554136362651,479.0 502.97513315912727,475.12213117018047 509.7536738620844,471.55834666255237 C522.7280244011333,464.7371455406902 536.4551013663396,451.09127135824906 541.1313644916713,440.3662713538616 C547.3572533238437,426.0872079301943 562.6348981392463,409.6470845957997 575.3380456110758,403.55679821462763 C584.9838028588855,398.9323203729981 594.1861364030912,397.27581546471623 601.3385800690819,398.87646221716113 C614.1227980255836,401.73744482817017 621.8034460966514,411.20283243272905 620.7517895168158,422.800687148579 C619.0995068891128,441.022352122728 602.0385362838755,455.2283711160095 572.561662967226,462.9267660741215 C568.1955775992003,464.0670447333547 563.1596352466689,465.00000000000006 561.3706799616009,465.0 C557.2741227196744,465.0 556.2717042556452,466.5373512277604 558.6520386632108,469.1694229385207 C563.1510023503814,474.144184052381 567.7705273721101,475.5031893408792 580.0,475.44972063555434 C592.7453763307553,475.3939963380299 597.024377844902,474.16020764319035 608.3799212461522,467.26677751712424 C625.5140125194021,456.86545573160885 632.9054982769238,447.7364306300944 649.4841912859893,416.5 C656.4900733059671,403.3 663.128684829085,391.51084277032305 664.2366613373624,390.30187282294014 C667.0281316908512,387.25595646896886 671.1929304096526,386.53128780229684 674.8973666779752,388.44692624650907 C678.4129961342575,390.2649288936725 679.9999999999999,392.77008082662076 680.0,396.50164621646763 C680.0,398.6577873990744 680.3534725599429,399.02258750870806 681.9512839011586,398.5154618891299 C685.0957369872581,397.5174512489567 695.3565786857168,397.74965648615114 699.6914900020463,398.91692688455544 C709.641085012246,401.5960745957828 716.8766073262999,410.59366593371396 717.740987743294,421.36202448521055 C718.4208724767723,429.8319555940654 716.5690134522986,435.73816480060555 707.4643553345496,454.13770564809136 C703.3589599005473,462.43427098927117 700.0,470.0235530627638 700.0,471.0027769225196 C700.0,473.5315866851997 703.8310870077028,474.1901523178842 709.6943530394892,472.66924070423005 C720.7968732844023,469.7892840572393 731.6388986337231,460.8167500867597 743.7249520553843,444.50654085175154 C760.2092260486945,422.26090379075464 765.6707944139537,402.9490376144249 764.7456293639153,370.17834792819724 C764.1269490720981,348.26379348487166 761.990216538308,336.8732703958768 754.0196218494236,313.0 C735.0765125557713,256.2622046461985 705.1377456560988,208.33687713736435 663.6767627052988,168.38111415624104 C577.3783440721197,85.21571586732945 458.75004137630134,52.108134131589466 340.0,78.04723401379903 C216.64662804640588,104.99185987521096 117.64930535947502,196.64896273494026 83.47549333418416,315.55156701344214 C75.64733427176841,342.78846111641036 71.58643068433184,368.2995904277442 70.2000145376733,398.9498671591111 C69.42050644839372,416.1828882172842 69.40798931841351,416.25231159228315 66.65310919853951,418.62195971017934 C63.04508822426704,421.7254486966278 58.926444275315745,421.6504313259796 55.07672528194489,418.411106358008 L51.99999999999997,415.822212716016 L52.00341712126887,403.661106358008 C52.00993966285179,380.44819827760546 56.10518466774764,349.27638139926944 62.46901651736424,324.0 C73.11175374403672,281.72831658181167 89.00165520672286,246.0825862030407 113.06424340290911,210.5 C126.4483061195842,190.7082983974901 137.74630500146552,177.16661562356907 156.4579642171737,158.48866526803772 C216.36249149168964,98.69205537864391 289.21956992142185,64.12517037883826 378.0099840402587,53.37378342322961 C395.8163488120973,51.2176597038546 438.8005205552809,50.94146405469825 456.0,52.87265702688046 C473.0039734684903,54.78189818543214 493.991986624911,58.46458291014258 508.06457049886836,62.008223935753676 C639.6676787336697,95.14742407239753 741.4988439622305,195.33865171211013 776.8855679503286,326.5 C782.3861533307984,346.887990567245 783.4271127932136,354.79534232096347 783.4019712917286,376.0 C783.3826935773735,392.25906606968965 783.0139037055004,397.19333094342835 781.1830422249345,405.68840683175887 C776.88733147553,425.62021991421557 770.178756520519,441.17958732884676 759.9008465230721,455.0487411108019 C747.807319284533,471.36791388807154 736.0248871207974,481.8402645774602 722.8934622187822,487.94129683663317 C700.1293288177362,498.51781182021165 678.9926884529361,488.6821185803649 681.3560383393669,468.61233290479703 C681.7705797281395,465.0920091160584 684.5015078923534,458.28426968912163 690.1257204810836,446.75100690574703 C699.3500667711501,427.83514835847956 700.8009578723122,421.93981959855455 697.0642304639155,418.5581277709522 C692.1748489270841,414.13329829369934 681.172989206346,417.1122825885737 672.3423286486777,425.2521012551077 C665.9717197958906,431.12432344261714 645.3886357034187,463.363792141661 635.5987776121576,482.8038538599013 C631.1191385485632,491.699228957264 628.7249015909413,494.0 623.9478021897255,494.0 C620.1254939999404,494.0 615.0,490.1985478357277 615.0,487.36363636363495 C615.0,485.6099990524862 615.221995453832,485.56963364342704 608.4880514629945,488.5477032529833 C590.8116216706503,496.36505938805954 568.624021196098,496.95045698459637 554.9234583173496,489.96095134724646 C549.8293470599747,487.3621297027768 543.6648058702481,481.8117464714818 540.895009932201,477.3301225018202 L538.7463484505752,473.85351519423193 L535.6231742252876,476.8402981976688 C529.8435705193978,482.3675025321509 517.7286740997032,489.95926252433617 509.82249934796187,493.00820624405037 C497.58847901787163,497.72614388438257 489.7475503280832,499.20985174975834 477.0,499.21907773269004 C458.16944883887885,499.23270626045695 444.0536183135106,494.9154315767189 434.9884441182455,486.36999837410843 L431.47688823649105,483.05977337694947 L383.4884441182455,574.2798866884748 C357.0947998532105,624.4509490098136 334.50795454545465,666.5125 333.29545454545473,667.75 C330.9212110878402,670.1731969309676 326.2263910759648,670.726712102387 322.9446089944208,668.9703556334478 C320.1914454419828,667.4969072157218 317.7107260141508,662.1854770241872 318.3400016858078,659.1115017845458 C318.6340330056022,657.6751758030456 338.26293004373844,619.6476118775272 361.9597728816662,574.6058041722827 C385.65661571959396,529.563996467038 404.9223298003713,492.59557117040106 404.77247083894923,492.4537479575338 C404.62261187752716,492.3119247446665 400.61035005590423,493.5005355354697 395.856333457565,495.0951052704297 C371.27427381313043,503.34030330900856 340.8930099525065,499.48025919375186 326.9592531345401,486.34149414090916 L323.41850626908024,483.0027649105496 L275.4592531345401,574.2462330670102 C249.08166391054306,624.4301405530634 226.50795454545454,666.5045184481897 225.29545454545456,667.7448506117353 C222.92853723275636,670.1660990005126 217.85935919517027,670.7309362852187 214.7499780326038,668.9198889069551 Z M237.001756064853,472.31183478798323 C245.06785275576314,468.29232922649186 254.59889166388461,458.2183746288582 264.36531654801445,443.3895663349525 C271.9527208607269,431.8692643476414 273.0,429.7395929190812 273.0,425.83069597005743 C273.0,419.34526745206256 271.2426648123601,417.484593912347 265.19857720145205,417.5705182444373 C258.07550360340923,417.67178172384774 250.04117771849974,422.05631205717253 241.67271603950059,430.40916250156226 C230.55009782938345,441.5110316410606 223.94234237724032,453.2938606168435 222.46192508009358,464.66549447444015 C222.1136128831278,467.3410095333791 222.30546173967238,470.72809328726953 222.89152139901054,472.25 C223.79135015228582,474.5867167456366 224.5258496902517,475.0 227.77890482933458,475.0 C229.9295072752847,475.0 233.97143367845175,473.8219081421717 237.001756064853,472.31183478798323 Z M357.05365567639825,472.340630217093 C360.5493917836187,470.6337137204123 365.5442749951359,466.59580186891526 371.0,461.0662707086503 C382.93946360669946,448.96528761451816 388.9728942105092,437.19754998675666 389.1348008124188,425.69575070009836 C389.24867840604617,417.6059186012141 387.753446657287,416.1172975556878 381.2554288727619,417.8512149586413 C370.52219238253707,420.71524921609415 358.9397897981703,431.53879338778535 346.6783898449374,450.1628279005955 C339.6779379315084,460.7959251438345 339.0,462.2685042187632 339.0,466.84139932916696 C339.0,470.0678328394481 339.560589445865,472.4177323030078 340.57142857142856,473.42857142857144 C343.07575790202844,475.9329007591712 350.73168250697483,475.4275566793544 357.05365567639825,472.340630217093 Z M465.05365567639825,472.3313556452824 C468.4181934912041,470.68277187748674 473.5708716734614,466.57370005979527 478.5338996139172,461.5813556452824 C490.9268336970667,449.1152168300825 497.0232209182682,437.52944827934135 497.31933797125237,425.8809099492813 C497.50030342848123,418.76216064490046 495.94213949082143,416.58542705392654 491.2145526295434,417.3526087880175 C479.48817865416066,419.255537319002 466.3757115294654,431.534048000072 452.54449159881875,453.56324351358705 C447.96043684175316,460.86433763213995 447.0,463.1690839533125 447.0,466.8682793677133 C447.0,469.62828126776793 447.6340835556802,472.04317309919827 448.65498756211207,473.17125932841594 C451.1685794749633,475.94874712834195 458.43008089955913,475.57682900980376 465.05365567639825,472.3313556452824 Z M570.4672425874372,444.0093677782452 C584.7948702038469,439.91203444848986 597.1522422632193,432.4738496009823 600.5510831009462,425.90121617551824 C603.8261293403773,419.5679751057127 601.0402184308086,416.31144374581004 593.2595266398534,417.3779061886509 C583.2582523335582,418.7487333226356 572.7785105699808,426.1177178862836 564.9235663532727,437.3027534471654 C562.2156048589727,441.15875099159325 560.0,444.69308500688334 560.0,445.1568290366989 C560.0,446.4829717443672 562.9473071786928,446.1598760698319 570.4672425874372,444.0093677782452 Z "></path>
  </g>
</svg>