<svg width="64" height="64" viewBox="0 0 64 64" fill="none" xmlns="http://www.w3.org/2000/svg">
<g id="Group 2">
<g id="Favicon light" clip-path="url(#clip0_855_16054)">
<circle id="Ellipse 1" cx="32" cy="32" r="32" fill="#EBE6DE"/>
<g id="Group 1">
<mask id="mask0_855_16054" style="mask-type:alpha" maskUnits="userSpaceOnUse" x="0" y="0" width="64" height="64">
<circle id="Ellipse 2" cx="32" cy="32" r="32" fill="#CA0013"/>
</mask>
<g mask="url(#mask0_855_16054)">
<g id="logo-h 1" clip-path="url(#clip1_855_16054)">
<g id="Clip path group">
<mask id="mask1_855_16054" style="mask-type:luminance" maskUnits="userSpaceOnUse" x="2" y="-35" width="65" height="93">
<g id="happen-h">
<path id="Vector" d="M44.9881 -34.3285H66.7883V16.3125L46.4414 27.8876L44.9881 39.4627L41.7181 44.9536L46.9574 53.635L2.11444 57.5488V38.0158L13.7412 33.6752L17.3746 22.1001L21.7346 7.63121L27.548 -6.83765L39.9014 -24.2003L44.9881 -34.3285Z" fill="white"/>
<path id="Vector_2" d="M43.215 50.0467C44.6638 50.0467 45.8383 48.8774 45.8383 47.4351C45.8383 45.9927 44.6638 44.8234 43.215 44.8234C41.7662 44.8234 40.5917 45.9927 40.5917 47.4351C40.5917 48.8774 41.7662 50.0467 43.215 50.0467Z" fill="white"/>
</g>
</mask>
<g mask="url(#mask1_855_16054)">
<g id="Group">
<path id="Vector_3" d="M101.597 136.032C80.6147 134.564 62.1735 127.82 46.0543 115.721C29.5249 103.314 16.5379 85.2928 10.3066 66.1172C9.62608 64.0229 9.57478 63.6337 9.88191 62.895C10.5137 61.3765 12.8522 60.8419 13.8865 61.9799C14.115 62.2316 14.8252 63.9252 15.4649 65.744C26.3319 96.64 51.9101 120.19 83.1755 128.084C100.191 132.38 117.516 132.189 134.147 127.521C160.302 120.181 182.53 101.753 194.797 77.2409C196.701 73.437 198.712 68.6037 199.926 64.9127C200.976 61.7223 201.688 60.8028 203.11 60.8028C204.201 60.8028 205.333 61.6724 205.594 62.7098C205.805 63.5454 203.471 70.298 201.191 75.4482C192.957 94.0515 178.604 110.415 161.12 121.134C147.19 129.674 131.435 134.701 114.755 135.929C111.189 136.191 104.605 136.243 101.597 136.032ZM50.8329 99.7841C50.0913 99.3537 49.4433 97.8974 49.6145 97.0452C49.7313 96.4642 67.7833 61.9611 72.6498 53.0179L73.569 51.3286L72.4174 51.5862C69.264 52.2915 66.4255 50.7723 64.3302 47.2571C64.0763 46.831 63.8821 46.9185 62.5295 48.0709C60.1595 50.0893 57.4229 51.3149 54.9273 51.474C53.0771 51.5927 52.6889 51.5254 51.2972 50.8475C50.1541 50.2905 49.5277 49.7566 48.946 48.8436C48.5099 48.1585 48.1068 47.4604 48.0502 47.2911C47.9934 47.1211 47.4647 47.4054 46.8689 47.9263C41.8123 52.3472 36.0043 53.3333 33.1213 50.2594C32.1012 49.172 31.7877 48.2135 31.7877 46.1791C31.7877 43.9509 31.9509 43.4764 34.6135 37.9681C37.1214 32.7795 37.5394 31.1272 36.486 30.5658C35.0191 29.7837 31.8842 30.8241 29.099 33.0161C26.6993 34.905 23.8264 39.1039 19.7621 46.6624C17.2493 51.3358 16.7598 51.8198 14.9858 51.3836C14.1369 51.1745 13.8131 50.9032 13.3952 50.051C12.8784 48.997 12.8788 48.9622 13.4195 47.7063C14.6902 44.7561 52.3459 -26.1545 52.876 -26.5952C54.3292 -27.803 56.9967 -26.5212 56.9967 -24.6151C56.9967 -24.0269 52.9749 -16.1564 43.9421 0.932251C36.762 14.5155 30.9343 25.676 30.9917 25.7332C31.0491 25.7904 31.7814 25.6529 32.6192 25.4279C37.4069 24.1409 41.9016 26.7207 42.2546 30.9586C42.4264 33.0219 41.8104 34.9354 39.2709 40.2259C38.0695 42.729 37.0472 45.2112 36.9995 45.7422C36.917 46.6588 36.9603 46.7123 37.854 46.7977C39.3075 46.9359 42.0552 45.3906 44.6065 43.0011C46.2341 41.4761 47.4937 39.8953 49.4457 36.9277C52.5583 32.1964 56.3258 28.237 59.1028 26.78C63.2384 24.6104 67.418 24.669 69.8453 26.9312C70.4805 27.523 70.6737 27.591 70.7909 27.264C70.8719 27.0383 71.2823 26.5109 71.7028 26.092C72.8322 24.9671 74.4134 25.0192 75.423 26.2136C76.4797 27.4644 76.2729 28.3535 73.9003 32.7607C69.5114 40.9125 69.0755 41.8884 69.0607 43.5979C69.049 44.9551 69.1521 45.2813 69.7941 45.9216C70.5118 46.6364 70.588 46.6523 71.727 46.3123C73.3445 45.8297 74.8072 44.772 76.9562 42.5315C79.614 39.7608 79.8153 39.441 84.4108 30.7098C86.7267 26.3098 88.93 22.4307 89.3071 22.0899C90.3121 21.1806 91.7306 21.2565 92.7537 22.2751C93.7129 23.2301 93.7805 24.1011 93.0124 25.6008L92.4616 26.6766L93.6606 26.1477C98.0541 24.2125 101.936 25.2152 103.663 28.7311C104.261 29.948 104.405 30.6331 104.408 32.2681C104.415 36.8684 102.754 40.6557 98.703 45.2806C97.6835 46.4454 97.0258 47.3974 97.2409 47.3974C98.7749 47.3974 103.389 45.1671 105.786 43.2658C108.72 40.9385 109.79 39.373 114.3 30.7973C116.639 26.3496 118.858 22.4307 119.232 22.0899C120.277 21.135 121.851 21.2363 122.765 22.3178C123.625 23.3357 123.667 24.164 122.931 25.6008L122.379 26.6766L123.579 26.1477C125.667 25.2282 127.55 24.9475 129.188 25.3129C133.785 26.3373 135.558 31.0324 133.624 37.0536C132.719 39.8714 131.381 42.1025 128.832 45.0491C127.715 46.3405 126.969 47.3974 127.175 47.3974C127.874 47.3974 130.677 46.3282 132.555 45.345C136.149 43.4633 139.952 39.6993 141.247 36.7411C142.972 32.802 147.204 28.2674 150.723 26.5876C153.395 25.3121 155.944 24.8549 157.926 25.297C161.468 26.0855 163.596 28.6964 163.304 31.8955C162.846 36.922 158.12 40.8401 149.954 42.9642C148.745 43.2781 147.349 43.5357 146.854 43.5357C145.719 43.5357 145.442 43.9596 146.101 44.686C147.347 46.0583 148.627 46.4331 152.015 46.4179C155.545 46.4027 156.731 46.0627 159.876 44.1607C164.623 41.2923 166.671 38.774 171.263 30.1578C173.204 26.5167 175.043 23.2648 175.35 22.9313C176.123 22.0914 177.277 21.8917 178.303 22.4198C179.277 22.9212 179.717 23.6121 179.717 24.6415C179.717 25.2362 179.815 25.3367 180.257 25.1971C181.129 24.9215 183.971 24.9859 185.172 25.3078C187.928 26.0464 189.932 28.5286 190.172 31.499C190.36 33.835 189.847 35.4642 187.325 40.5399C186.188 42.8282 185.258 44.9218 185.258 45.1917C185.258 45.889 186.319 46.0706 187.943 45.651C191.019 44.8567 194.022 42.3818 197.37 37.8827C201.936 31.7472 203.449 26.4197 203.193 17.381C203.022 11.3359 202.43 8.19403 200.222 1.60889C194.974 -14.0414 186.68 -27.2608 175.195 -38.282C151.289 -61.2219 118.426 -70.3541 85.5299 -63.1992C51.3583 -55.7669 23.934 -30.4847 14.4671 2.31244C12.2986 9.8254 11.1737 16.8623 10.7896 25.3172C10.5736 30.0702 10.5702 30.0898 9.80702 30.743C8.80752 31.5989 7.66657 31.5786 6.60012 30.6852L5.7478 29.9711L5.74875 26.6165C5.75056 20.2133 6.88502 11.6152 8.64794 4.64338C11.5962 -7.01686 15.998 -16.8492 22.6639 -26.6641C26.3716 -32.1234 29.5013 -35.8586 34.6848 -41.0107C51.2796 -57.5046 71.4626 -67.0394 96.0593 -70.005C100.992 -70.5997 112.899 -70.6759 117.664 -70.1432C122.374 -69.6166 128.188 -68.6007 132.087 -67.6233C168.544 -58.4823 196.754 -30.8461 206.556 5.33282C208.08 10.9561 208.368 13.1373 208.361 18.9864C208.356 23.471 208.254 24.8325 207.747 27.1757C206.556 32.6732 204.698 36.9654 201.851 40.7909C198.501 45.2922 195.237 48.1809 191.599 49.8636C185.293 52.7813 179.438 50.0684 180.092 44.5319C180.207 43.561 180.964 41.6837 182.522 38.502C185.077 33.2845 185.479 31.6582 184.444 30.7257C183.089 29.5052 180.042 30.3271 177.596 32.5719C175.831 34.1917 170.129 43.0843 167.417 48.4464C166.176 50.9003 165.513 51.5348 164.189 51.5348C163.13 51.5348 161.711 50.4865 161.711 49.7045C161.711 49.2205 161.772 49.2097 159.906 50.0308C155.01 52.1873 148.864 52.3487 145.068 50.4207C143.657 49.7038 141.949 48.1729 141.182 46.9366L140.587 45.978L139.721 46.802C138.121 48.3263 134.764 50.4207 132.574 51.2613C129.185 52.5628 127.013 52.9723 123.482 52.9744C118.265 52.9781 114.355 51.7873 111.843 49.4303L110.871 48.5173L97.5766 73.6787C90.2656 87.5181 84.0082 99.12 83.6725 99.4615C83.0149 100.13 81.7141 100.283 80.805 99.7979C80.0428 99.3913 79.3553 97.9263 79.5297 97.0784C79.6111 96.682 85.0488 86.1928 91.6128 73.7691C98.1776 61.3447 103.514 51.1478 103.473 51.1087C103.431 51.0696 102.32 51.3973 101.003 51.8372C94.1933 54.1117 85.7769 53.0468 81.9176 49.4223L80.9366 48.5014L67.6507 73.67C60.3436 87.5123 54.0901 99.1178 53.7542 99.46C53.0986 100.128 51.6943 100.283 50.8329 99.7841ZM56.9972 45.5526C59.2316 44.4436 61.8719 41.6649 64.5774 37.5752C66.6793 34.3972 66.9694 33.8097 66.9694 32.7318C66.9694 30.9427 66.4826 30.4291 64.8082 30.4529C62.835 30.4811 60.6093 31.6907 58.2911 33.9942C55.2099 37.0565 53.3794 40.307 52.9693 43.4438C52.8728 44.1817 52.926 45.1157 53.0883 45.5353C53.3376 46.1799 53.541 46.2942 54.4423 46.2942C55.038 46.2942 56.1577 45.9693 56.9972 45.5526ZM90.254 45.5606C91.2226 45.0896 92.6062 43.9763 94.1177 42.4505C97.4248 39.1126 99.0961 35.8672 99.1412 32.6942C99.1724 30.4631 98.7582 30.0521 96.9582 30.5303C93.9854 31.3203 90.7764 34.306 87.38 39.4432C85.4405 42.376 85.253 42.7826 85.253 44.0435C85.253 44.9334 85.4078 45.5816 85.6883 45.8608C86.3815 46.5517 88.5027 46.4121 90.254 45.5606ZM120.173 45.5577C121.104 45.1034 122.532 43.9697 123.907 42.593C127.34 39.1545 129.028 35.9583 129.111 32.7455C129.161 30.7821 128.729 30.1816 127.42 30.3929C124.171 30.9181 120.539 34.3045 116.707 40.3815C115.437 42.3948 115.171 43.0307 115.171 44.0508C115.171 44.8126 115.347 45.4789 115.629 45.7899C116.326 46.5561 118.338 46.4533 120.173 45.5577ZM149.374 37.746C153.343 36.616 156.766 34.5643 157.708 32.7513C158.615 31.0042 157.843 30.1057 155.688 30.4001C152.917 30.7778 150.014 32.8106 147.838 35.8961C147.088 36.9596 146.474 37.9348 146.474 38.0621C146.474 38.4282 147.291 38.3392 149.374 37.746Z" fill="#CA0013"/>
</g>
</g>
</g>
</g>
</g>
</g>
</g>
</g>
<defs>
<clipPath id="clip0_855_16054">
<rect width="64" height="64" fill="white"/>
</clipPath>
<clipPath id="clip1_855_16054">
<rect width="44" height="79" fill="white" transform="translate(13 -27)"/>
</clipPath>
</defs>
</svg>
